<?xml version="1.0" encoding="UTF-8" standalone="no"?>
<svg width="96px" height="96px" viewBox="0 0 96 96" version="1.1" xmlns="http://www.w3.org/2000/svg" xmlns:xlink="http://www.w3.org/1999/xlink">
    <!-- Generator: Sketch 47.1 (45422) - http://www.bohemiancoding.com/sketch -->
    <title>favicon-96x96</title>
    <desc>Created with Sketch.</desc>
    <defs></defs>
    <g id="Favicons" stroke="none" stroke-width="1" fill="none" fill-rule="evenodd">
        <g id="favicon-96x96" fill="#7109AA">
            <rect id="Rectangle-Copy" x="11" y="33" width="6" height="11" rx="2"></rect>
            <rect id="Rectangle-Copy-2" x="19" y="33" width="6" height="11" rx="2"></rect>
            <rect id="Rectangle-Copy-3" x="27" y="33" width="6" height="11" rx="2"></rect>
            <rect id="Rectangle-Copy-4" x="40" y="33" width="10" height="11" rx="2"></rect>
            <rect id="Rectangle-Copy-24" x="2" y="24" width="93" height="6" rx="2"></rect>
            <rect id="Rectangle-Copy-5" x="57" y="33" width="6" height="11" rx="2"></rect>
            <rect id="Rectangle-Copy-6" x="65" y="33" width="6" height="11" rx="2"></rect>
            <rect id="Rectangle-Copy-7" x="73" y="33" width="6" height="11" rx="2"></rect>
            <rect id="Rectangle-Copy-8" x="81" y="33" width="6" height="11" rx="2"></rect>
            <rect id="Rectangle-Copy-17" x="2" y="33" width="6" height="25" rx="2"></rect>
            <rect id="Rectangle-Copy-16" x="11" y="47" width="6" height="11" rx="2"></rect>
            <rect id="Rectangle-Copy-15" x="19" y="47" width="6" height="11" rx="2"></rect>
            <rect id="Rectangle-Copy-14" x="27" y="47" width="6" height="11" rx="2"></rect>
            <rect id="Rectangle-Copy-13" x="40" y="47" width="10" height="11" rx="2"></rect>
            <rect id="Rectangle-Copy-12" x="57" y="47" width="6" height="11" rx="2"></rect>
            <rect id="Rectangle-Copy-11" x="65" y="47" width="6" height="11" rx="2"></rect>
            <rect id="Rectangle-Copy-21" x="25" y="61" width="6" height="11" rx="2"></rect>
            <rect id="Rectangle-Copy-20" x="33" y="61" width="6" height="11" rx="2"></rect>
            <rect id="Rectangle-Copy-19" x="51" y="61" width="6" height="11" rx="2"></rect>
            <rect id="Rectangle-Copy-18" x="59" y="61" width="6" height="11" rx="2"></rect>
            <rect id="Rectangle-Copy-10" x="73" y="47" width="6" height="11" rx="2"></rect>
            <rect id="Rectangle-Copy-9" x="81" y="47" width="6" height="11" rx="2"></rect>
            <rect id="Rectangle-Copy-23" x="89" y="33" width="6" height="11" rx="2"></rect>
            <rect id="Rectangle-Copy-22" x="89" y="47" width="6" height="11" rx="2"></rect>
        </g>
    </g>
</svg>