<?xml version="1.0" encoding="UTF-8" standalone="no"?>
<svg width="260px" height="260px" viewBox="0 0 260 260" version="1.1" xmlns="http://www.w3.org/2000/svg" xmlns:xlink="http://www.w3.org/1999/xlink">
    <!-- Generator: Sketch 47.1 (45422) - http://www.bohemiancoding.com/sketch -->
    <title>favicon-260x260</title>
    <desc>Created with Sketch.</desc>
    <defs></defs>
    <g id="Favicons" stroke="none" stroke-width="1" fill="none" fill-rule="evenodd">
        <g id="favicon-260x260" fill="#7109AA">
            <rect id="Rectangle-Copy" x="32" y="90" width="16" height="29" rx="4"></rect>
            <rect id="Rectangle-Copy-2" x="53" y="90" width="16" height="29" rx="4"></rect>
            <rect id="Rectangle-Copy-3" x="75" y="90" width="16" height="29" rx="4"></rect>
            <rect id="Rectangle-Copy-4" x="108" y="90" width="25" height="29" rx="4"></rect>
            <rect id="Rectangle-Copy-24" x="9" y="67" width="242" height="16" rx="4"></rect>
            <rect id="Rectangle-Copy-5" x="150" y="90" width="16" height="29" rx="4"></rect>
            <rect id="Rectangle-Copy-6" x="171" y="90" width="16" height="29" rx="4"></rect>
            <rect id="Rectangle-Copy-7" x="192" y="90" width="16" height="29" rx="4"></rect>
            <rect id="Rectangle-Copy-8" x="213" y="90" width="16" height="29" rx="4"></rect>
            <rect id="Rectangle-Copy-17" x="9" y="90" width="16" height="66" rx="4"></rect>
            <rect id="Rectangle-Copy-16" x="32" y="127" width="16" height="29" rx="4"></rect>
            <rect id="Rectangle-Copy-15" x="53" y="127" width="16" height="29" rx="4"></rect>
            <rect id="Rectangle-Copy-14" x="75" y="127" width="16" height="29" rx="4"></rect>
            <rect id="Rectangle-Copy-13" x="108" y="127" width="25" height="29" rx="4"></rect>
            <rect id="Rectangle-Copy-12" x="150" y="127" width="16" height="29" rx="4"></rect>
            <rect id="Rectangle-Copy-11" x="171" y="127" width="16" height="29" rx="4"></rect>
            <rect id="Rectangle-Copy-21" x="70" y="164" width="16" height="29" rx="4"></rect>
            <rect id="Rectangle-Copy-20" x="91" y="164" width="16" height="29" rx="4"></rect>
            <rect id="Rectangle-Copy-19" x="134" y="164" width="16" height="29" rx="4"></rect>
            <rect id="Rectangle-Copy-18" x="157" y="164" width="16" height="29" rx="4"></rect>
            <rect id="Rectangle-Copy-10" x="192" y="127" width="16" height="29" rx="4"></rect>
            <rect id="Rectangle-Copy-9" x="213" y="127" width="16" height="29" rx="4"></rect>
            <rect id="Rectangle-Copy-23" x="234" y="90" width="16" height="29" rx="4"></rect>
            <rect id="Rectangle-Copy-22" x="234" y="127" width="16" height="29" rx="4"></rect>
        </g>
    </g>
</svg>