<?xml version="1.0" encoding="UTF-8" standalone="no"?>
<svg width="180px" height="180px" viewBox="0 0 180 180" version="1.1" xmlns="http://www.w3.org/2000/svg" xmlns:xlink="http://www.w3.org/1999/xlink">
    <!-- Generator: Sketch 47.1 (45422) - http://www.bohemiancoding.com/sketch -->
    <title>favicon-180x180</title>
    <desc>Created with Sketch.</desc>
    <defs></defs>
    <g id="Favicons" stroke="none" stroke-width="1" fill="none" fill-rule="evenodd">
        <g id="favicon-180x180" fill="#7109AA">
            <rect id="Rectangle-Copy" x="21" y="61" width="11" height="21" rx="4"></rect>
            <rect id="Rectangle-Copy-2" x="36" y="61" width="11" height="21" rx="4"></rect>
            <rect id="Rectangle-Copy-3" x="51" y="61" width="11" height="21" rx="4"></rect>
            <rect id="Rectangle-Copy-4" x="75" y="61" width="16" height="21" rx="4"></rect>
            <rect id="Rectangle-Copy-24" x="5" y="44" width="170" height="11" rx="4"></rect>
            <rect id="Rectangle-Copy-5" x="104" y="61" width="11" height="21" rx="4"></rect>
            <rect id="Rectangle-Copy-6" x="119" y="61" width="11" height="21" rx="4"></rect>
            <rect id="Rectangle-Copy-7" x="134" y="61" width="11" height="21" rx="4"></rect>
            <rect id="Rectangle-Copy-8" x="149" y="61" width="11" height="21" rx="4"></rect>
            <rect id="Rectangle-Copy-17" x="5" y="61" width="11" height="48" rx="4"></rect>
            <rect id="Rectangle-Copy-16" x="21" y="88" width="11" height="21" rx="4"></rect>
            <rect id="Rectangle-Copy-15" x="36" y="88" width="11" height="21" rx="4"></rect>
            <rect id="Rectangle-Copy-14" x="51" y="88" width="11" height="21" rx="4"></rect>
            <rect id="Rectangle-Copy-13" x="75" y="88" width="16" height="21" rx="4"></rect>
            <rect id="Rectangle-Copy-12" x="104" y="88" width="11" height="21" rx="4"></rect>
            <rect id="Rectangle-Copy-11" x="119" y="88" width="11" height="21" rx="4"></rect>
            <rect id="Rectangle-Copy-21" x="47" y="114" width="11" height="21" rx="4"></rect>
            <rect id="Rectangle-Copy-20" x="62" y="114" width="11" height="21" rx="4"></rect>
            <rect id="Rectangle-Copy-19" x="93" y="114" width="11" height="21" rx="4"></rect>
            <rect id="Rectangle-Copy-18" x="108" y="114" width="11" height="21" rx="4"></rect>
            <rect id="Rectangle-Copy-10" x="134" y="88" width="11" height="21" rx="4"></rect>
            <rect id="Rectangle-Copy-9" x="149" y="88" width="11" height="21" rx="4"></rect>
            <rect id="Rectangle-Copy-23" x="164" y="61" width="11" height="21" rx="4"></rect>
            <rect id="Rectangle-Copy-22" x="164" y="88" width="11" height="21" rx="4"></rect>
        </g>
    </g>
</svg>