<?xml version="1.0" encoding="UTF-8" standalone="no"?>
<svg width="24px" height="24px" viewBox="0 0 24 24" version="1.1" xmlns="http://www.w3.org/2000/svg" xmlns:xlink="http://www.w3.org/1999/xlink">
    <!-- Generator: Sketch 47.1 (45422) - http://www.bohemiancoding.com/sketch -->
    <title>favicon-24x24</title>
    <desc>Created with Sketch.</desc>
    <defs></defs>
    <g id="Favicons" stroke="none" stroke-width="1" fill="none" fill-rule="evenodd">
        <g id="favicon-24x24" fill="#7109AA">
            <rect id="Rectangle" x="2" y="7" width="1" height="3"></rect>
            <rect id="Rectangle-Copy" x="4" y="7" width="1" height="3"></rect>
            <rect id="Rectangle-Copy-2" x="6" y="7" width="1" height="3"></rect>
            <rect id="Rectangle-Copy-3" x="8" y="7" width="1" height="3"></rect>
            <rect id="Rectangle-Copy-4" x="10" y="7" width="2" height="3"></rect>
            <rect id="Rectangle-Copy-24" x="2" y="5" width="20" height="1"></rect>
            <rect id="Rectangle-Copy-5" x="13" y="7" width="1" height="3"></rect>
            <rect id="Rectangle-Copy-6" x="15" y="7" width="1" height="3"></rect>
            <rect id="Rectangle-Copy-7" x="17" y="7" width="1" height="3"></rect>
            <rect id="Rectangle-Copy-8" x="19" y="7" width="1" height="3"></rect>
            <rect id="Rectangle-Copy-17" x="2" y="10" width="1" height="4"></rect>
            <rect id="Rectangle-Copy-16" x="4" y="11" width="1" height="3"></rect>
            <rect id="Rectangle-Copy-15" x="6" y="11" width="1" height="3"></rect>
            <rect id="Rectangle-Copy-14" x="8" y="11" width="1" height="3"></rect>
            <rect id="Rectangle-Copy-13" x="10" y="11" width="2" height="3"></rect>
            <rect id="Rectangle-Copy-12" x="13" y="11" width="1" height="3"></rect>
            <rect id="Rectangle-Copy-11" x="15" y="11" width="1" height="3"></rect>
            <rect id="Rectangle-Copy-21" x="7" y="15" width="1" height="3"></rect>
            <rect id="Rectangle-Copy-20" x="9" y="15" width="1" height="3"></rect>
            <rect id="Rectangle-Copy-19" x="12" y="15" width="1" height="3"></rect>
            <rect id="Rectangle-Copy-18" x="14" y="15" width="1" height="3"></rect>
            <rect id="Rectangle-Copy-10" x="17" y="11" width="1" height="3"></rect>
            <rect id="Rectangle-Copy-9" x="19" y="11" width="1" height="3"></rect>
            <rect id="Rectangle-Copy-23" x="21" y="7" width="1" height="3"></rect>
            <rect id="Rectangle-Copy-22" x="21" y="11" width="1" height="3"></rect>
        </g>
    </g>
</svg>