<?xml version="1.0" encoding="UTF-8" standalone="no"?>
<svg width="260px" height="260px" viewBox="0 0 260 260" version="1.1" xmlns="http://www.w3.org/2000/svg" xmlns:xlink="http://www.w3.org/1999/xlink">
    <!-- Generator: Sketch 47.1 (45422) - http://www.bohemiancoding.com/sketch -->
    <title>favicon-260x260</title>
    <desc>Created with Sketch.</desc>
    <defs></defs>
    <g id="Favicons" stroke="none" stroke-width="1" fill="none" fill-rule="evenodd">
        <g id="favicon-260x260" fill="#7109AA">
            <rect id="Rectangle-Copy" x="31" y="90" width="16" height="29" rx="4"></rect>
            <rect id="Rectangle-Copy-2" x="52" y="90" width="16" height="29" rx="4"></rect>
            <rect id="Rectangle-Copy-3" x="74" y="90" width="16" height="29" rx="4"></rect>
            <rect id="Rectangle-Copy-4" x="107" y="90" width="27" height="29" rx="4"></rect>
            <rect id="Rectangle-Copy-24" x="8" y="67" width="244" height="16" rx="4"></rect>
            <rect id="Rectangle-Copy-5" x="152" y="90" width="16" height="29" rx="4"></rect>
            <rect id="Rectangle-Copy-6" x="173" y="90" width="16" height="29" rx="4"></rect>
            <rect id="Rectangle-Copy-7" x="194" y="90" width="16" height="29" rx="4"></rect>
            <rect id="Rectangle-Copy-8" x="215" y="90" width="16" height="29" rx="4"></rect>
            <rect id="Rectangle-Copy-17" x="8" y="90" width="16" height="67" rx="4"></rect>
            <rect id="Rectangle-Copy-16" x="31" y="127" width="16" height="29" rx="4"></rect>
            <rect id="Rectangle-Copy-15" x="52" y="127" width="16" height="29" rx="4"></rect>
            <rect id="Rectangle-Copy-14" x="74" y="127" width="16" height="29" rx="4"></rect>
            <rect id="Rectangle-Copy-13" x="107" y="127" width="27" height="29" rx="4"></rect>
            <rect id="Rectangle-Copy-12" x="152" y="127" width="16" height="29" rx="4"></rect>
            <rect id="Rectangle-Copy-11" x="173" y="127" width="16" height="29" rx="4"></rect>
            <rect id="Rectangle-Copy-21" x="70" y="164" width="16" height="29" rx="4"></rect>
            <rect id="Rectangle-Copy-20" x="91" y="164" width="16" height="29" rx="4"></rect>
            <rect id="Rectangle-Copy-19" x="134" y="164" width="16" height="29" rx="4"></rect>
            <rect id="Rectangle-Copy-18" x="157" y="164" width="16" height="29" rx="4"></rect>
            <rect id="Rectangle-Copy-10" x="194" y="127" width="16" height="29" rx="4"></rect>
            <rect id="Rectangle-Copy-9" x="215" y="127" width="16" height="29" rx="4"></rect>
            <rect id="Rectangle-Copy-23" x="236" y="90" width="16" height="29" rx="4"></rect>
            <rect id="Rectangle-Copy-22" x="236" y="127" width="16" height="29" rx="4"></rect>
        </g>
    </g>
</svg>