<?xml version="1.0" encoding="UTF-8" standalone="no"?>
<svg width="32px" height="32px" viewBox="0 0 32 32" version="1.1" xmlns="http://www.w3.org/2000/svg" xmlns:xlink="http://www.w3.org/1999/xlink">
    <!-- Generator: Sketch 47.1 (45422) - http://www.bohemiancoding.com/sketch -->
    <title>favicon-32x32</title>
    <desc>Created with Sketch.</desc>
    <defs></defs>
    <g id="Favicons" stroke="none" stroke-width="1" fill="none" fill-rule="evenodd">
        <g id="favicon-32x32" fill="#7109AA">
            <rect id="Rectangle-Copy" x="3" y="10" width="2" height="4"></rect>
            <rect id="Rectangle-Copy-2" x="6" y="10" width="2" height="4"></rect>
            <rect id="Rectangle-Copy-3" x="9" y="10" width="2" height="4"></rect>
            <rect id="Rectangle-Copy-4" x="13" y="10" width="3" height="4"></rect>
            <rect id="Rectangle-Copy-24" x="0" y="7" width="32" height="2"></rect>
            <rect id="Rectangle-Copy-5" x="18" y="10" width="2" height="4"></rect>
            <rect id="Rectangle-Copy-6" x="21" y="10" width="2" height="4"></rect>
            <rect id="Rectangle-Copy-7" x="24" y="10" width="2" height="4"></rect>
            <rect id="Rectangle-Copy-8" x="27" y="10" width="2" height="4"></rect>
            <rect id="Rectangle-Copy-17" x="0" y="10" width="2" height="9"></rect>
            <rect id="Rectangle-Copy-16" x="3" y="15" width="2" height="4"></rect>
            <rect id="Rectangle-Copy-15" x="6" y="15" width="2" height="4"></rect>
            <rect id="Rectangle-Copy-14" x="9" y="15" width="2" height="4"></rect>
            <rect id="Rectangle-Copy-13" x="13" y="15" width="3" height="4"></rect>
            <rect id="Rectangle-Copy-12" x="18" y="15" width="2" height="4"></rect>
            <rect id="Rectangle-Copy-11" x="21" y="15" width="2" height="4"></rect>
            <rect id="Rectangle-Copy-21" x="8" y="20" width="2" height="4"></rect>
            <rect id="Rectangle-Copy-20" x="11" y="20" width="2" height="4"></rect>
            <rect id="Rectangle-Copy-19" x="16" y="20" width="2" height="4"></rect>
            <rect id="Rectangle-Copy-18" x="19" y="20" width="2" height="4"></rect>
            <rect id="Rectangle-Copy-10" x="24" y="15" width="2" height="4"></rect>
            <rect id="Rectangle-Copy-9" x="27" y="15" width="2" height="4"></rect>
            <rect id="Rectangle-Copy-23" x="30" y="10" width="2" height="4"></rect>
            <rect id="Rectangle-Copy-22" x="30" y="15" width="2" height="4"></rect>
        </g>
    </g>
</svg>