<?xml version="1.0" encoding="UTF-8" standalone="no"?>
<svg width="16px" height="16px" viewBox="0 0 16 16" version="1.1" xmlns="http://www.w3.org/2000/svg" xmlns:xlink="http://www.w3.org/1999/xlink">
    <!-- Generator: Sketch 47.1 (45422) - http://www.bohemiancoding.com/sketch -->
    <title>favicon-16x16</title>
    <desc>Created with Sketch.</desc>
    <defs></defs>
    <g id="Favicons" stroke="none" stroke-width="1" fill="none" fill-rule="evenodd">
        <g id="favicon-16x16" fill="#7109AA">
            <rect id="Rectangle" x="1" y="5" width="1" height="2"></rect>
            <rect id="Rectangle-Copy" x="2" y="5" width="1" height="2"></rect>
            <rect id="Rectangle-Copy-2" x="3" y="5" width="1" height="2"></rect>
            <rect id="Rectangle-Copy-3" x="4" y="5" width="1" height="2"></rect>
            <rect id="Rectangle-Copy-4" x="6" y="5" width="2" height="2"></rect>
            <rect id="Rectangle-Copy-24" x="1" y="3" width="14" height="1"></rect>
            <rect id="Rectangle-Copy-5" x="9" y="5" width="1" height="2"></rect>
            <rect id="Rectangle-Copy-6" x="10" y="5" width="1" height="2"></rect>
            <rect id="Rectangle-Copy-7" x="11" y="5" width="1" height="2"></rect>
            <rect id="Rectangle-Copy-8" x="12" y="5" width="1" height="2"></rect>
            <rect id="Rectangle-Copy-17" x="1" y="7" width="1" height="3"></rect>
            <rect id="Rectangle-Copy-16" x="2" y="8" width="1" height="2"></rect>
            <rect id="Rectangle-Copy-15" x="3" y="8" width="1" height="2"></rect>
            <rect id="Rectangle-Copy-14" x="4" y="8" width="1" height="2"></rect>
            <rect id="Rectangle-Copy-13" x="6" y="7" width="2" height="3"></rect>
            <rect id="Rectangle-Copy-12" x="9" y="8" width="1" height="2"></rect>
            <rect id="Rectangle-Copy-11" x="10" y="8" width="1" height="2"></rect>
            <rect id="Rectangle-Copy-21" x="4" y="10" width="1" height="2"></rect>
            <rect id="Rectangle-Copy-20" x="5" y="10" width="1" height="2"></rect>
            <rect id="Rectangle-Copy-19" x="8" y="10" width="1" height="2"></rect>
            <rect id="Rectangle-Copy-18" x="9" y="10" width="1" height="2"></rect>
            <rect id="Rectangle-Copy-10" x="11" y="8" width="1" height="2"></rect>
            <rect id="Rectangle-Copy-9" x="12" y="8" width="1" height="2"></rect>
            <rect id="Rectangle-Copy-23" x="14" y="5" width="1" height="2"></rect>
            <rect id="Rectangle-Copy-22" x="14" y="8" width="1" height="2"></rect>
        </g>
    </g>
</svg>