<?xml version="1.0" encoding="UTF-8"?>
<svg width="24px" height="24px" viewBox="0 0 24 24" version="1.1" xmlns="http://www.w3.org/2000/svg" xmlns:xlink="http://www.w3.org/1999/xlink">
    <!-- Generator: Sketch 50.2 (55047) - http://www.bohemiancoding.com/sketch -->
    <title>Icons/Checkmark</title>
    <desc>Created with Sketch.</desc>
    <defs>
        <path d="M1.70710678,16.7071068 L7.14798845,22.1479885 C7.53851274,22.5385127 8.17167772,22.5385127 8.56220201,22.1479885 C8.60592024,22.1042702 8.64548983,22.0565918 8.68040249,22.0055656 L20.2513816,5.09413458 C20.5632479,4.63832997 20.4465629,4.01600972 19.9907583,3.70414341 C19.9140736,3.65167494 19.8304505,3.61015015 19.7423021,3.58076737 L18.7006734,3.23355781 C18.2841969,3.09473229 17.8258786,3.24376997 17.5707122,3.60100292 L8,17 L4.70710678,13.7071068 C4.31658249,13.3165825 3.68341751,13.3165825 3.29289322,13.7071068 L1.70710678,15.2928932 C1.31658249,15.6834175 1.31658249,16.3165825 1.70710678,16.7071068 Z" id="path-1"></path>
    </defs>
    <g id="Icons/Checkmark" stroke="none" stroke-width="1" fill="none" fill-rule="evenodd">
        <mask id="mask-2" fill="white">
            <use xlink:href="#path-1"></use>
        </mask>
        <path stroke="#979797" d="M2.06066017,16.3535534 L7.50154184,21.7944351 C7.69680399,21.9896972 8.01338648,21.9896972 8.20864862,21.7944351 C8.23050774,21.7725759 8.25029253,21.7487367 8.26774886,21.7232236 L19.838728,4.81179262 C19.9946611,4.58389032 19.9363186,4.27273019 19.7084163,4.11679704 C19.670074,4.0905628 19.6282624,4.06980041 19.5841882,4.05510902 L18.5425596,3.70789946 C18.3343213,3.6384867 18.1051621,3.71300554 17.9775789,3.89162201 L8.06380239,17.7709092 L4.35355339,14.0606602 C4.15829124,13.865398 3.84170876,13.865398 3.64644661,14.0606602 L2.06066017,15.6464466 C1.86539803,15.8417088 1.86539803,16.1582912 2.06066017,16.3535534 Z"></path>
        <g id="Colors/heavy-primary-tint-1" mask="url(#mask-2)" fill="#AD66D5">
            <rect id="heavy-primary-tint-1" x="0" y="0" width="24" height="24"></rect>
        </g>
    </g>
</svg>