<?xml version="1.0" encoding="UTF-8"?>
<svg width="24px" height="24px" viewBox="0 0 24 24" version="1.1" xmlns="http://www.w3.org/2000/svg" xmlns:xlink="http://www.w3.org/1999/xlink">
    <!-- Generator: Sketch 48.2 (47327) - http://www.bohemiancoding.com/sketch -->
    <title>Icons/Drills</title>
    <desc>Created with Sketch.</desc>
    <defs>
        <path d="M17,15.90625 L20.5,17 L17.5,19 L16.4387755,18.6734694 L12,24 L7.46355744,18.5562689 C7.16403244,18.1968389 7,17.7437731 7,17.2759001 L7,15.7692308 L5.9118283,15.4344087 C5.07264505,15.1761985 4.5,14.4008604 4.5,13.5228507 L4.5,12 L7,12.78125 L7,10.7692308 L5.9118283,10.4344087 C5.07264505,10.1761985 4.5,9.4008604 4.5,8.52285069 L4.5,7 L7,7.78125 L7,5.76923077 L5.9118283,5.43440871 C5.07264505,5.17619848 4.5,4.4008604 4.5,3.52285069 L4.5,2 L7,2.78125 L7,1 L17,1 L17,5.90625 L20.5,7 L17.5,9 L17,8.84615385 L17,10.90625 L20.5,12 L17.5,14 L17,13.8461538 L17,15.90625 Z M15,15.28125 L15,13.2307692 L9,11.3846154 L9,13.40625 L15,15.28125 Z M14.25,18 L9,16.3846154 L9,17 L12,21 L14.25,18 Z M15,10.28125 L15,8.23076923 L9,6.38461538 L9,8.40625 L15,10.28125 Z M15,5.28125 L15,3 L9,3 L9,3.40625 L15,5.28125 Z" id="drills-path-1"></path>
    </defs>
    <g id="Symbols" stroke="none" stroke-width="1" fill="none" fill-rule="evenodd">
        <g id="Icons/Drills">
            <mask id="mask-2" fill="white">
                <use xlink:href="#drills-path-1"></use>
            </mask>
            <use id="Combined-Shape" fill="#FFFFFF" xlink:href="#drills-path-1"></use>
            <g id="Colors/heavy-primary" mask="url(#mask-2)" fill="#7109AA">
                <rect id="heavy-primary" x="0" y="0" width="24" height="24"></rect>
            </g>
        </g>
    </g>
</svg>
