<?xml version="1.0" encoding="UTF-8"?>
<svg width="24px" height="24px" viewBox="0 0 24 24" version="1.1" xmlns="http://www.w3.org/2000/svg" xmlns:xlink="http://www.w3.org/1999/xlink">
    <!-- Generator: Sketch 48.2 (47327) - http://www.bohemiancoding.com/sketch -->
    <title>Icons/Fullscreen</title>
    <desc>Created with Sketch.</desc>
    <defs>
        <path d="M2,14 L4,14 L4,19 L9,19 L9,21 L2,21 L2,14 Z M9,3 L9,5 L4,5 L4,10 L2,10 L2,3 L9,3 Z M22,10 L20,10 L20,5 L15,5 L15,3 L22,3 L22,10 Z M15,21 L15,19 L20,19 L20,14 L22,14 L22,21 L15,21 Z" id="fullscreen-path-1"></path>
    </defs>
    <g id="Symbols" stroke="none" stroke-width="1" fill="none" fill-rule="evenodd">
        <g id="Icons/Fullscreen">
            <mask id="mask-2" fill="white">
                <use xlink:href="#fullscreen-path-1"></use>
            </mask>
            <use id="Combined-Shape" fill="#FFFFFF" xlink:href="#fullscreen-path-1"></use>
            <g id="Colors/heavy-primary-tint-1" mask="url(#mask-2)" fill="#AD66D5">
                <rect id="heavy-primary-tint-1" x="0" y="0" width="24" height="24"></rect>
            </g>
        </g>
    </g>
</svg>
