<?xml version="1.0" encoding="UTF-8"?>
<svg width="24px" height="24px" viewBox="0 0 24 24" version="1.1" xmlns="http://www.w3.org/2000/svg" xmlns:xlink="http://www.w3.org/1999/xlink">
    <!-- Generator: Sketch 48.2 (47327) - http://www.bohemiancoding.com/sketch -->
    <title>Icons/Restart</title>
    <desc>Created with Sketch.</desc>
    <defs>
        <path d="M4.01658979,12.5 L6.02041205,12.5 C6.00689322,12.6643278 6,12.8305326 6,12.9983471 C6,16.3111427 8.6862915,18.9966941 12,18.9966941 C15.3137085,18.9966941 18,16.3111427 18,12.9983471 C18,9.68633182 15.3149739,7.00126526 12.0023416,7.00000045 L12.0023416,4.99896084 C16.4211533,4.99900502 20.0032943,8.58113874 20.0032943,12.9999183 C20.0032943,17.418725 16.4211092,21.0008757 12.0022599,21.0008757 C7.58341064,21.0008757 4.00122554,17.418725 4.00122554,12.9999183 C4.00122554,12.8320207 4.00639716,12.6653311 4.01658979,12.5 Z M7.0002749,6 L12.0002749,1 L12.0002749,11 L7.0002749,6 Z" id="path-1"></path>
    </defs>
    <g id="Symbols" stroke="none" stroke-width="1" fill="none" fill-rule="evenodd">
        <g id="Icons/Restart">
            <mask id="mask-2" fill="white">
                <use xlink:href="#path-1"></use>
            </mask>
            <g id="Combined-Shape"></g>
            <g id="Colors/heavy-primary" mask="url(#mask-2)" fill="#7109AA">
                <rect id="heavy-primary" x="0" y="0" width="24" height="24"></rect>
            </g>
        </g>
    </g>
</svg>