<?xml version="1.0" encoding="UTF-8"?>
<svg width="24px" height="24px" viewBox="0 0 24 24" version="1.1" xmlns="http://www.w3.org/2000/svg" xmlns:xlink="http://www.w3.org/1999/xlink">
    <!-- Generator: Sketch 48.2 (47327) - http://www.bohemiancoding.com/sketch -->
    <title>Icons/Search</title>
    <desc>Created with Sketch.</desc>
    <defs>
        <path d="M16.7567621,13.9283349 L22.4350288,19.6066017 C23.2160774,20.3876503 23.2160774,21.6539803 22.4350288,22.4350288 C21.6539803,23.2160774 20.3876503,23.2160774 19.6066017,22.4350288 L13.9283349,16.7567621 C12.6386564,17.5454533 11.1224107,18 9.5,18 C4.80557963,18 1,14.1944204 1,9.5 C1,4.80557963 4.80557963,1 9.5,1 C14.1944204,1 18,4.80557963 18,9.5 C18,11.1224107 17.5454533,12.6386564 16.7567621,13.9283349 Z M9.5,15 C12.5375661,15 15,12.5375661 15,9.5 C15,6.46243388 12.5375661,4 9.5,4 C6.46243388,4 4,6.46243388 4,9.5 C4,12.5375661 6.46243388,15 9.5,15 Z" id="search-path-1"></path>
    </defs>
    <g id="Symbols" stroke="none" stroke-width="1" fill="none" fill-rule="evenodd">
        <g id="Icons/Search">
            <mask id="mask-2" fill="white">
                <use xlink:href="#search-path-1"></use>
            </mask>
            <use id="Combined-Shape" fill="#FFFFFF" xlink:href="#search-path-1"></use>
            <g id="Colors/heavy-primary-tint-1" mask="url(#mask-2)" fill="#AD66D5">
                <rect id="heavy-primary-tint-1" x="0" y="0" width="24" height="24"></rect>
            </g>
        </g>
    </g>
</svg>
