<?xml version="1.0" standalone="no"?>
<!DOCTYPE svg PUBLIC "-//W3C//DTD SVG 20010904//EN"
 "http://www.w3.org/TR/2001/REC-SVG-20010904/DTD/svg10.dtd">
<svg version="1.0" xmlns="http://www.w3.org/2000/svg"
 width="700.000000pt" height="700.000000pt" viewBox="0 0 700.000000 700.000000"
 preserveAspectRatio="xMidYMid meet">
<metadata>
Created by potrace 1.11, written by Peter Selinger 2001-2013
</metadata>
<g transform="translate(0.000000,700.000000) scale(0.100000,-0.100000)"
fill="#000000" stroke="none">
<path d="M315 5187 c-16 -5 -39 -21 -50 -35 -18 -24 -20 -43 -20 -175 l0 -149
33 -29 c18 -16 42 -29 55 -30 135 -6 6329 -3 6348 4 15 4 37 19 50 33 23 24
24 32 24 168 0 151 -7 179 -48 206 -19 13 -453 15 -3192 15 -1791 1 -3183 -3
-3200 -8z"/>
<path d="M323 4573 c-33 -6 -71 -50 -77 -91 -11 -76 -4 -1576 8 -1612 18 -57
58 -70 206 -70 135 0 160 7 193 52 20 26 20 43 20 835 0 610 -3 814 -12 831
-25 47 -55 56 -190 57 -69 1 -136 0 -148 -2z"/>
<path d="M943 4572 c-33 -5 -71 -49 -77 -90 -4 -20 -5 -168 -4 -329 l3 -291
24 -26 c34 -36 64 -42 203 -40 206 3 200 -10 200 395 0 299 -1 309 -22 339
-13 18 -35 33 -58 39 -34 9 -219 11 -269 3z"/>
<path d="M1503 4569 c-17 -5 -42 -23 -54 -40 -22 -31 -22 -37 -22 -344 0 -275
2 -314 17 -337 27 -42 67 -52 207 -52 212 0 207 -8 207 399 -1 391 7 377 -198
381 -69 1 -139 -2 -157 -7z"/>
<path d="M2115 4573 c-38 -8 -67 -27 -81 -55 -12 -23 -14 -87 -14 -340 1 -294
2 -314 21 -337 30 -36 74 -46 205 -45 136 1 175 15 194 67 14 41 13 604 -1
645 -19 55 -49 66 -184 68 -66 0 -129 -1 -140 -3z"/>
<path d="M2980 4566 c-20 -7 -41 -24 -52 -42 -17 -29 -19 -60 -19 -337 -1
-338 2 -352 62 -378 46 -18 516 -19 551 0 56 29 58 42 58 376 0 294 -1 309
-21 341 -14 23 -32 36 -57 43 -52 13 -481 11 -522 -3z"/>
<path d="M4110 4566 c-21 -7 -41 -23 -53 -43 -17 -30 -19 -57 -19 -338 1 -401
-5 -390 211 -389 81 0 138 4 158 13 59 24 63 45 63 374 0 184 -4 306 -11 325
-19 56 -49 66 -189 68 -72 1 -140 -3 -160 -10z"/>
<path d="M4685 4572 c-29 -6 -56 -32 -70 -67 -17 -43 -15 -621 3 -653 27 -48
54 -55 198 -56 225 0 218 -13 218 383 1 327 -1 346 -50 378 -23 15 -50 18
-154 19 -69 0 -134 -1 -145 -4z"/>
<path d="M5232 4564 c-60 -25 -63 -40 -62 -386 1 -281 3 -315 18 -336 28 -36
77 -47 209 -46 136 1 174 15 193 68 15 42 13 619 -2 652 -23 49 -52 59 -194
60 -88 1 -142 -3 -162 -12z"/>
<path d="M5798 4563 c-61 -24 -63 -39 -63 -385 0 -295 1 -308 21 -335 30 -40
69 -49 208 -48 110 2 127 4 155 24 19 14 34 36 40 59 14 58 8 612 -7 640 -27
47 -57 56 -191 58 -92 2 -136 -2 -163 -13z"/>
<path d="M6361 4563 c-59 -29 -61 -41 -61 -373 0 -336 3 -357 63 -381 41 -17
263 -17 305 0 58 24 62 46 62 380 0 320 -2 337 -49 368 -37 24 -273 28 -320 6z"/>
<path d="M930 3571 c-14 -4 -34 -21 -46 -39 -21 -31 -22 -42 -23 -332 -1 -342
2 -360 65 -386 29 -12 67 -15 170 -12 130 3 133 4 162 31 l30 29 2 151 c5 463
4 487 -17 515 -34 45 -58 52 -193 51 -69 -1 -136 -4 -150 -8z"/>
<path d="M1490 3569 c-14 -5 -34 -23 -44 -40 -17 -29 -19 -59 -19 -341 0 -294
1 -310 20 -336 34 -46 57 -52 198 -51 147 1 179 11 200 62 16 39 19 593 3 644
-18 61 -46 71 -198 71 -74 1 -146 -3 -160 -9z"/>
<path d="M2085 3571 c-11 -5 -29 -19 -40 -31 -19 -21 -20 -38 -22 -346 l-3
-324 35 -34 34 -35 144 0 c144 0 144 0 178 28 l34 29 3 318 c2 306 2 320 -18
352 -11 18 -32 37 -46 42 -30 12 -271 12 -299 1z"/>
<path d="M2971 3568 c-13 -7 -32 -24 -43 -38 -17 -23 -18 -49 -19 -339 -1
-296 0 -315 18 -340 37 -48 51 -51 318 -51 232 0 252 1 283 20 18 11 37 32 43
47 6 16 9 145 7 339 l-3 314 -28 27 -27 28 -263 3 c-196 2 -268 -1 -286 -10z"/>
<path d="M4101 3567 c-13 -6 -33 -24 -43 -38 -19 -24 -20 -45 -20 -330 0 -173
5 -315 10 -329 22 -57 43 -65 186 -68 103 -3 140 0 169 12 64 26 67 44 66 378
-1 161 -4 304 -8 318 -4 14 -22 35 -40 47 -31 21 -45 23 -165 23 -84 0 -140
-5 -155 -13z"/>
<path d="M4665 3566 c-58 -25 -60 -38 -60 -380 0 -401 -8 -386 217 -386 140 0
179 13 200 65 18 46 18 623 -1 658 -25 46 -56 55 -196 56 -88 0 -140 -4 -160
-13z"/>
<path d="M5235 3571 c-11 -5 -29 -19 -40 -31 -19 -21 -20 -38 -23 -333 -3
-334 -1 -352 47 -386 22 -16 47 -19 157 -20 71 -1 142 3 157 8 15 6 36 25 47
43 19 31 20 49 20 344 l-1 311 -28 34 -29 34 -143 2 c-79 1 -153 -1 -164 -6z"/>
<path d="M5790 3565 c-53 -28 -55 -43 -55 -375 0 -338 1 -346 60 -375 39 -18
254 -21 303 -4 65 23 67 30 67 375 0 337 -1 346 -55 377 -37 22 -281 24 -320
2z"/>
<path d="M6365 3571 c-11 -5 -29 -19 -40 -31 -19 -21 -20 -38 -23 -325 -2
-167 1 -318 6 -337 5 -21 21 -41 42 -56 32 -21 44 -23 171 -21 134 1 138 1
171 29 l33 28 0 331 0 331 -28 27 c-27 28 -29 28 -170 30 -78 1 -151 -1 -162
-6z"/>
<path d="M1959 2576 c-18 -6 -41 -23 -53 -39 -19 -26 -20 -41 -21 -328 0 -180
4 -313 10 -331 5 -17 23 -41 38 -52 26 -19 42 -21 166 -21 152 0 181 10 205
65 17 40 15 626 -2 658 -26 46 -55 55 -188 57 -68 1 -138 -4 -155 -9z"/>
<path d="M2540 2582 c-87 -23 -90 -37 -90 -387 0 -401 -6 -390 215 -390 146 0
176 9 201 57 18 36 21 604 3 656 -18 52 -55 65 -194 67 -67 1 -127 0 -135 -3z"/>
<path d="M3705 2583 c-37 -7 -67 -27 -81 -56 -12 -23 -15 -86 -15 -337 0 -404
-12 -385 223 -384 214 0 207 -14 205 400 -2 296 -3 313 -22 334 -11 12 -29 27
-40 33 -19 10 -226 17 -270 10z"/>
<path d="M4315 2582 c-36 -8 -73 -42 -81 -75 -4 -17 -7 -165 -7 -329 0 -288 1
-297 22 -327 29 -40 63 -48 211 -46 143 1 172 13 189 75 6 19 9 171 8 338 l-2
304 -33 29 c-18 16 -40 30 -50 30 -51 4 -240 4 -257 1z"/>
</g>
</svg>
