<?xml version="1.0" standalone="no"?>
<!DOCTYPE svg PUBLIC "-//W3C//DTD SVG 20010904//EN"
 "http://www.w3.org/TR/2001/REC-SVG-20010904/DTD/svg10.dtd">
<svg version="1.0" xmlns="http://www.w3.org/2000/svg"
 width="700.000000pt" height="700.000000pt" viewBox="0 0 700.000000 700.000000"
 preserveAspectRatio="xMidYMid meet">
<metadata>
Created by potrace 1.11, written by Peter Selinger 2001-2013
</metadata>
<g transform="translate(0.000000,700.000000) scale(0.100000,-0.100000)"
fill="#000000" stroke="none">
<path d="M165 5190 c-6 -10 -3 -420 4 -421 15 -3 6677 -5 6686 -2 7 2 10 81
10 216 l0 212 -3348 0 c-1842 1 -3350 -2 -3352 -5z"/>
<path d="M162 3675 l0 -901 209 -1 c115 0 212 4 215 9 4 7 7 1219 4 1724 l0
71 -214 0 -214 -1 0 -901z"/>
<path d="M810 4546 c-3 -195 -1 -736 3 -743 4 -6 382 -10 419 -4 3 1 6 175 5
389 l-2 387 -212 1 -213 1 0 -31z"/>
<path d="M1373 4189 c0 -214 3 -389 6 -390 30 -5 400 -3 411 2 13 6 15 59 15
391 l-1 383 -215 1 -216 1 0 -388z"/>
<path d="M2022 4186 l3 -390 213 -1 212 0 0 391 0 391 -215 0 -215 0 2 -391z"/>
<path d="M2802 4186 l3 -390 385 0 385 0 3 391 2 390 -390 0 -390 0 2 -391z"/>
<path d="M4014 4566 c-2 -6 -3 -182 -2 -391 l3 -380 214 0 214 0 -1 385 c0
212 -1 388 -1 391 -2 12 -423 7 -427 -5z"/>
<path d="M4663 4567 c-8 -13 -8 -751 0 -763 4 -7 373 -11 420 -5 4 1 7 176 7
390 l-1 388 -210 0 c-130 0 -212 -4 -216 -10z"/>
<path d="M5199 4576 c-1 -1 -2 -174 -3 -384 0 -246 3 -386 9 -391 6 -4 102 -6
215 -6 l205 1 0 389 0 390 -212 1 c-117 0 -213 0 -214 0z"/>
<path d="M5843 4188 c0 -213 2 -389 6 -389 32 -7 414 -2 418 5 5 7 8 579 4
737 l-1 37 -214 -1 -213 -1 0 -388z"/>
<path d="M6443 4571 c-7 -5 -11 -718 -4 -766 0 -6 77 -9 208 -9 115 1 210 2
213 3 3 1 5 175 5 389 l0 387 -207 1 c-113 1 -210 -1 -215 -5z"/>
<path d="M810 3553 c-1 -31 -1 -708 0 -735 0 -17 17 -18 215 -18 l214 0 0 390
-1 390 -214 0 -214 0 0 -27z"/>
<path d="M1374 3193 l1 -388 209 -3 c121 -1 212 2 215 7 3 5 6 179 6 388 l-1
378 -215 3 -216 2 1 -387z"/>
<path d="M2020 3190 l0 -390 215 0 215 0 0 390 0 390 -215 0 -215 0 0 -390z"/>
<path d="M2800 3190 l0 -390 390 0 390 0 0 390 0 390 -390 0 -390 0 0 -390z"/>
<path d="M4010 3190 l0 -390 215 0 c198 0 215 1 216 18 1 21 1 709 0 740 l-1
22 -215 0 -215 0 0 -390z"/>
<path d="M4659 3563 c0 -10 -1 -186 -2 -390 l-2 -373 218 0 217 0 0 390 0 390
-215 0 c-198 0 -215 -1 -216 -17z"/>
<path d="M5195 3193 l1 -388 216 -3 215 -2 0 390 0 390 -216 0 -216 0 0 -387z"/>
<path d="M5844 3193 l1 -388 213 -3 212 -2 1 32 c0 18 1 193 1 388 l1 355
-215 3 -215 2 1 -387z"/>
<path d="M6435 3190 l0 -390 215 2 215 3 0 388 0 387 -215 0 -216 0 1 -390z"/>
<path d="M1834 2581 c-2 -2 -4 -178 -4 -391 l0 -386 215 0 c165 1 215 4 215
13 0 7 0 137 0 288 0 151 0 321 0 378 l0 102 -211 0 c-116 0 -212 -2 -215 -4z"/>
<path d="M2402 2580 c-6 -4 -9 -745 -3 -770 0 -3 97 -5 214 -5 l212 0 1 388
c1 213 -1 387 -5 388 -24 4 -413 4 -419 -1z"/>
<path d="M3613 2577 c-3 -6 -5 -370 -3 -715 l0 -58 214 0 215 1 -2 390 -2 390
-208 0 c-115 0 -211 -3 -214 -8z"/>
<path d="M4229 2575 c0 -5 -1 -180 -2 -387 -2 -328 0 -377 13 -381 8 -2 105
-3 215 -3 l200 1 0 390 0 390 -212 0 c-138 0 -213 -3 -214 -10z"/>
</g>
</svg>
