<?xml version="1.0" encoding="UTF-8"?>
<svg width="216px" height="120px" viewBox="0 0 216 120" version="1.1" xmlns="http://www.w3.org/2000/svg" xmlns:xlink="http://www.w3.org/1999/xlink">
    <!-- Generator: Sketch 50.2 (55047) - http://www.bohemiancoding.com/sketch -->
    <title>Stenoboard</title>
    <desc>Created with Sketch.</desc>
    <defs></defs>
    <g id="Stenoboard" stroke="none" stroke-width="1" fill="none" fill-rule="evenodd">
        <rect id="rightZ" stroke="#321E3E" fill="#7109AA" x="194.5" y="58.5" width="15" height="23" rx="4"></rect>
        <rect id="rightD" stroke="#321E3E" fill="#7109AA" x="194.5" y="30.5" width="15" height="23" rx="4"></rect>
        <rect id="rightS" stroke="#321E3E" fill="#7109AA" x="174.5" y="58.5" width="15" height="23" rx="4"></rect>
        <rect id="rightT" stroke="#321E3E" fill="#7109AA" x="174.5" y="30.5" width="15" height="23" rx="4"></rect>
        <rect id="rightG" stroke="#321E3E" fill="#7109AA" x="154.5" y="58.5" width="15" height="23" rx="4"></rect>
        <rect id="rightL" stroke="#321E3E" fill="#7109AA" x="154.5" y="30.5" width="15" height="23" rx="4"></rect>
        <rect id="rightB" stroke="#321E3E" fill="#7109AA" x="134.5" y="58.5" width="15" height="23" rx="4"></rect>
        <rect id="rightP" stroke="#321E3E" fill="#7109AA" x="134.5" y="30.5" width="15" height="23" rx="4"></rect>
        <rect id="rightR" stroke="#321E3E" fill="#7109AA" x="114.5" y="58.5" width="15" height="23" rx="4"></rect>
        <rect id="rightF" stroke="#321E3E" fill="#7109AA" x="114.5" y="30.5" width="15" height="23" rx="4"></rect>
        <rect id="rightU" stroke="#321E3E" fill="#7109AA" x="124.5" y="86.5" width="15" height="23" rx="4"></rect>
        <rect id="rightE" stroke="#321E3E" fill="#7109AA" x="104.5" y="86.5" width="15" height="23" rx="4"></rect>
        <rect id="star" stroke="#321E3E" fill="#7109AA" x="88.5" y="30.5" width="19" height="51" rx="4"></rect>
        <rect id="leftO" stroke="#321E3E" fill="#7109AA" x="76.5" y="86.5" width="15" height="23" rx="4"></rect>
        <rect id="leftA" stroke="#321E3E" fill="#7109AA" x="56.5" y="86.5" width="15" height="23" rx="4"></rect>
        <rect id="leftR" stroke="#321E3E" fill="#7109AA" x="66.5" y="58.5" width="15" height="23" rx="4"></rect>
        <rect id="leftH" stroke="#321E3E" fill="#7109AA" x="66.5" y="30.5" width="15" height="23" rx="4"></rect>
        <rect id="leftW" stroke="#321E3E" fill="#7109AA" x="46.5" y="58.5" width="15" height="23" rx="4"></rect>
        <rect id="leftP" stroke="#321E3E" fill="#7109AA" x="46.5" y="30.5" width="15" height="23" rx="4"></rect>
        <rect id="leftK" stroke="#321E3E" fill="#7109AA" x="26.5" y="58.5" width="15" height="23" rx="4"></rect>
        <rect id="leftT" stroke="#321E3E" fill="#7109AA" x="26.5" y="30.5" width="15" height="23" rx="4"></rect>
        <rect id="leftSLower" stroke="#321E3E" fill="#7109AA" x="6.5" y="58.5" width="15" height="23" rx="4"></rect>
        <rect id="leftSUpper" stroke="#321E3E" fill="#7109AA" x="6.5" y="30.5" width="15" height="23" rx="4"></rect>
        <rect id="numberBar" stroke="#321E3E" fill="#7109AA" x="6.5" y="10.5" width="203" height="15" rx="4"></rect>
        <polygon id="Z" fill="#CAC7CC" points="205.632 63.8 205.632 64.824 200.16 73.688 205.584 73.688 205.584 75 198.4 75 198.4 73.992 203.872 65.096 198.752 65.096 198.752 63.8"></polygon>
        <path d="M198.592,47 L198.592,35.8 L201.232,35.8 C204.624,35.8 205.824,38.632 205.824,41.4 C205.824,43.976 204.768,47 201.168,47 L198.592,47 Z M199.984,45.736 L201.216,45.736 C203.664,45.736 204.384,43.448 204.384,41.4 C204.384,39.224 203.552,37.064 201.392,37.064 L199.984,37.064 L199.984,45.736 Z" id="D" fill="#CAC7CC"></path>
        <path d="M182.08,75.192 C180.336,75.192 178.976,74.104 178.512,72.712 L179.792,72.248 C180.208,73.24 181.072,73.928 182.144,73.928 C183.296,73.928 184.048,73.272 184.048,72.056 C184.048,70.84 182.976,70.136 181.792,69.624 C180.4,69.016 178.848,68.2 178.848,66.328 C178.848,64.84 180.016,63.608 181.952,63.608 C183.504,63.608 184.624,64.456 184.944,65.592 L183.68,66.008 C183.424,65.4 182.816,64.872 181.904,64.872 C180.896,64.872 180.256,65.432 180.256,66.328 C180.256,67.384 181.328,67.88 182.48,68.392 C183.824,69 185.456,69.944 185.456,72.008 C185.456,74.04 184,75.192 182.08,75.192 Z" id="SRight" fill="#CAC7CC"></path>
        <polygon id="TRight" fill="#CAC7CC" points="181.312 47 181.312 37.128 178.096 37.128 178.096 35.8 185.904 35.8 185.904 37.128 182.688 37.128 182.688 47"></polygon>
        <path d="M162.256,75.192 C159.408,75.192 158.224,72.328 158.224,69.4 C158.224,66.424 159.488,63.608 162.256,63.608 C164.032,63.608 164.832,64.568 165.36,65.56 L164.144,66.264 C163.744,65.544 163.232,64.888 162.256,64.888 C160.336,64.888 159.664,67.32 159.664,69.4 C159.664,71.72 160.432,73.912 162.256,73.912 C163.536,73.912 164.288,72.888 164.288,71.368 L164.288,70.84 L162.272,70.84 L162.272,69.576 L165.728,69.576 L165.728,70.92 C165.728,73.704 164.208,75.192 162.256,75.192 Z" id="G" fill="#CAC7CC"></path>
        <polygon id="L" fill="#CAC7CC" points="158.608 47 158.608 35.8 159.984 35.8 159.984 45.672 165.312 45.672 165.312 47"></polygon>
        <path d="M138.608,75 L138.608,63.8 L141.824,63.8 C144.48,63.8 145.296,65.272 145.296,66.744 C145.296,67.832 144.672,68.68 143.632,69.096 C144.864,69.432 145.696,70.424 145.696,71.816 C145.696,73.352 144.832,75 142.064,75 L138.608,75 Z M139.984,68.568 L141.552,68.568 C143.168,68.568 143.968,67.864 143.968,66.776 C143.968,65.944 143.6,65.064 141.904,65.064 L139.984,65.064 L139.984,68.568 Z M139.984,73.736 L142.24,73.736 C143.904,73.736 144.368,72.808 144.368,71.88 C144.368,70.824 143.84,69.8 141.728,69.8 L139.984,69.8 L139.984,73.736 Z" id="B" fill="#CAC7CC"></path>
        <path d="M138.608,47 L138.608,35.8 L142.064,35.8 C144.784,35.8 145.68,37.496 145.68,39.16 C145.68,40.696 144.688,42.504 142.064,42.504 L139.984,42.504 L139.984,47 L138.608,47 Z M139.984,41.224 L142.16,41.224 C143.76,41.224 144.32,40.136 144.32,39.16 C144.32,38.264 143.856,37.064 142.16,37.064 L139.984,37.064 L139.984,41.224 Z" id="PRight" fill="#CAC7CC"></path>
        <path d="M125.568,66.984 C125.568,68.28 124.912,69.688 123.12,70.088 L125.52,75 L124,75 L121.664,70.2 L119.984,70.2 L119.984,75 L118.608,75 L118.608,63.8 L122.048,63.8 C124.752,63.8 125.568,65.384 125.568,66.984 Z M119.984,65.064 L119.984,68.936 L122.08,68.936 C123.712,68.936 124.208,67.96 124.208,67.016 C124.208,66.184 123.76,65.064 122.08,65.064 L119.984,65.064 Z" id="RRight" fill="#CAC7CC"></path>
        <polygon id="F" fill="#CAC7CC" points="118.608 47 118.608 35.8 125.632 35.8 125.632 37.112 119.984 37.112 119.984 40.552 123.936 40.552 123.936 41.864 119.984 41.864 119.984 47"></polygon>
        <path d="M132,103.192 C129.856,103.192 128.4,101.976 128.4,98.76 L128.4,91.8 L129.776,91.8 L129.776,98.76 C129.776,101.256 130.8,101.912 132,101.912 C133.2,101.912 134.224,101.256 134.224,98.76 L134.224,91.8 L135.616,91.8 L135.616,98.76 C135.616,101.96 134.144,103.192 132,103.192 Z" id="U" fill="#CAC7CC"></path>
        <polygon id="E" fill="#CAC7CC" points="108.608 103 108.608 91.8 115.168 91.8 115.168 93.112 109.984 93.112 109.984 96.552 113.52 96.552 113.52 97.864 109.984 97.864 109.984 101.688 115.504 101.688 115.504 103"></polygon>
        <path d="M84,103.192 C81.2,103.192 80.192,100.248 80.192,97.4 C80.192,94.552 81.2,91.608 84,91.608 C86.8,91.608 87.824,94.552 87.824,97.4 C87.824,100.248 86.8,103.192 84,103.192 Z M84,101.912 C85.728,101.912 86.384,99.544 86.384,97.4 C86.384,95.064 85.744,92.888 84,92.888 C82.256,92.888 81.616,95.24 81.616,97.4 C81.616,99.72 82.256,101.912 84,101.912 Z" id="O" fill="#CAC7CC"></path>
        <path d="M66.848,103 L65.984,100.248 L62.032,100.248 L61.184,103 L59.712,103 L63.408,91.8 L64.576,91.8 L68.288,103 L66.848,103 Z M62.416,99.016 L65.584,99.016 L64.288,94.92 C64.208,94.664 64.048,94.104 63.984,93.832 C63.936,94.104 63.776,94.664 63.696,94.92 L62.416,99.016 Z" id="A" fill="#CAC7CC"></path>
        <polygon id="*" fill="#CAC7CC" points="96.592 58.096 95.504 57.408 96.48 55.808 97.36 54.912 96.112 55.168 94.32 55.168 94.32 53.872 96.112 53.872 97.36 54.144 96.48 53.232 95.504 51.632 96.608 50.944 97.632 52.608 98 53.808 98.368 52.608 99.392 50.944 100.496 51.632 99.52 53.232 98.64 54.144 99.888 53.872 101.696 53.872 101.696 55.168 99.888 55.168 98.64 54.912 99.52 55.808 100.496 57.408 99.392 58.096 98.368 56.432 98 55.248 97.632 56.432"></polygon>
        <path d="M77.568,66.984 C77.568,68.28 76.912,69.688 75.12,70.088 L77.52,75 L76,75 L73.664,70.2 L71.984,70.2 L71.984,75 L70.608,75 L70.608,63.8 L74.048,63.8 C76.752,63.8 77.568,65.384 77.568,66.984 Z M71.984,65.064 L71.984,68.936 L74.08,68.936 C75.712,68.936 76.208,67.96 76.208,67.016 C76.208,66.184 75.76,65.064 74.08,65.064 L71.984,65.064 Z" id="RLeft" fill="#CAC7CC"></path>
        <polygon id="H" fill="#CAC7CC" points="70.608 47 70.608 35.8 71.984 35.8 71.984 40.536 76.016 40.536 76.016 35.8 77.392 35.8 77.392 47 76.016 47 76.016 41.848 71.984 41.848 71.984 47"></polygon>
        <path d="M51.456,75 L49.696,63.8 L51.008,63.8 L52.048,71.192 C52.08,71.416 52.096,71.64 52.128,71.912 C52.16,71.656 52.208,71.4 52.256,71.192 L53.536,63.8 L54.496,63.8 L55.776,71.112 C55.824,71.336 55.856,71.544 55.888,71.768 C55.904,71.528 55.936,71.304 55.968,71.128 L56.976,63.8 L58.304,63.8 L56.544,75 L55.424,75 L54.112,67.656 C54.08,67.416 54.032,67.16 54,66.904 C53.968,67.16 53.936,67.416 53.888,67.624 L52.576,75 L51.456,75 Z" id="W" fill="#CAC7CC"></path>
        <path d="M50.608,47 L50.608,35.8 L54.064,35.8 C56.784,35.8 57.68,37.496 57.68,39.16 C57.68,40.696 56.688,42.504 54.064,42.504 L51.984,42.504 L51.984,47 L50.608,47 Z M51.984,41.224 L54.16,41.224 C55.76,41.224 56.32,40.136 56.32,39.16 C56.32,38.264 55.856,37.064 54.16,37.064 L51.984,37.064 L51.984,41.224 Z" id="PLeft" fill="#CAC7CC"></path>
        <polygon id="K" fill="#CAC7CC" points="36.48 75 33.264 68.904 31.984 70.52 31.984 75 30.608 75 30.608 63.8 31.984 63.8 31.984 68.616 35.728 63.8 37.312 63.8 34.208 67.72 38.064 75"></polygon>
        <polygon id="TLeft" fill="#CAC7CC" points="33.312 47 33.312 37.128 30.096 37.128 30.096 35.8 37.904 35.8 37.904 37.128 34.688 37.128 34.688 47"></polygon>
        <path d="M14.08,75.192 C12.336,75.192 10.976,74.104 10.512,72.712 L11.792,72.248 C12.208,73.24 13.072,73.928 14.144,73.928 C15.296,73.928 16.048,73.272 16.048,72.056 C16.048,70.84 14.976,70.136 13.792,69.624 C12.4,69.016 10.848,68.2 10.848,66.328 C10.848,64.84 12.016,63.608 13.952,63.608 C15.504,63.608 16.624,64.456 16.944,65.592 L15.68,66.008 C15.424,65.4 14.816,64.872 13.904,64.872 C12.896,64.872 12.256,65.432 12.256,66.328 C12.256,67.384 13.328,67.88 14.48,68.392 C15.824,69 17.456,69.944 17.456,72.008 C17.456,74.04 16,75.192 14.08,75.192 Z" id="SLower" fill="#CAC7CC"></path>
        <path d="M14.08,47.192 C12.336,47.192 10.976,46.104 10.512,44.712 L11.792,44.248 C12.208,45.24 13.072,45.928 14.144,45.928 C15.296,45.928 16.048,45.272 16.048,44.056 C16.048,42.84 14.976,42.136 13.792,41.624 C12.4,41.016 10.848,40.2 10.848,38.328 C10.848,36.84 12.016,35.608 13.952,35.608 C15.504,35.608 16.624,36.456 16.944,37.592 L15.68,38.008 C15.424,37.4 14.816,36.872 13.904,36.872 C12.896,36.872 12.256,37.432 12.256,38.328 C12.256,39.384 13.328,39.88 14.48,40.392 C15.824,41 17.456,41.944 17.456,44.008 C17.456,46.04 16,47.192 14.08,47.192 Z" id="SUpper" fill="#CAC7CC"></path>
        <path d="M96.344,22 L96.728,19.4784 L95.2176,19.4784 L95.384,18.5183999 L96.8688,18.5183999 L97.2016,16.3551999 L95.7552,16.3551999 L95.9088,15.4079999 L97.3424,15.4079999 L97.7008,13.0399999 L98.7248001,13.0399999 L98.3664001,15.4079999 L100.12,15.4079999 L100.4912,13.0399999 L101.5024,13.0399999 L101.1312,15.4079999 L102.6672,15.4079999 L102.5136,16.3551999 L100.9904,16.3551999 L100.6576,18.5183999 L102.1168,18.5183999 L101.976,19.4784 L100.5168,19.4784 L100.1328,22 L99.1216001,22 L99.5056001,19.4784 L97.752,19.4784 L97.368,22 L96.344,22 Z M97.8928,18.5183999 L99.6464001,18.5183999 L99.9792001,16.3551999 L98.2256,16.3551999 L97.8928,18.5183999 Z" id="#" fill="#CAC7CC"></path>
    </g>
</svg>