<?xml version="1.0" encoding="UTF-8"?>
<svg width="204px" height="100px" viewBox="0 0 204 100" version="1.1" xmlns="http://www.w3.org/2000/svg" xmlns:xlink="http://www.w3.org/1999/xlink">
    <!-- Generator: Sketch 50.2 (55047) - http://www.bohemiancoding.com/sketch -->
    <title>Stenoboard</title>
    <desc>Created with Sketch.</desc>
    <defs></defs>
    <g id="Stenoboard" stroke="none" stroke-width="1" fill="none" fill-rule="evenodd">
        <rect id="rightZ" stroke="#321E3E" fill="#7109AA" x="188.5" y="48.5" width="15" height="23" rx="4"></rect>
        <rect id="rightD" stroke="#321E3E" fill="#7109AA" x="188.5" y="20.5" width="15" height="23" rx="4"></rect>
        <rect id="rightS" stroke="#321E3E" fill="#7109AA" x="168.5" y="48.5" width="15" height="23" rx="4"></rect>
        <rect id="rightT" stroke="#321E3E" fill="#7109AA" x="168.5" y="20.5" width="15" height="23" rx="4"></rect>
        <rect id="rightG" stroke="#321E3E" fill="#7109AA" x="148.5" y="48.5" width="15" height="23" rx="4"></rect>
        <rect id="rightL" stroke="#321E3E" fill="#7109AA" x="148.5" y="20.5" width="15" height="23" rx="4"></rect>
        <rect id="rightB" stroke="#321E3E" fill="#7109AA" x="128.5" y="48.5" width="15" height="23" rx="4"></rect>
        <rect id="rightP" stroke="#321E3E" fill="#7109AA" x="128.5" y="20.5" width="15" height="23" rx="4"></rect>
        <rect id="rightR" stroke="#321E3E" fill="#7109AA" x="108.5" y="48.5" width="15" height="23" rx="4"></rect>
        <rect id="rightF" stroke="#321E3E" fill="#7109AA" x="108.5" y="20.5" width="15" height="23" rx="4"></rect>
        <rect id="rightU" stroke="#321E3E" fill="#7109AA" x="118.5" y="76.5" width="15" height="23" rx="4"></rect>
        <rect id="rightE" stroke="#321E3E" fill="#7109AA" x="98.5" y="76.5" width="15" height="23" rx="4"></rect>
        <rect id="star" stroke="#321E3E" fill="#7109AA" x="82.5" y="20.5" width="19" height="51" rx="4"></rect>
        <rect id="leftO" stroke="#321E3E" fill="#7109AA" x="70.5" y="76.5" width="15" height="23" rx="4"></rect>
        <rect id="leftA" stroke="#321E3E" fill="#7109AA" x="50.5" y="76.5" width="15" height="23" rx="4"></rect>
        <rect id="leftR" stroke="#321E3E" fill="#7109AA" x="60.5" y="48.5" width="15" height="23" rx="4"></rect>
        <rect id="leftH" stroke="#321E3E" fill="#7109AA" x="60.5" y="20.5" width="15" height="23" rx="4"></rect>
        <rect id="leftW" stroke="#321E3E" fill="#7109AA" x="40.5" y="48.5" width="15" height="23" rx="4"></rect>
        <rect id="leftP" stroke="#321E3E" fill="#7109AA" x="40.5" y="20.5" width="15" height="23" rx="4"></rect>
        <rect id="leftK" stroke="#321E3E" fill="#7109AA" x="20.5" y="48.5" width="15" height="23" rx="4"></rect>
        <rect id="leftT" stroke="#321E3E" fill="#7109AA" x="20.5" y="20.5" width="15" height="23" rx="4"></rect>
        <rect id="leftSLower" stroke="#321E3E" fill="#7109AA" x="0.5" y="48.5" width="15" height="23" rx="4"></rect>
        <rect id="leftSUpper" stroke="#321E3E" fill="#7109AA" x="0.5" y="20.5" width="15" height="23" rx="4"></rect>
        <rect id="numberBar" stroke="#321E3E" fill="#7109AA" x="0.5" y="0.5" width="203" height="15" rx="4"></rect>
        <polygon id="Z" fill="#CAC7CC" points="199.632 53.8 199.632 54.824 194.16 63.688 199.584 63.688 199.584 65 192.4 65 192.4 63.992 197.872 55.096 192.752 55.096 192.752 53.8"></polygon>
        <path d="M192.592,37 L192.592,25.8 L195.232,25.8 C198.624,25.8 199.824,28.632 199.824,31.4 C199.824,33.976 198.768,37 195.168,37 L192.592,37 Z M193.984,35.736 L195.216,35.736 C197.664,35.736 198.384,33.448 198.384,31.4 C198.384,29.224 197.552,27.064 195.392,27.064 L193.984,27.064 L193.984,35.736 Z" id="D" fill="#CAC7CC"></path>
        <path d="M176.08,65.192 C174.336,65.192 172.976,64.104 172.512,62.712 L173.792,62.248 C174.208,63.24 175.072,63.928 176.144,63.928 C177.296,63.928 178.048,63.272 178.048,62.056 C178.048,60.84 176.976,60.136 175.792,59.624 C174.4,59.016 172.848,58.2 172.848,56.328 C172.848,54.84 174.016,53.608 175.952,53.608 C177.504,53.608 178.624,54.456 178.944,55.592 L177.68,56.008 C177.424,55.4 176.816,54.872 175.904,54.872 C174.896,54.872 174.256,55.432 174.256,56.328 C174.256,57.384 175.328,57.88 176.48,58.392 C177.824,59 179.456,59.944 179.456,62.008 C179.456,64.04 178,65.192 176.08,65.192 Z" id="SRight" fill="#CAC7CC"></path>
        <polygon id="TRight" fill="#CAC7CC" points="175.312 37 175.312 27.128 172.096 27.128 172.096 25.8 179.904 25.8 179.904 27.128 176.688 27.128 176.688 37"></polygon>
        <path d="M156.256,65.192 C153.408,65.192 152.224,62.328 152.224,59.4 C152.224,56.424 153.488,53.608 156.256,53.608 C158.032,53.608 158.832,54.568 159.36,55.56 L158.144,56.264 C157.744,55.544 157.232,54.888 156.256,54.888 C154.336,54.888 153.664,57.32 153.664,59.4 C153.664,61.72 154.432,63.912 156.256,63.912 C157.536,63.912 158.288,62.888 158.288,61.368 L158.288,60.84 L156.272,60.84 L156.272,59.576 L159.728,59.576 L159.728,60.92 C159.728,63.704 158.208,65.192 156.256,65.192 Z" id="G" fill="#CAC7CC"></path>
        <polygon id="L" fill="#CAC7CC" points="152.608 37 152.608 25.8 153.984 25.8 153.984 35.672 159.312 35.672 159.312 37"></polygon>
        <path d="M132.608,65 L132.608,53.8 L135.824,53.8 C138.48,53.8 139.296,55.272 139.296,56.744 C139.296,57.832 138.672,58.68 137.632,59.096 C138.864,59.432 139.696,60.424 139.696,61.816 C139.696,63.352 138.832,65 136.064,65 L132.608,65 Z M133.984,58.568 L135.552,58.568 C137.168,58.568 137.968,57.864 137.968,56.776 C137.968,55.944 137.6,55.064 135.904,55.064 L133.984,55.064 L133.984,58.568 Z M133.984,63.736 L136.24,63.736 C137.904,63.736 138.368,62.808 138.368,61.88 C138.368,60.824 137.84,59.8 135.728,59.8 L133.984,59.8 L133.984,63.736 Z" id="B" fill="#CAC7CC"></path>
        <path d="M132.608,37 L132.608,25.8 L136.064,25.8 C138.784,25.8 139.68,27.496 139.68,29.16 C139.68,30.696 138.688,32.504 136.064,32.504 L133.984,32.504 L133.984,37 L132.608,37 Z M133.984,31.224 L136.16,31.224 C137.76,31.224 138.32,30.136 138.32,29.16 C138.32,28.264 137.856,27.064 136.16,27.064 L133.984,27.064 L133.984,31.224 Z" id="PRight" fill="#CAC7CC"></path>
        <path d="M119.568,56.984 C119.568,58.28 118.912,59.688 117.12,60.088 L119.52,65 L118,65 L115.664,60.2 L113.984,60.2 L113.984,65 L112.608,65 L112.608,53.8 L116.048,53.8 C118.752,53.8 119.568,55.384 119.568,56.984 Z M113.984,55.064 L113.984,58.936 L116.08,58.936 C117.712,58.936 118.208,57.96 118.208,57.016 C118.208,56.184 117.76,55.064 116.08,55.064 L113.984,55.064 Z" id="RRight" fill="#CAC7CC"></path>
        <polygon id="F" fill="#CAC7CC" points="112.608 37 112.608 25.8 119.632 25.8 119.632 27.112 113.984 27.112 113.984 30.552 117.936 30.552 117.936 31.864 113.984 31.864 113.984 37"></polygon>
        <path d="M126,93.192 C123.856,93.192 122.4,91.976 122.4,88.76 L122.4,81.8 L123.776,81.8 L123.776,88.76 C123.776,91.256 124.8,91.912 126,91.912 C127.2,91.912 128.224,91.256 128.224,88.76 L128.224,81.8 L129.616,81.8 L129.616,88.76 C129.616,91.96 128.144,93.192 126,93.192 Z" id="U" fill="#CAC7CC"></path>
        <polygon id="E" fill="#CAC7CC" points="102.608 93 102.608 81.8 109.168 81.8 109.168 83.112 103.984 83.112 103.984 86.552 107.52 86.552 107.52 87.864 103.984 87.864 103.984 91.688 109.504 91.688 109.504 93"></polygon>
        <path d="M78,93.192 C75.2,93.192 74.192,90.248 74.192,87.4 C74.192,84.552 75.2,81.608 78,81.608 C80.8,81.608 81.824,84.552 81.824,87.4 C81.824,90.248 80.8,93.192 78,93.192 Z M78,91.912 C79.728,91.912 80.384,89.544 80.384,87.4 C80.384,85.064 79.744,82.888 78,82.888 C76.256,82.888 75.616,85.24 75.616,87.4 C75.616,89.72 76.256,91.912 78,91.912 Z" id="O" fill="#CAC7CC"></path>
        <path d="M60.848,93 L59.984,90.248 L56.032,90.248 L55.184,93 L53.712,93 L57.408,81.8 L58.576,81.8 L62.288,93 L60.848,93 Z M56.416,89.016 L59.584,89.016 L58.288,84.92 C58.208,84.664 58.048,84.104 57.984,83.832 C57.936,84.104 57.776,84.664 57.696,84.92 L56.416,89.016 Z" id="A" fill="#CAC7CC"></path>
        <polygon id="*" fill="#CAC7CC" points="90.592 48.096 89.504 47.408 90.48 45.808 91.36 44.912 90.112 45.168 88.32 45.168 88.32 43.872 90.112 43.872 91.36 44.144 90.48 43.232 89.504 41.632 90.608 40.944 91.632 42.608 92 43.808 92.368 42.608 93.392 40.944 94.496 41.632 93.52 43.232 92.64 44.144 93.888 43.872 95.696 43.872 95.696 45.168 93.888 45.168 92.64 44.912 93.52 45.808 94.496 47.408 93.392 48.096 92.368 46.432 92 45.248 91.632 46.432"></polygon>
        <path d="M71.568,56.984 C71.568,58.28 70.912,59.688 69.12,60.088 L71.52,65 L70,65 L67.664,60.2 L65.984,60.2 L65.984,65 L64.608,65 L64.608,53.8 L68.048,53.8 C70.752,53.8 71.568,55.384 71.568,56.984 Z M65.984,55.064 L65.984,58.936 L68.08,58.936 C69.712,58.936 70.208,57.96 70.208,57.016 C70.208,56.184 69.76,55.064 68.08,55.064 L65.984,55.064 Z" id="RLeft" fill="#CAC7CC"></path>
        <polygon id="H" fill="#CAC7CC" points="64.608 37 64.608 25.8 65.984 25.8 65.984 30.536 70.016 30.536 70.016 25.8 71.392 25.8 71.392 37 70.016 37 70.016 31.848 65.984 31.848 65.984 37"></polygon>
        <path d="M45.456,65 L43.696,53.8 L45.008,53.8 L46.048,61.192 C46.08,61.416 46.096,61.64 46.128,61.912 C46.16,61.656 46.208,61.4 46.256,61.192 L47.536,53.8 L48.496,53.8 L49.776,61.112 C49.824,61.336 49.856,61.544 49.888,61.768 C49.904,61.528 49.936,61.304 49.968,61.128 L50.976,53.8 L52.304,53.8 L50.544,65 L49.424,65 L48.112,57.656 C48.08,57.416 48.032,57.16 48,56.904 C47.968,57.16 47.936,57.416 47.888,57.624 L46.576,65 L45.456,65 Z" id="W" fill="#CAC7CC"></path>
        <path d="M44.608,37 L44.608,25.8 L48.064,25.8 C50.784,25.8 51.68,27.496 51.68,29.16 C51.68,30.696 50.688,32.504 48.064,32.504 L45.984,32.504 L45.984,37 L44.608,37 Z M45.984,31.224 L48.16,31.224 C49.76,31.224 50.32,30.136 50.32,29.16 C50.32,28.264 49.856,27.064 48.16,27.064 L45.984,27.064 L45.984,31.224 Z" id="PLeft" fill="#CAC7CC"></path>
        <polygon id="K" fill="#CAC7CC" points="30.48 65 27.264 58.904 25.984 60.52 25.984 65 24.608 65 24.608 53.8 25.984 53.8 25.984 58.616 29.728 53.8 31.312 53.8 28.208 57.72 32.064 65"></polygon>
        <polygon id="TLeft" fill="#CAC7CC" points="27.312 37 27.312 27.128 24.096 27.128 24.096 25.8 31.904 25.8 31.904 27.128 28.688 27.128 28.688 37"></polygon>
        <path d="M8.08,65.192 C6.336,65.192 4.976,64.104 4.512,62.712 L5.792,62.248 C6.208,63.24 7.072,63.928 8.144,63.928 C9.296,63.928 10.048,63.272 10.048,62.056 C10.048,60.84 8.976,60.136 7.792,59.624 C6.4,59.016 4.848,58.2 4.848,56.328 C4.848,54.84 6.016,53.608 7.952,53.608 C9.504,53.608 10.624,54.456 10.944,55.592 L9.68,56.008 C9.424,55.4 8.816,54.872 7.904,54.872 C6.896,54.872 6.256,55.432 6.256,56.328 C6.256,57.384 7.328,57.88 8.48,58.392 C9.824,59 11.456,59.944 11.456,62.008 C11.456,64.04 10,65.192 8.08,65.192 Z" id="SLower" fill="#CAC7CC"></path>
        <path d="M8.08,37.192 C6.336,37.192 4.976,36.104 4.512,34.712 L5.792,34.248 C6.208,35.24 7.072,35.928 8.144,35.928 C9.296,35.928 10.048,35.272 10.048,34.056 C10.048,32.84 8.976,32.136 7.792,31.624 C6.4,31.016 4.848,30.2 4.848,28.328 C4.848,26.84 6.016,25.608 7.952,25.608 C9.504,25.608 10.624,26.456 10.944,27.592 L9.68,28.008 C9.424,27.4 8.816,26.872 7.904,26.872 C6.896,26.872 6.256,27.432 6.256,28.328 C6.256,29.384 7.328,29.88 8.48,30.392 C9.824,31 11.456,31.944 11.456,34.008 C11.456,36.04 10,37.192 8.08,37.192 Z" id="SUpper" fill="#CAC7CC"></path>
        <path d="M90.344,12 L90.728,9.47839996 L89.2176,9.47839996 L89.384,8.51839995 L90.8688,8.51839995 L91.2016,6.35519992 L89.7552,6.35519992 L89.9088,5.4079999 L91.3424,5.4079999 L91.7008,3.03999987 L92.7248001,3.03999987 L92.3664001,5.4079999 L94.1200001,5.4079999 L94.4912001,3.03999987 L95.5024001,3.03999987 L95.1312001,5.4079999 L96.6672001,5.4079999 L96.5136001,6.35519992 L94.9904001,6.35519992 L94.6576001,8.51839995 L96.1168001,8.51839995 L95.9760001,9.47839996 L94.5168001,9.47839996 L94.1328001,12 L93.1216001,12 L93.5056001,9.47839996 L91.752,9.47839996 L91.368,12 L90.344,12 Z M91.8928,8.51839995 L93.6464001,8.51839995 L93.9792001,6.35519992 L92.2256,6.35519992 L91.8928,8.51839995 Z" id="#" fill="#CAC7CC"></path>
    </g>
</svg>