<svg viewBox="0 0 95 124" fill="none" xmlns="http://www.w3.org/2000/svg">
<path d="M9.99977 74.404C12 60.0127 23.565 56.0127 33.1302 56.0127L33.1302 60.0127C17.478 60.3869 15.2172 72.6409 15.2172 74.404C15.2172 77.8823 9.52093 77.8491 9.99977 74.404Z" fill="#202630" stroke="#202630" stroke-width="1.73913"/>
<path d="M85 42.6087C82.9999 57 71.5652 61 62 61L62 57C77.6521 56.6258 80 44.3718 80 42.6087C80 39.1304 85.4788 39.1635 85 42.6087Z" fill="#202630" stroke="#202630" stroke-width="1.73913"/>
<rect x="34" y="98" width="7" height="21" fill="#202630"/>
<rect x="54" y="98" width="7" height="21" fill="#202630"/>
<rect x="39" y="45" width="17" height="5" fill="#202630"/>
<path d="M27 60C27 54.4772 31.4772 50 37 50H58C63.5228 50 68 54.4772 68 60V89C68 94.5228 63.5228 99 58 99H37C31.4772 99 27 94.5228 27 89V60Z" fill="#A1D3F7"/>
<rect x="60.47" y="66.8552" width="1.96678" height="2.8339" rx="0.462772" fill="#202630" stroke="#202630" stroke-width="0.115693"/>
<rect x="60.47" y="63.4045" width="1.96678" height="2.8339" rx="0.462772" fill="#202630" stroke="#202630" stroke-width="0.115693"/>
<rect x="57.8883" y="66.8552" width="1.96678" height="2.8339" rx="0.462772" fill="#202630" stroke="#202630" stroke-width="0.115693"/>
<rect x="57.8883" y="63.4045" width="1.96678" height="2.8339" rx="0.462772" fill="#202630" stroke="#202630" stroke-width="0.115693"/>
<rect x="55.3075" y="66.8552" width="1.96678" height="2.8339" rx="0.462772" fill="#202630" stroke="#202630" stroke-width="0.115693"/>
<rect x="55.3075" y="63.4045" width="1.96678" height="2.8339" rx="0.462772" fill="#202630" stroke="#202630" stroke-width="0.115693"/>
<rect x="52.7255" y="66.8552" width="1.96678" height="2.8339" rx="0.462772" fill="#202630" stroke="#202630" stroke-width="0.115693"/>
<rect x="52.7255" y="63.4045" width="1.96678" height="2.8339" rx="0.462772" fill="#202630" stroke="#202630" stroke-width="0.115693"/>
<rect x="50.1438" y="66.8552" width="1.96678" height="2.8339" rx="0.462772" fill="#202630" stroke="#202630" stroke-width="0.115693"/>
<rect x="50.1438" y="63.4045" width="1.96678" height="2.8339" rx="0.462772" fill="#202630" stroke="#202630" stroke-width="0.115693"/>
<rect x="51.4958" y="70.3042" width="1.96678" height="2.8339" rx="0.462772" fill="#202630" stroke="#202630" stroke-width="0.115693"/>
<rect x="48.9149" y="70.3042" width="1.96678" height="2.8339" rx="0.462772" fill="#202630" stroke="#202630" stroke-width="0.115693"/>
<rect x="46.825" y="63.4045" width="2.45848" height="6.28387" rx="0.462772" fill="#202630" stroke="#202630" stroke-width="0.115693"/>
<rect x="45.2264" y="70.3042" width="1.96678" height="2.8339" rx="0.462772" fill="#202630" stroke="#202630" stroke-width="0.115693"/>
<rect x="42.646" y="70.3042" width="1.96678" height="2.8339" rx="0.462772" fill="#202630" stroke="#202630" stroke-width="0.115693"/>
<rect x="43.9985" y="66.8552" width="1.96678" height="2.8339" rx="0.462772" fill="#202630" stroke="#202630" stroke-width="0.115693"/>
<rect x="43.9985" y="63.4045" width="1.96678" height="2.8339" rx="0.462772" fill="#202630" stroke="#202630" stroke-width="0.115693"/>
<rect x="41.4164" y="66.8552" width="1.96678" height="2.8339" rx="0.462772" fill="#202630" stroke="#202630" stroke-width="0.115693"/>
<rect x="41.4164" y="63.4045" width="1.96678" height="2.8339" rx="0.462772" fill="#202630" stroke="#202630" stroke-width="0.115693"/>
<rect x="38.8356" y="66.8552" width="1.96678" height="2.8339" rx="0.462772" fill="#202630" stroke="#202630" stroke-width="0.115693"/>
<rect x="38.8356" y="63.4045" width="1.96678" height="2.8339" rx="0.462772" fill="#202630" stroke="#202630" stroke-width="0.115693"/>
<rect x="36.2535" y="66.8552" width="1.96678" height="2.8339" rx="0.462772" fill="#202630" stroke="#202630" stroke-width="0.115693"/>
<rect x="36.2535" y="63.4045" width="1.96678" height="2.8339" rx="0.462772" fill="#202630" stroke="#202630" stroke-width="0.115693"/>
<rect x="36.2534" y="60.9414" width="26.1828" height="1.8482" rx="0.462772" fill="#202630" stroke="#202630" stroke-width="0.115693"/>
<path d="M56 3C48 3 46 8.5 46 14H49C49.2152 5 54 6 56 6V3Z" fill="#202630" stroke="#202630"/>
<circle cx="58" cy="4" r="4" fill="#202630"/>
<circle cx="59.5" cy="2.5" r="1.5" fill="white"/>
<path d="M37.5 113C32.8056 113 28.9999 118.5 29 121.5C29.0001 124.5 46 124.5 46 121.5C46 118.5 42.1944 113 37.5 113Z" fill="#202630"/>
<path d="M57.5 113C52.8056 113 48.9999 118.5 49 121.5C49.0001 124.5 66 124.5 66 121.5C66 118.5 62.1944 113 57.5 113Z" fill="#202630"/>
<path d="M71 33C73.2091 33 75 31.2091 75 29C75 26.7909 73.2091 25 71 25V33Z" fill="#202630"/>
<path d="M20 29C20 31.2091 21.7909 33 24 33V25C21.7909 25 20 26.7909 20 29Z" fill="#202630"/>
<path d="M23 25.0954C23 18.9676 27.9676 14 34.0954 14H60.9046C67.0324 14 72 18.9676 72 25.0954V33C72 39.6274 66.6274 45 60 45H35C28.3726 45 23 39.6274 23 33V25.0954Z" fill="#A1D3F7"/>
<path d="M29 25.224C29 22.3389 31.3389 20 34.224 20H60.776C63.6611 20 66 22.3389 66 25.224V31C66 35.4183 62.4183 39 58 39H37C32.5817 39 29 35.4183 29 31V25.224Z" fill="white"/>
<path d="M50.9646 32.4173L44.9646 32.4173C44.4123 32.4173 43.9644 32.8651 43.9644 33.4173C43.9643 33.6888 43.9644 33.9355 43.9647 34.0473C43.9688 35.8694 46.0263 36 47.9646 36C49.9029 36 51.9646 35.9416 51.9646 34.0473L51.9646 33.4173C51.9646 32.8651 51.5168 32.4173 50.9646 32.4173Z" fill="#202630"/>
<circle cx="39" cy="28" r="3" fill="#202630"/>
<circle cx="56" cy="28" r="3" fill="#202630"/>
</svg>

