<svg fill="none" xmlns="http://www.w3.org/2000/svg" viewBox="0 0 55 50">
  <title id="shazza-robot-title">Shazza</title>
  <path d="M36 3C28 3 26 8.5 26 14H29C29.2152 5 34 6 36 6V3Z" fill="#202630" stroke="#202630"/>
  <circle cx="38" cy="4" r="4" fill="#202630"/>
  <circle cx="39.5" cy="2.5" r="1.5" fill="#F6D43C"/>
  <path d="M51 33C53.2091 33 55 31.2091 55 29 55 26.7909 53.2091 25 51 25V33ZM0 29C0 31.2091 1.79086 33 4 33V25C1.79086 25 0 26.7909 0 29Z" fill="#202630"/>
  <path d="M3 26C3 19.3726 8.37258 14 15 14H40C46.6274 14 52 19.3726 52 26V26.5271V37C52 43.6274 46.6274 49 40 49H15C8.37258 49 3 43.6274 3 37V26.5271V26Z" fill="#24BC8C"/>
  <path d="M9 26.3238C9 22.8313 11.8313 20 15.3239 20H39.6761C43.1687 20 46 22.8313 46 26.3238V26.3238V35C46 39.4183 42.4183 43 38 43H17C12.5817 43 9 39.4183 9 35V26.3238V26.3238Z" fill="#fff"/>
  <path d="M30.5348 34L24.4738 34C23.936 34 23.4994 34.436 23.5004 34.9737C23.5045 37.2515 25.5618 39 27.5 39C29.4383 39 31.5 37.3331 31.5 34.9652C31.5 34.4321 31.0679 34 30.5348 34Z" fill="#202630"/>
  <circle cx="19" cy="29" r="3" fill="#202630"/>
  <circle cx="36" cy="29" r="3" fill="#202630"/>
</svg>
