<svg fill="none" xmlns="http://www.w3.org/2000/svg" viewBox="0 0 77 124">
  <title id="aussie-robot-title">Aussie robot, Shazza</title>
  <path d="M3.49592 83.1213C-1.96748 69.6579 6.04809 60.4114 14.3318 55.6287L16.3318 59.0928C2.96371 67.243 7.13275 78.9857 8.01431 80.5126 9.75344 83.5249 4.8038 86.3443 3.49592 83.1213ZM68.0001 42.6087C66 57 54.5653 61 45.0001 61L45.0001 57C60.6522 56.6258 63.0001 44.3718 63.0001 42.6087 63.0001 39.1304 68.4789 39.1635 68.0001 42.6087Z" fill="#202630" stroke="#202630" stroke-width="1.73913"/>
  <path fill="#202630" d="M17 98H24V119H17zM37 98H44V119H37zM22 45H39V50H22z"/>
  <path d="M10 60C10 54.4772 14.4772 50 20 50H41C46.5228 50 51 54.4772 51 60V89C51 94.5228 46.5228 99 41 99H20C14.4772 99 10 94.5228 10 89V60Z" fill="#24BC8C"/>
  <rect x="42.47" y="66.8552" width="1.96678" height="2.8339" rx=".462772" fill="#202630" stroke="#202630" stroke-width=".115693"/>
  <rect x="42.47" y="63.4045" width="1.96678" height="2.8339" rx=".462772" fill="#202630" stroke="#202630" stroke-width=".115693"/>
  <rect x="39.8883" y="66.8552" width="1.96678" height="2.8339" rx=".462772" fill="#202630" stroke="#202630" stroke-width=".115693"/>
  <rect x="39.8883" y="63.4045" width="1.96678" height="2.8339" rx=".462772" fill="#202630" stroke="#202630" stroke-width=".115693"/>
  <rect x="37.3075" y="66.8552" width="1.96678" height="2.8339" rx=".462772" fill="#202630" stroke="#202630" stroke-width=".115693"/>
  <rect x="37.3075" y="63.4045" width="1.96678" height="2.8339" rx=".462772" fill="#202630" stroke="#202630" stroke-width=".115693"/>
  <rect x="34.7255" y="66.8552" width="1.96678" height="2.8339" rx=".462772" fill="#202630" stroke="#202630" stroke-width=".115693"/>
  <rect x="34.7255" y="63.4045" width="1.96678" height="2.8339" rx=".462772" fill="#202630" stroke="#202630" stroke-width=".115693"/>
  <rect x="32.1438" y="66.8552" width="1.96678" height="2.8339" rx=".462772" fill="#202630" stroke="#202630" stroke-width=".115693"/>
  <rect x="32.1438" y="63.4045" width="1.96678" height="2.8339" rx=".462772" fill="#202630" stroke="#202630" stroke-width=".115693"/>
  <rect x="33.4958" y="70.3042" width="1.96678" height="2.8339" rx=".462772" fill="#202630" stroke="#202630" stroke-width=".115693"/>
  <rect x="30.9149" y="70.3042" width="1.96678" height="2.8339" rx=".462772" fill="#202630" stroke="#202630" stroke-width=".115693"/>
  <rect x="28.825" y="63.4045" width="2.45848" height="6.28387" rx=".462772" fill="#202630" stroke="#202630" stroke-width=".115693"/>
  <rect x="27.2264" y="70.3042" width="1.96678" height="2.8339" rx=".462772" fill="#202630" stroke="#202630" stroke-width=".115693"/>
  <rect x="24.646" y="70.3042" width="1.96678" height="2.8339" rx=".462772" fill="#202630" stroke="#202630" stroke-width=".115693"/>
  <rect x="25.9985" y="66.8552" width="1.96678" height="2.8339" rx=".462772" fill="#202630" stroke="#202630" stroke-width=".115693"/>
  <rect x="25.9985" y="63.4045" width="1.96678" height="2.8339" rx=".462772" fill="#202630" stroke="#202630" stroke-width=".115693"/>
  <rect x="23.4164" y="66.8552" width="1.96678" height="2.8339" rx=".462772" fill="#202630" stroke="#202630" stroke-width=".115693"/>
  <rect x="23.4164" y="63.4045" width="1.96678" height="2.8339" rx=".462772" fill="#202630" stroke="#202630" stroke-width=".115693"/>
  <rect x="20.8356" y="66.8552" width="1.96678" height="2.8339" rx=".462772" fill="#202630" stroke="#202630" stroke-width=".115693"/>
  <rect x="20.8356" y="63.4045" width="1.96678" height="2.8339" rx=".462772" fill="#202630" stroke="#202630" stroke-width=".115693"/>
  <rect x="18.2535" y="66.8552" width="1.96678" height="2.8339" rx=".462772" fill="#202630" stroke="#202630" stroke-width=".115693"/>
  <rect x="18.2535" y="63.4045" width="1.96678" height="2.8339" rx=".462772" fill="#202630" stroke="#202630" stroke-width=".115693"/>
  <rect x="18.2534" y="60.9414" width="26.1828" height="1.8482" rx=".462772" fill="#202630" stroke="#202630" stroke-width=".115693"/>
  <path d="M39 3C31 3 29 8.5 29 14H32C32.2152 5 37 6 39 6V3Z" fill="#202630" stroke="#202630"/>
  <circle cx="41" cy="4" r="4" fill="#202630"/>
  <circle cx="42.5" cy="2.5" r="1.5" fill="#F6D43C"/>
  <path d="M20.5 113C15.8056 113 11.9999 118.5 12 121.5 12.0001 124.5 29 124.5 29 121.5 29 118.5 25.1944 113 20.5 113ZM40.5 113C35.8056 113 31.9999 118.5 32 121.5 32.0001 124.5 49 124.5 49 121.5 49 118.5 45.1944 113 40.5 113ZM54 33C56.2091 33 58 31.2091 58 29 58 26.7909 56.2091 25 54 25V33ZM3 29C3 31.2091 4.79086 33 7 33V25C4.79086 25 3 26.7909 3 29Z" fill="#202630"/>
  <path d="M6 25.0954C6 18.9676 10.9676 14 17.0954 14H43.9046C50.0324 14 55 18.9676 55 25.0954V25.0954V33C55 39.6274 49.6274 45 43 45H18C11.3726 45 6 39.6274 6 33V25.0954V25.0954Z" fill="#24BC8C"/>
  <path d="M12 25.224C12 22.3389 14.3389 20 17.224 20H43.776C46.6611 20 49 22.3389 49 25.224V25.224V31C49 35.4183 45.4183 39 41 39H20C15.5817 39 12 35.4183 12 31V25.224V25.224Z" fill="#fff"/>
  <path d="M34.1923 33 27.7434 33C27.3132 33 26.9638 33.3488 26.9647 33.779 26.9689 35.6012 29.0261 37 30.9644 37 32.9027 37 34.9644 35.6665 34.9644 33.7721 34.9644 33.3457 34.6187 33 34.1923 33ZM24.8042 30.0002C24.8042 30.2764 24.5803 30.5002 24.3042 30.5002 24.0281 30.5002 23.8042 30.2764 23.8042 30.0002H24.8042ZM20.4709 30.0002C20.4709 30.2764 20.247 30.5002 19.9709 30.5002 19.6947 30.5002 19.4709 30.2764 19.4709 30.0002H20.4709ZM22.3042 28.0002 22.3042 27.5002H22.3042L22.3042 28.0002ZM23.8042 30.0002C23.8042 29.1363 23.0554 28.5002 22.3042 28.5002L22.3042 27.5002C23.553 27.5002 24.8042 28.5309 24.8042 30.0002H23.8042ZM22.3042 28.5002C21.1677 28.5003 20.4709 29.1828 20.4709 30.0002H19.4709C19.4709 28.4843 20.774 27.5003 22.3042 27.5002L22.3042 28.5002Z" fill="#202630"/>
  <path stroke="#202630" stroke-linecap="round" d="M19.395 26.4346 23.445 25.856"/>
  <path d="M36.1406 30.0002C36.1406 30.2764 36.3645 30.5002 36.6406 30.5002C36.9168 30.5002 37.1406 30.2764 37.1406 30.0002H36.1406ZM40.474 30.0002C40.474 30.2764 40.6978 30.5002 40.974 30.5002C41.2501 30.5002 41.474 30.2764 41.474 30.0002H40.474ZM38.6406 28.0002L38.6406 27.5002H38.6406L38.6406 28.0002ZM37.1406 30.0002C37.1406 29.1363 37.8895 28.5002 38.6406 28.5002L38.6406 27.5002C37.3918 27.5002 36.1406 28.5309 36.1406 30.0002H37.1406ZM38.6406 28.5002C39.7771 28.5003 40.474 29.1828 40.474 30.0002H41.474C41.474 28.4843 40.1708 27.5003 38.6406 27.5002L38.6406 28.5002Z" fill="#202630"/>
  <path transform="matrix(-0.98995 -0.141421 -0.141421 0.98995 41.9707 27.0002)" stroke="#202630" stroke-linecap="round" d="M.5-.5 4.59117-.5"/>
  <path fill-rule="evenodd" clip-rule="evenodd" d="M46 20C47.8997 14.3406 54.101 11.9608 60.7791 12.0004C67.3043 12.0391 73.4559 15.3602 75.0001 21.5C76.2536 26.4841 73.5 32 68.3885 34.1387C63.7912 36.0623 58 36.4652 53.4713 33.7717C52.3785 33.1217 51.3376 32.3747 50.3911 31.5507L45 32L47.5 28.5L47.7865 28.7456C45.8602 26.1104 44.974 23.0568 46 20Z" fill="#fff"/>
  <path d="M60.7791 12.0005 60.782 11.5005 60.7791 12.0005ZM46 20.0001 46.474 20.1592 46 20.0001ZM75.0001 21.5001 74.5152 21.622 74.5152 21.622 75.0001 21.5001ZM68.3885 34.1388 68.1955 33.6775 68.1955 33.6775 68.3885 34.1388ZM53.4713 33.7717 53.7269 33.342 53.7269 33.342 53.4713 33.7717ZM50.3911 31.5508 50.7194 31.1737 50.3496 31.0525 50.3911 31.5508ZM45 32.0001 44.5931 31.7095 45.0415 32.4984 45 32.0001ZM47.5 28.5001 47.8254 28.1204 47.0931 28.2095 47.5 28.5001ZM47.7865 28.7456 47.4611 29.1253 48.1901 28.4506 47.7865 28.7456ZM60.782 11.5005C54.0348 11.4605 47.5317 13.8657 45.526 19.841L46.474 20.1592C48.2676 14.8157 54.1672 12.4613 60.7761 12.5005L60.782 11.5005ZM75.485 21.3781C73.8654 14.9383 67.4424 11.54 60.782 11.5005L60.7761 12.5005C67.1662 12.5384 73.0465 15.7823 74.5152 21.622L75.485 21.3781ZM68.5815 34.6C73.9112 32.37 76.8014 26.6124 75.485 21.3781L74.5152 21.622C75.7058 26.356 73.0888 31.6301 68.1955 33.6775L68.5815 34.6ZM53.2157 34.2015C57.9233 37.0014 63.8911 36.5625 68.5815 34.6L68.1955 33.6775C63.6913 35.5621 58.0767 35.9291 53.7269 33.342L53.2157 34.2015ZM50.0628 31.9279C51.033 32.7725 52.0984 33.537 53.2157 34.2015L53.7269 33.342C52.6585 32.7066 51.6421 31.9769 50.7194 31.1737L50.0628 31.9279ZM50.3496 31.0525 44.9585 31.5018 45.0415 32.4984 50.4326 32.0491 50.3496 31.0525ZM45.4069 32.2907 47.9069 28.7907 47.0931 28.2095 44.5931 31.7095 45.4069 32.2907ZM47.1746 28.8797 47.4611 29.1253 48.1119 28.366 47.8254 28.1204 47.1746 28.8797ZM45.526 19.841C44.4329 23.0975 45.3934 26.3192 47.3828 29.0407L48.1901 28.4506C46.327 25.9018 45.515 23.0164 46.474 20.1592L45.526 19.841ZM60.112 25.526 59.788 20.126V16.184H61.354V20.126L61.012 25.526H60.112ZM61.426 28.892C61.186 29.132 60.892 29.252 60.544 29.252 60.196 29.252 59.902 29.132 59.662 28.892 59.422 28.64 59.302 28.346 59.302 28.01 59.302 27.674 59.422 27.386 59.662 27.146 59.902 26.894 60.196 26.768 60.544 26.768 60.892 26.768 61.186 26.894 61.426 27.146 61.666 27.386 61.786 27.674 61.786 28.01 61.786 28.346 61.666 28.64 61.426 28.892Z" fill="#353F50"/>
</svg>
