<svg viewBox="0 0 77 124" fill="none" xmlns="http://www.w3.org/2000/svg">
  <title id="bananas-robot-title">Bananas robot</title>
  <g clip-path="url(#clip0_2595_24434)">
  <path d="M66.8723 85.3322C70.8075 71.3456 61.9344 63.0981 53.171 59.2646L51.5679 62.9293C65.7581 69.5451 62.998 81.7129 62.2914 83.3283C60.8974 86.5149 65.9302 88.6804 66.8723 85.3322Z" fill="#202630" stroke="#202630" stroke-width="1.73913"/>
  <path d="M16.4884 86.0885C11.0249 72.6252 18.9277 63.4438 27.2114 58.6612L29.2114 62.1253C15.8433 70.2754 19.937 82.0616 20.8185 83.5885C22.5577 86.6008 17.7963 89.3115 16.4884 86.0885Z" fill="#202630" stroke="#202630" stroke-width="1.73913"/>
  <rect x="26" y="91" width="7" height="27" fill="#202630"/>
  <rect x="46" y="91" width="7" height="27" fill="#202630"/>
  <rect x="32" y="46" width="17" height="6" fill="#202630"/>
  <path d="M23 61C23 55.4772 27.4772 51 33 51H48C53.5228 51 58 55.4772 58 61V83C58 88.5228 53.5228 93 48 93H33C27.4772 93 23 88.5228 23 83V61Z" fill="#E17547"/>
  <rect x="50.4747" y="61.9106" width="1.52566" height="2.1983" rx="0.358979" fill="#202630" stroke="#202630" stroke-width="0.0897448"/>
  <rect x="50.4747" y="59.2339" width="1.52566" height="2.1983" rx="0.358979" fill="#202630" stroke="#202630" stroke-width="0.0897448"/>
  <rect x="48.472" y="61.9106" width="1.52566" height="2.1983" rx="0.358979" fill="#202630" stroke="#202630" stroke-width="0.0897448"/>
  <rect x="48.472" y="59.2339" width="1.52566" height="2.1983" rx="0.358979" fill="#202630" stroke="#202630" stroke-width="0.0897448"/>
  <rect x="46.4701" y="61.9106" width="1.52566" height="2.1983" rx="0.358979" fill="#202630" stroke="#202630" stroke-width="0.0897448"/>
  <rect x="46.4701" y="59.2339" width="1.52566" height="2.1983" rx="0.358979" fill="#202630" stroke="#202630" stroke-width="0.0897448"/>
  <rect x="44.4672" y="61.9106" width="1.52566" height="2.1983" rx="0.358979" fill="#202630" stroke="#202630" stroke-width="0.0897448"/>
  <rect x="44.4672" y="59.2339" width="1.52566" height="2.1983" rx="0.358979" fill="#202630" stroke="#202630" stroke-width="0.0897448"/>
  <rect x="42.4645" y="61.9106" width="1.52566" height="2.1983" rx="0.358979" fill="#202630" stroke="#202630" stroke-width="0.0897448"/>
  <rect x="42.4645" y="59.2339" width="1.52566" height="2.1983" rx="0.358979" fill="#202630" stroke="#202630" stroke-width="0.0897448"/>
  <rect x="43.5133" y="64.5859" width="1.52566" height="2.1983" rx="0.358979" fill="#202630" stroke="#202630" stroke-width="0.0897448"/>
  <rect x="41.5114" y="64.5859" width="1.52566" height="2.1983" rx="0.358979" fill="#202630" stroke="#202630" stroke-width="0.0897448"/>
  <rect x="39.89" y="59.2339" width="1.90708" height="4.87449" rx="0.358979" fill="#202630" stroke="#202630" stroke-width="0.0897448"/>
  <rect x="38.6501" y="64.5859" width="1.52566" height="2.1983" rx="0.358979" fill="#202630" stroke="#202630" stroke-width="0.0897448"/>
  <rect x="36.6484" y="64.5859" width="1.52566" height="2.1983" rx="0.358979" fill="#202630" stroke="#202630" stroke-width="0.0897448"/>
  <rect x="37.6975" y="61.9106" width="1.52566" height="2.1983" rx="0.358979" fill="#202630" stroke="#202630" stroke-width="0.0897448"/>
  <rect x="37.6975" y="59.2339" width="1.52566" height="2.1983" rx="0.358979" fill="#202630" stroke="#202630" stroke-width="0.0897448"/>
  <rect x="35.6946" y="61.9106" width="1.52566" height="2.1983" rx="0.358979" fill="#202630" stroke="#202630" stroke-width="0.0897448"/>
  <rect x="35.6946" y="59.2339" width="1.52566" height="2.1983" rx="0.358979" fill="#202630" stroke="#202630" stroke-width="0.0897448"/>
  <rect x="33.6926" y="61.9106" width="1.52566" height="2.1983" rx="0.358979" fill="#202630" stroke="#202630" stroke-width="0.0897448"/>
  <rect x="33.6926" y="59.2339" width="1.52566" height="2.1983" rx="0.358979" fill="#202630" stroke="#202630" stroke-width="0.0897448"/>
  <rect x="31.6897" y="61.9106" width="1.52566" height="2.1983" rx="0.358979" fill="#202630" stroke="#202630" stroke-width="0.0897448"/>
  <rect x="31.6897" y="59.2339" width="1.52566" height="2.1983" rx="0.358979" fill="#202630" stroke="#202630" stroke-width="0.0897448"/>
  <rect x="31.6896" y="57.3232" width="20.3104" height="1.43367" rx="0.358979" fill="#202630" stroke="#202630" stroke-width="0.0897448"/>
  <path d="M33 5.37614C39.7757 3.19556 43 10.9946 43 16H40C40.4718 7.8982 35.1509 6.83012 33 8.55188V5.37614Z" fill="#202630" stroke="#202630"/>
  <circle cx="4" cy="4" r="4" transform="matrix(-1 0 0 1 35 4)" fill="#202630"/>
  <circle cx="1.5" cy="1.5" r="1.5" transform="matrix(-1 0 0 1 32 5)" fill="white"/>
  <path d="M29.5 112C24.8056 112 20.9999 117.5 21 120.5C21.0001 123.5 38 123.5 38 120.5C38 117.5 34.1944 112 29.5 112Z" fill="#202630"/>
  <path d="M49.5 112C44.8056 112 40.9999 117.5 41 120.5C41.0001 123.5 58 123.5 58 120.5C58 117.5 54.1944 112 49.5 112Z" fill="#202630"/>
  <path d="M62 35C64.2091 35 66 33.2091 66 31C66 28.7909 64.2091 27 62 27V35Z" fill="#202630"/>
  <path d="M15 31C15 33.2091 16.7909 35 19 35V27C16.7909 27 15 28.7909 15 31Z" fill="#202630"/>
  <path d="M18 27.0954C18 20.9676 22.9676 16 29.0954 16H51.9046C58.0324 16 63 20.9676 63 27.0954V27.0954V35C63 41.6274 57.6274 47 51 47H30C23.3726 47 18 41.6274 18 35V27.0954V27.0954Z" fill="#E17547"/>
  <path d="M24 27.224C24 24.3389 26.3389 22 29.224 22H51.776C54.6611 22 57 24.3389 57 27.224V27.224V33C57 37.4183 53.4183 41 49 41H32C27.5817 41 24 37.4183 24 33V27.224V27.224Z" fill="white"/>
  <path d="M44.1923 35L37.7434 35C37.3132 35 36.9638 35.3488 36.9647 35.779C36.9689 37.6012 39.0261 39 40.9644 39C42.9027 39 44.9644 37.6665 44.9644 35.7721C44.9644 35.3457 44.6187 35 44.1923 35Z" fill="#202630"/>
  <path d="M47 30H51" stroke="#202630" stroke-width="2" stroke-linecap="round"/>
  <path d="M30 30H34" stroke="#202630" stroke-width="2" stroke-linecap="round"/>
  <path d="M10.1661 65.24L15.2461 70.5678L12.6176 71.621L9.76788 66.3463L10.1661 65.24Z" fill="#B29206" stroke="#B29206" stroke-width="1.05164"/>
  <path d="M49.0449 72.4883L47.5935 70.9661L47.9387 72.09L49.0449 72.4883Z" stroke="#6E2A0D" stroke-width="1.05164"/>
  <path d="M16.9189 78.4179C23.7608 84.8321 39.4637 82.3505 46.7439 75.4089L48.529 72.7007L47.2172 71.3249C47.2172 71.3249 44.6064 71.6347 42.739 71.9621C40.8717 72.2896 35.3596 74.9792 30.3931 75.0154C26.1202 75.0466 22.2509 73.3339 20.0384 72.5374C16.819 71.3784 13.406 70.0566 12.6354 70.8776C11.8984 71.6628 15.6143 77.1949 16.9189 78.4179Z" fill="#F9E89D" stroke="#B29206" stroke-width="1.05164"/>
  <path d="M47.5758 71.7097L43.4251 74.2143C39.9204 75.6185 32.1128 77.5898 28.8489 77.2145C24.7689 76.7455 18.857 75.117 12.9982 71.2584" stroke="#B29206" stroke-width="1.05164"/>
  <path d="M13.5072 68.4048L14.6705 76.3711L11.6592 75.6485L12.4522 69.14L13.5072 68.4048Z" fill="#B29206" stroke="#B29206" stroke-width="1.15011"/>
  <path d="M43.6126 99.4592L43.2803 97.1831L42.8774 98.4042L43.6126 99.4592Z" stroke="#6E2A0D" stroke-width="1.15011"/>
  <path d="M11.1986 84.4328C13.2469 94.4827 28.827 102.199 39.7127 100.61L43.0181 99.3222L42.7177 97.265C42.7177 97.265 40.1924 95.8903 38.3191 95.0016C36.4459 94.1128 29.8268 93.0267 25.3726 89.9182C21.5405 87.2437 19.1712 83.2687 17.7008 81.1588C15.5613 78.0887 13.352 74.7509 12.1452 74.9961C10.9911 75.2306 10.808 82.5166 11.1986 84.4328Z" fill="#F9E89D" stroke="#B29206" stroke-width="1.15011"/>
  <path d="M42.7944 97.8352L37.507 97.4449C33.492 96.4815 25.2791 93.3027 22.6041 90.9038C19.2605 87.9051 15.0155 82.7134 12.2282 75.5654" stroke="#B29206" stroke-width="1.15011"/>
  <path d="M11.3563 65.5662L15.4504 72.7254L12.3087 73.1648L10.626 66.6624L11.3563 65.5662Z" fill="#B29206" stroke="#B29206" stroke-width="1.17817"/>
  <path d="M51.6953 83.8927L50.5255 81.8472L50.599 83.1623L51.6953 83.8927Z" stroke="#6E2A0D" stroke-width="1.17817"/>
  <path d="M15.1612 81.7125C20.8798 90.5265 38.6254 92.0454 48.4081 86.451L51.0771 83.9849L50.0199 82.1362C50.0199 82.1362 47.0971 81.7719 44.9781 81.6264C42.8591 81.481 36.1416 82.9258 30.7301 81.6311C26.0744 80.5172 22.3261 77.6152 20.1336 76.1546C16.9434 74.0292 13.5863 71.6749 12.5277 72.3608C11.5152 73.0169 14.0708 80.0319 15.1612 81.7125Z" fill="#F9E89D" stroke="#B29206" stroke-width="1.17817"/>
  <path d="M50.3065 82.6511L45.1193 84.2602C40.9303 84.8461 31.909 84.8929 28.4598 83.6081C24.1484 82.002 18.1558 78.6429 12.82 72.8724" stroke="#B29206" stroke-width="1.17817"/>
  <path fill-rule="evenodd" clip-rule="evenodd" d="M22.0001 62.3994C16.125 67.6347 12.2118 75.5498 16.4885 86.0885C17.7964 89.3115 22.5577 86.6007 20.8186 83.5885C20.1643 82.4552 17.7405 75.6703 22.0001 68.9152V62.3994Z" fill="#202630"/>
  <path d="M16.4885 86.0885L15.6827 86.4154L15.6827 86.4154L16.4885 86.0885ZM22.0001 62.3994H22.8696V60.4598L21.4215 61.7502L22.0001 62.3994ZM20.8186 83.5885L20.0655 84.0232L20.0655 84.0232L20.8186 83.5885ZM22.0001 68.9152L22.7356 69.379L22.8696 69.1664V68.9152H22.0001ZM17.2942 85.7615C15.2236 80.659 15.1539 76.2487 16.2707 72.5037C17.3915 68.7453 19.7285 65.5883 22.5786 63.0486L21.4215 61.7502C18.3966 64.4458 15.8395 67.8641 14.6041 72.0067C13.3647 76.1627 13.4767 80.9792 15.6827 86.4154L17.2942 85.7615ZM20.0655 84.0232C20.3749 84.559 20.3761 85.0285 20.24 85.4128C20.0956 85.8203 19.7748 86.1867 19.3638 86.4222C18.9504 86.6591 18.5173 86.7245 18.1739 86.6379C17.8646 86.56 17.5271 86.3355 17.2942 85.7615L15.6827 86.4154C16.1037 87.4529 16.8519 88.0982 17.7488 88.3243C18.6117 88.5418 19.5055 88.3456 20.2286 87.9311C20.954 87.5153 21.5792 86.8407 21.8793 85.9935C22.1877 85.123 22.1319 84.124 21.5717 83.1537L20.0655 84.0232ZM21.2645 68.4514C19.0191 72.0123 18.535 75.586 18.6985 78.4103C18.8604 81.2066 19.6606 83.322 20.0655 84.0232L21.5717 83.1537C21.3222 82.7217 20.5834 80.8779 20.4347 78.3098C20.2877 75.7694 20.7215 72.5732 22.7356 69.379L21.2645 68.4514ZM22.8696 68.9152V62.3994H21.1305V68.9152H22.8696Z" fill="#202630"/>
  </g>
  <defs>
  <clipPath id="clip0_2595_24434">
  <rect width="77" height="124" fill="white"/>
  </clipPath>
  </defs>
</svg>