<svg viewBox="0 0 77 124" fill="none" xmlns="http://www.w3.org/2000/svg">
<path d="M76.0012 78.404C74.001 64.0127 62.436 60.0127 52.8708 60.0127L52.8708 64.0127C68.5229 64.3869 70.7838 76.6409 70.7838 78.404C70.7838 81.8823 76.48 81.8491 76.0012 78.404Z" fill="#202630" stroke="#202630" stroke-width="1.73913"/>
<path d="M1.00084 78.404C3.00098 64.0127 14.4357 60.0127 24.0009 60.0127L24.0009 64.0127C8.34873 64.3869 6.00084 76.6409 6.00084 78.404C6.00084 81.8823 0.522027 81.8491 1.00084 78.404Z" fill="#202630" stroke="#202630" stroke-width="1.73913"/>
<rect x="25" y="98" width="7" height="21" fill="#202630"/>
<rect x="45" y="98" width="7" height="21" fill="#202630"/>
<rect x="30" y="45" width="17" height="5" fill="#202630"/>
<path d="M18 60C18 54.4772 22.4772 50 28 50H49C54.5228 50 59 54.4772 59 60V89C59 94.5228 54.5228 99 49 99H28C22.4772 99 18 94.5228 18 89V60Z" fill="#949494"/>
<rect x="50.97" y="66.8552" width="1.96678" height="2.8339" rx="0.462772" fill="#202630" stroke="#202630" stroke-width="0.115693"/>
<rect x="50.97" y="63.4045" width="1.96678" height="2.8339" rx="0.462772" fill="#202630" stroke="#202630" stroke-width="0.115693"/>
<rect x="48.3883" y="66.8552" width="1.96678" height="2.8339" rx="0.462772" fill="#202630" stroke="#202630" stroke-width="0.115693"/>
<rect x="48.3883" y="63.4045" width="1.96678" height="2.8339" rx="0.462772" fill="#202630" stroke="#202630" stroke-width="0.115693"/>
<rect x="45.8075" y="66.8552" width="1.96678" height="2.8339" rx="0.462772" fill="#202630" stroke="#202630" stroke-width="0.115693"/>
<rect x="45.8075" y="63.4045" width="1.96678" height="2.8339" rx="0.462772" fill="#202630" stroke="#202630" stroke-width="0.115693"/>
<rect x="43.2255" y="66.8552" width="1.96678" height="2.8339" rx="0.462772" fill="#202630" stroke="#202630" stroke-width="0.115693"/>
<rect x="43.2255" y="63.4045" width="1.96678" height="2.8339" rx="0.462772" fill="#202630" stroke="#202630" stroke-width="0.115693"/>
<rect x="40.6438" y="66.8552" width="1.96678" height="2.8339" rx="0.462772" fill="#202630" stroke="#202630" stroke-width="0.115693"/>
<rect x="40.6438" y="63.4045" width="1.96678" height="2.8339" rx="0.462772" fill="#202630" stroke="#202630" stroke-width="0.115693"/>
<rect x="41.9958" y="70.3042" width="1.96678" height="2.8339" rx="0.462772" fill="#202630" stroke="#202630" stroke-width="0.115693"/>
<rect x="39.4149" y="70.3042" width="1.96678" height="2.8339" rx="0.462772" fill="#202630" stroke="#202630" stroke-width="0.115693"/>
<rect x="37.325" y="63.4045" width="2.45848" height="6.28387" rx="0.462772" fill="#202630" stroke="#202630" stroke-width="0.115693"/>
<rect x="35.7264" y="70.3042" width="1.96678" height="2.8339" rx="0.462772" fill="#202630" stroke="#202630" stroke-width="0.115693"/>
<rect x="33.146" y="70.3042" width="1.96678" height="2.8339" rx="0.462772" fill="#202630" stroke="#202630" stroke-width="0.115693"/>
<rect x="34.4985" y="66.8552" width="1.96678" height="2.8339" rx="0.462772" fill="#202630" stroke="#202630" stroke-width="0.115693"/>
<rect x="34.4985" y="63.4045" width="1.96678" height="2.8339" rx="0.462772" fill="#202630" stroke="#202630" stroke-width="0.115693"/>
<rect x="31.9164" y="66.8552" width="1.96678" height="2.8339" rx="0.462772" fill="#202630" stroke="#202630" stroke-width="0.115693"/>
<rect x="31.9164" y="63.4045" width="1.96678" height="2.8339" rx="0.462772" fill="#202630" stroke="#202630" stroke-width="0.115693"/>
<rect x="29.3356" y="66.8552" width="1.96678" height="2.8339" rx="0.462772" fill="#202630" stroke="#202630" stroke-width="0.115693"/>
<rect x="29.3356" y="63.4045" width="1.96678" height="2.8339" rx="0.462772" fill="#202630" stroke="#202630" stroke-width="0.115693"/>
<rect x="26.7535" y="66.8552" width="1.96678" height="2.8339" rx="0.462772" fill="#202630" stroke="#202630" stroke-width="0.115693"/>
<rect x="26.7535" y="63.4045" width="1.96678" height="2.8339" rx="0.462772" fill="#202630" stroke="#202630" stroke-width="0.115693"/>
<rect x="26.7534" y="60.9414" width="26.1828" height="1.8482" rx="0.462772" fill="#202630" stroke="#202630" stroke-width="0.115693"/>
<path d="M47 4.48695C40.2243 2.53439 37 9.51792 37 13.9999H40C39.5282 6.74529 44.8491 5.7889 47 7.33062V4.48695Z" fill="#202630" stroke="#202630"/>
<circle cx="49" cy="7" r="4" fill="#202630"/>
<circle cx="50.5" cy="5.5" r="1.5" fill="white"/>
<path d="M28.5 113C23.8056 113 19.9999 118.5 20 121.5C20.0001 124.5 37 124.5 37 121.5C37 118.5 33.1944 113 28.5 113Z" fill="#202630"/>
<path d="M48.5 113C43.8056 113 39.9999 118.5 40 121.5C40.0001 124.5 57 124.5 57 121.5C57 118.5 53.1944 113 48.5 113Z" fill="#202630"/>
<path d="M62 33C64.2091 33 66 31.2091 66 29C66 26.7909 64.2091 25 62 25V33Z" fill="#202630"/>
<path d="M11 29C11 31.2091 12.7909 33 15 33V25C12.7909 25 11 26.7909 11 29Z" fill="#202630"/>
<path d="M14 25.0954C14 18.9676 18.9676 14 25.0954 14H51.9046C58.0324 14 63 18.9676 63 25.0954V33C63 39.6274 57.6274 45 51 45H26C19.3726 45 14 39.6274 14 33V25.0954Z" fill="#949494"/>
<path d="M20 25.224C20 22.3389 22.3389 20 25.224 20H51.776C54.6611 20 57 22.3389 57 25.224V31C57 35.4183 53.4183 39 49 39H28C23.5817 39 20 35.4183 20 31V25.224Z" fill="white"/>
<path d="M41.9646 32.4173L35.9646 32.4173C35.4123 32.4173 34.9644 32.8651 34.9644 33.4173C34.9643 33.6888 34.9644 33.9355 34.9647 34.0473C34.9688 35.8694 37.0263 36 38.9646 36C40.9029 36 42.9646 35.9416 42.9646 34.0473L42.9646 33.4173C42.9646 32.8651 42.5168 32.4173 41.9646 32.4173Z" fill="#202630"/>
<circle cx="30" cy="28" r="3" fill="#202630"/>
<circle cx="47" cy="28" r="3" fill="#202630"/>
</svg>
