<svg width="96" height="124" viewBox="0 0 96 124" fill="none" xmlns="http://www.w3.org/2000/svg">
<path d="M85.9148 78.404C83.9145 64.0127 72.3496 60.0127 62.7843 60.0127L62.7843 64.0127C78.4365 64.3869 80.6974 76.6409 80.6974 78.404C80.6974 81.8823 86.3936 81.8491 85.9148 78.404Z" fill="#202630" stroke="#202630" stroke-width="1.73913"/>
<path d="M10.9144 78.404C12.9145 64.0127 24.3493 60.0127 33.9145 60.0127L33.9145 64.0127C18.2623 64.3869 15.9144 76.6409 15.9144 78.404C15.9144 81.8823 10.4356 81.8491 10.9144 78.404Z" fill="#202630" stroke="#202630" stroke-width="1.73913"/>
<rect x="34.9136" y="98" width="7" height="21" fill="#202630"/>
<rect x="54.9136" y="98" width="7" height="21" fill="#202630"/>
<rect x="39.9136" y="45" width="17" height="5" fill="#202630"/>
<path d="M27.9136 60C27.9136 54.4772 32.3907 50 37.9136 50H58.9136C64.4364 50 68.9136 54.4772 68.9136 60V89C68.9136 94.5228 64.4364 99 58.9136 99H37.9136C32.3907 99 27.9136 94.5228 27.9136 89V60Z" fill="#949494"/>
<rect x="60.8833" y="66.8555" width="1.96678" height="2.8339" rx="0.462772" fill="#202630" stroke="#202630" stroke-width="0.115693"/>
<rect x="60.8833" y="63.4043" width="1.96678" height="2.8339" rx="0.462772" fill="#202630" stroke="#202630" stroke-width="0.115693"/>
<rect x="58.3018" y="66.8555" width="1.96678" height="2.8339" rx="0.462772" fill="#202630" stroke="#202630" stroke-width="0.115693"/>
<rect x="58.3018" y="63.4043" width="1.96678" height="2.8339" rx="0.462772" fill="#202630" stroke="#202630" stroke-width="0.115693"/>
<rect x="55.7212" y="66.8555" width="1.96678" height="2.8339" rx="0.462772" fill="#202630" stroke="#202630" stroke-width="0.115693"/>
<rect x="55.7212" y="63.4043" width="1.96678" height="2.8339" rx="0.462772" fill="#202630" stroke="#202630" stroke-width="0.115693"/>
<rect x="53.1392" y="66.8555" width="1.96678" height="2.8339" rx="0.462772" fill="#202630" stroke="#202630" stroke-width="0.115693"/>
<rect x="53.1392" y="63.4043" width="1.96678" height="2.8339" rx="0.462772" fill="#202630" stroke="#202630" stroke-width="0.115693"/>
<rect x="50.5571" y="66.8555" width="1.96678" height="2.8339" rx="0.462772" fill="#202630" stroke="#202630" stroke-width="0.115693"/>
<rect x="50.5571" y="63.4043" width="1.96678" height="2.8339" rx="0.462772" fill="#202630" stroke="#202630" stroke-width="0.115693"/>
<rect x="51.9092" y="70.3037" width="1.96678" height="2.8339" rx="0.462772" fill="#202630" stroke="#202630" stroke-width="0.115693"/>
<rect x="49.3286" y="70.3037" width="1.96678" height="2.8339" rx="0.462772" fill="#202630" stroke="#202630" stroke-width="0.115693"/>
<rect x="47.2383" y="63.4043" width="2.45848" height="6.28387" rx="0.462772" fill="#202630" stroke="#202630" stroke-width="0.115693"/>
<rect x="45.6401" y="70.3037" width="1.96678" height="2.8339" rx="0.462772" fill="#202630" stroke="#202630" stroke-width="0.115693"/>
<rect x="43.0596" y="70.3037" width="1.96678" height="2.8339" rx="0.462772" fill="#202630" stroke="#202630" stroke-width="0.115693"/>
<rect x="44.4121" y="66.8555" width="1.96678" height="2.8339" rx="0.462772" fill="#202630" stroke="#202630" stroke-width="0.115693"/>
<rect x="44.4121" y="63.4043" width="1.96678" height="2.8339" rx="0.462772" fill="#202630" stroke="#202630" stroke-width="0.115693"/>
<rect x="41.8301" y="66.8555" width="1.96678" height="2.8339" rx="0.462772" fill="#202630" stroke="#202630" stroke-width="0.115693"/>
<rect x="41.8301" y="63.4043" width="1.96678" height="2.8339" rx="0.462772" fill="#202630" stroke="#202630" stroke-width="0.115693"/>
<rect x="39.249" y="66.8555" width="1.96678" height="2.8339" rx="0.462772" fill="#202630" stroke="#202630" stroke-width="0.115693"/>
<rect x="39.249" y="63.4043" width="1.96678" height="2.8339" rx="0.462772" fill="#202630" stroke="#202630" stroke-width="0.115693"/>
<rect x="36.667" y="66.8555" width="1.96678" height="2.8339" rx="0.462772" fill="#202630" stroke="#202630" stroke-width="0.115693"/>
<rect x="36.667" y="63.4043" width="1.96678" height="2.8339" rx="0.462772" fill="#202630" stroke="#202630" stroke-width="0.115693"/>
<rect x="36.667" y="60.9414" width="26.1828" height="1.8482" rx="0.462772" fill="#202630" stroke="#202630" stroke-width="0.115693"/>
<path d="M56.9136 4.4872C50.1378 2.53463 46.9136 9.51817 46.9136 14.0002H49.9136C49.4418 6.74554 54.7627 5.78914 56.9136 7.33087V4.4872Z" fill="#202630" stroke="#202630"/>
<circle cx="58.9136" cy="7" r="4" fill="#202630"/>
<circle cx="60.4136" cy="5.5" r="1.5" fill="white"/>
<path d="M38.4136 113C33.7192 113 29.9134 118.5 29.9136 121.5C29.9137 124.5 46.9136 124.5 46.9136 121.5C46.9136 118.5 43.108 113 38.4136 113Z" fill="#202630"/>
<path d="M58.4136 113C53.7192 113 49.9134 118.5 49.9136 121.5C49.9137 124.5 66.9136 124.5 66.9136 121.5C66.9136 118.5 63.108 113 58.4136 113Z" fill="#202630"/>
<path d="M71.9136 33C74.1227 33 75.9136 31.2091 75.9136 29C75.9136 26.7909 74.1227 25 71.9136 25V33Z" fill="#202630"/>
<path d="M20.9136 29C20.9136 31.2091 22.7044 33 24.9136 33V25C22.7044 25 20.9136 26.7909 20.9136 29Z" fill="#202630"/>
<path d="M23.9136 25.0954C23.9136 18.9676 28.8812 14 35.009 14H61.8182C67.946 14 72.9136 18.9676 72.9136 25.0954V25.0954V33C72.9136 39.6274 67.541 45 60.9136 45H35.9136C29.2862 45 23.9136 39.6274 23.9136 33V25.0954V25.0954Z" fill="#949494"/>
<path d="M29.9136 25.224C29.9136 22.3389 32.2525 20 35.1376 20H61.6895C64.5747 20 66.9136 22.3389 66.9136 25.224V25.224V31C66.9136 35.4183 63.3319 39 58.9136 39H37.9136C33.4953 39 29.9136 35.4183 29.9136 31V25.224V25.224Z" fill="white"/>
<path d="M51.8781 32.4173L45.8781 32.4173C45.3258 32.4173 44.878 32.8651 44.8779 33.4173C44.8779 33.6888 44.878 33.9355 44.8782 34.0473C44.8824 35.8694 46.9398 36 48.8781 36C50.8164 36 52.8781 35.9416 52.8781 34.0473L52.8781 33.4173C52.8781 32.8651 52.4304 32.4173 51.8781 32.4173Z" fill="#202630"/>
<circle cx="39.9136" cy="28" r="3" fill="#202630"/>
<circle cx="56.9136" cy="28" r="3" fill="#202630"/>
</svg>
