<svg width="95" height="124" viewBox="0 0 95 124" fill="none" xmlns="http://www.w3.org/2000/svg">
<path d="M85.0012 78.404C83.001 64.0127 71.436 60.0127 61.8708 60.0127L61.8708 64.0127C77.5229 64.3869 79.7838 76.6409 79.7838 78.404C79.7838 81.8823 85.48 81.8491 85.0012 78.404Z" fill="#202630" stroke="#202630" stroke-width="1.73913"/>
<path d="M10.0008 78.404C12.001 64.0127 23.4357 60.0127 33.0009 60.0127L33.0009 64.0127C17.3487 64.3869 15.0008 76.6409 15.0008 78.404C15.0008 81.8823 9.52203 81.8491 10.0008 78.404Z" fill="#202630" stroke="#202630" stroke-width="1.73913"/>
<rect x="34" y="98" width="7" height="21" fill="#202630"/>
<rect x="54" y="98" width="7" height="21" fill="#202630"/>
<rect x="39" y="45" width="17" height="5" fill="#202630"/>
<path d="M27 60C27 54.4772 31.4772 50 37 50H58C63.5228 50 68 54.4772 68 60V89C68 94.5228 63.5228 99 58 99H37C31.4772 99 27 94.5228 27 89V60Z" fill="#949494"/>
<rect x="59.97" y="66.8552" width="1.96678" height="2.8339" rx="0.462772" fill="#202630" stroke="#202630" stroke-width="0.115693"/>
<rect x="59.97" y="63.4045" width="1.96678" height="2.8339" rx="0.462772" fill="#202630" stroke="#202630" stroke-width="0.115693"/>
<rect x="57.3883" y="66.8552" width="1.96678" height="2.8339" rx="0.462772" fill="#202630" stroke="#202630" stroke-width="0.115693"/>
<rect x="57.3883" y="63.4045" width="1.96678" height="2.8339" rx="0.462772" fill="#202630" stroke="#202630" stroke-width="0.115693"/>
<rect x="54.8075" y="66.8552" width="1.96678" height="2.8339" rx="0.462772" fill="#202630" stroke="#202630" stroke-width="0.115693"/>
<rect x="54.8075" y="63.4045" width="1.96678" height="2.8339" rx="0.462772" fill="#202630" stroke="#202630" stroke-width="0.115693"/>
<rect x="52.2255" y="66.8552" width="1.96678" height="2.8339" rx="0.462772" fill="#202630" stroke="#202630" stroke-width="0.115693"/>
<rect x="52.2255" y="63.4045" width="1.96678" height="2.8339" rx="0.462772" fill="#202630" stroke="#202630" stroke-width="0.115693"/>
<rect x="49.6438" y="66.8552" width="1.96678" height="2.8339" rx="0.462772" fill="#202630" stroke="#202630" stroke-width="0.115693"/>
<rect x="49.6438" y="63.4045" width="1.96678" height="2.8339" rx="0.462772" fill="#202630" stroke="#202630" stroke-width="0.115693"/>
<rect x="50.9958" y="70.3042" width="1.96678" height="2.8339" rx="0.462772" fill="#202630" stroke="#202630" stroke-width="0.115693"/>
<rect x="48.4149" y="70.3042" width="1.96678" height="2.8339" rx="0.462772" fill="#202630" stroke="#202630" stroke-width="0.115693"/>
<rect x="46.325" y="63.4045" width="2.45848" height="6.28387" rx="0.462772" fill="#202630" stroke="#202630" stroke-width="0.115693"/>
<rect x="44.7264" y="70.3042" width="1.96678" height="2.8339" rx="0.462772" fill="#202630" stroke="#202630" stroke-width="0.115693"/>
<rect x="42.146" y="70.3042" width="1.96678" height="2.8339" rx="0.462772" fill="#202630" stroke="#202630" stroke-width="0.115693"/>
<rect x="43.4985" y="66.8552" width="1.96678" height="2.8339" rx="0.462772" fill="#202630" stroke="#202630" stroke-width="0.115693"/>
<rect x="43.4985" y="63.4045" width="1.96678" height="2.8339" rx="0.462772" fill="#202630" stroke="#202630" stroke-width="0.115693"/>
<rect x="40.9164" y="66.8552" width="1.96678" height="2.8339" rx="0.462772" fill="#202630" stroke="#202630" stroke-width="0.115693"/>
<rect x="40.9164" y="63.4045" width="1.96678" height="2.8339" rx="0.462772" fill="#202630" stroke="#202630" stroke-width="0.115693"/>
<rect x="38.3356" y="66.8552" width="1.96678" height="2.8339" rx="0.462772" fill="#202630" stroke="#202630" stroke-width="0.115693"/>
<rect x="38.3356" y="63.4045" width="1.96678" height="2.8339" rx="0.462772" fill="#202630" stroke="#202630" stroke-width="0.115693"/>
<rect x="35.7535" y="66.8552" width="1.96678" height="2.8339" rx="0.462772" fill="#202630" stroke="#202630" stroke-width="0.115693"/>
<rect x="35.7535" y="63.4045" width="1.96678" height="2.8339" rx="0.462772" fill="#202630" stroke="#202630" stroke-width="0.115693"/>
<rect x="35.7534" y="60.9414" width="26.1828" height="1.8482" rx="0.462772" fill="#202630" stroke="#202630" stroke-width="0.115693"/>
<path d="M56 4.48695C49.2243 2.53439 46 9.51792 46 13.9999H49C48.5282 6.74529 53.8491 5.7889 56 7.33062V4.48695Z" fill="#202630" stroke="#202630"/>
<circle cx="58" cy="7" r="4" fill="#202630"/>
<circle cx="59.5" cy="5.5" r="1.5" fill="white"/>
<path d="M37.5 113C32.8056 113 28.9999 118.5 29 121.5C29.0001 124.5 46 124.5 46 121.5C46 118.5 42.1944 113 37.5 113Z" fill="#202630"/>
<path d="M57.5 113C52.8056 113 48.9999 118.5 49 121.5C49.0001 124.5 66 124.5 66 121.5C66 118.5 62.1944 113 57.5 113Z" fill="#202630"/>
<path d="M71 33C73.2091 33 75 31.2091 75 29C75 26.7909 73.2091 25 71 25V33Z" fill="#202630"/>
<path d="M20 29C20 31.2091 21.7909 33 24 33V25C21.7909 25 20 26.7909 20 29Z" fill="#202630"/>
<path d="M23 25.0954C23 18.9676 27.9676 14 34.0954 14H60.9046C67.0324 14 72 18.9676 72 25.0954V33C72 39.6274 66.6274 45 60 45H35C28.3726 45 23 39.6274 23 33V25.0954Z" fill="#949494"/>
<path d="M29 25.224C29 22.3389 31.3389 20 34.224 20H60.776C63.6611 20 66 22.3389 66 25.224V31C66 35.4183 62.4183 39 58 39H37C32.5817 39 29 35.4183 29 31V25.224Z" fill="white"/>
<path d="M50.9646 32.4173L44.9646 32.4173C44.4123 32.4173 43.9644 32.8651 43.9644 33.4173C43.9643 33.6888 43.9644 33.9355 43.9647 34.0473C43.9688 35.8694 46.0263 36 47.9646 36C49.9029 36 51.9646 35.9416 51.9646 34.0473L51.9646 33.4173C51.9646 32.8651 51.5168 32.4173 50.9646 32.4173Z" fill="#202630"/>
<circle cx="39" cy="28" r="3" fill="#202630"/>
<circle cx="56" cy="28" r="3" fill="#202630"/>
</svg>
