<svg viewBox="0 0 77 124" fill="none" xmlns="http://www.w3.org/2000/svg">
  <title id="thinking-robot-title">Composing robot</title>
  <path d="M67 50.6087C64.9999 65 53.5652 69 44 69L44 65C59.6521 64.6258 62 52.3718 62 50.6087 62 47.1304 67.4788 47.1635 67 50.6087ZM3.48842 91.0885C-1.97507 77.6252 5.92768 68.4438 14.2114 63.6612L16.2114 67.1253C2.84331 75.2754 6.93699 87.0616 7.81855 88.5885 9.55768 91.6008 4.79633 94.3115 3.48842 91.0885Z" fill="#202630" stroke="#202630" stroke-width="1.73913"/>
  <path fill="#202630" d="M14 97H21V119H14zM32 97H39V119H32zM19 51H36V56H19z"/>
  <path d="M10 64C10 58.4772 14.4772 54 20 54H35C40.5228 54 45 58.4772 45 64V89C45 94.5228 40.5228 99 35 99H20C14.4772 99 10 94.5228 10 89V64Z" fill="#9880C2"/>
  <rect x="38.97" y="66.8552" width="1.96678" height="2.8339" rx=".462772" fill="#202630" stroke="#202630" stroke-width=".115693"/>
  <rect x="38.97" y="63.4045" width="1.96678" height="2.8339" rx=".462772" fill="#202630" stroke="#202630" stroke-width=".115693"/>
  <rect x="36.3883" y="66.8552" width="1.96678" height="2.8339" rx=".462772" fill="#202630" stroke="#202630" stroke-width=".115693"/>
  <rect x="36.3883" y="63.4045" width="1.96678" height="2.8339" rx=".462772" fill="#202630" stroke="#202630" stroke-width=".115693"/>
  <rect x="33.8075" y="66.8552" width="1.96678" height="2.8339" rx=".462772" fill="#202630" stroke="#202630" stroke-width=".115693"/>
  <rect x="33.8075" y="63.4045" width="1.96678" height="2.8339" rx=".462772" fill="#202630" stroke="#202630" stroke-width=".115693"/>
  <rect x="31.2255" y="66.8552" width="1.96678" height="2.8339" rx=".462772" fill="#202630" stroke="#202630" stroke-width=".115693"/>
  <rect x="31.2255" y="63.4045" width="1.96678" height="2.8339" rx=".462772" fill="#202630" stroke="#202630" stroke-width=".115693"/>
  <rect x="28.6438" y="66.8552" width="1.96678" height="2.8339" rx=".462772" fill="#202630" stroke="#202630" stroke-width=".115693"/>
  <rect x="28.6438" y="63.4045" width="1.96678" height="2.8339" rx=".462772" fill="#202630" stroke="#202630" stroke-width=".115693"/>
  <rect x="29.9958" y="70.3042" width="1.96678" height="2.8339" rx=".462772" fill="#202630" stroke="#202630" stroke-width=".115693"/>
  <rect x="27.4149" y="70.3042" width="1.96678" height="2.8339" rx=".462772" fill="#202630" stroke="#202630" stroke-width=".115693"/>
  <rect x="25.325" y="63.4045" width="2.45848" height="6.28387" rx=".462772" fill="#202630" stroke="#202630" stroke-width=".115693"/>
  <rect x="23.7264" y="70.3042" width="1.96678" height="2.8339" rx=".462772" fill="#202630" stroke="#202630" stroke-width=".115693"/>
  <rect x="21.146" y="70.3042" width="1.96678" height="2.8339" rx=".462772" fill="#202630" stroke="#202630" stroke-width=".115693"/>
  <rect x="22.4985" y="66.8552" width="1.96678" height="2.8339" rx=".462772" fill="#202630" stroke="#202630" stroke-width=".115693"/>
  <rect x="22.4985" y="63.4045" width="1.96678" height="2.8339" rx=".462772" fill="#202630" stroke="#202630" stroke-width=".115693"/>
  <rect x="19.9164" y="66.8552" width="1.96678" height="2.8339" rx=".462772" fill="#202630" stroke="#202630" stroke-width=".115693"/>
  <rect x="19.9164" y="63.4045" width="1.96678" height="2.8339" rx=".462772" fill="#202630" stroke="#202630" stroke-width=".115693"/>
  <rect x="17.3356" y="66.8552" width="1.96678" height="2.8339" rx=".462772" fill="#202630" stroke="#202630" stroke-width=".115693"/>
  <rect x="17.3356" y="63.4045" width="1.96678" height="2.8339" rx=".462772" fill="#202630" stroke="#202630" stroke-width=".115693"/>
  <rect x="14.7535" y="66.8552" width="1.96678" height="2.8339" rx=".462772" fill="#202630" stroke="#202630" stroke-width=".115693"/>
  <rect x="14.7535" y="63.4045" width="1.96678" height="2.8339" rx=".462772" fill="#202630" stroke="#202630" stroke-width=".115693"/>
  <rect x="14.7534" y="60.9414" width="26.1828" height="1.8482" rx=".462772" fill="#202630" stroke="#202630" stroke-width=".115693"/>
  <path d="M20 10.487C26.7757 8.53439 30 15.5179 30 19.9999H27C27.4718 12.7453 22.1509 11.7889 20 13.3306V10.487Z" fill="#202630" stroke="#202630"/>
  <circle cx="4" cy="4" r="4" transform="matrix(-1 0 0 1 22 9)" fill="#202630"/>
  <circle cx="1.5" cy="1.5" r="1.5" transform="matrix(-1 0 0 1 19 10)" fill="#fff"/>
  <path d="M17.5 113C12.8056 113 8.99987 118.5 9 121.5 9.00013 124.5 26 124.5 26 121.5 26 118.5 22.1944 113 17.5 113ZM35.5 113C30.8056 113 26.9999 118.5 27 121.5 27.0001 124.5 44 124.5 44 121.5 44 118.5 40.1944 113 35.5 113ZM49 39C51.2091 39 53 37.2091 53 35 53 32.7909 51.2091 31 49 31V39ZM2 35C2 37.2091 3.79086 39 6 39V31C3.79086 31 2 32.7909 2 35Z" fill="#202630"/>
  <path d="M5 31.0954C5 24.9676 9.96758 20 16.0954 20H38.9046C45.0324 20 50 24.9676 50 31.0954V31.0954V39C50 45.6274 44.6274 51 38 51H17C10.3726 51 5 45.6274 5 39V31.0954V31.0954Z" fill="#9880C2"/>
  <path d="M11 31.224C11 28.3389 13.3389 26 16.224 26H38.776C41.6611 26 44 28.3389 44 31.224V31.224V37C44 41.4183 40.4183 45 36 45H19C14.5817 45 11 41.4183 11 37V31.224V31.224Z" fill="#fff"/>
  <path d="M31.1923 39L24.7434 39C24.3132 39 23.9638 39.3488 23.9647 39.779C23.9689 41.6012 26.0261 43 27.9644 43C29.9027 43 31.9644 41.6665 31.9644 39.7721C31.9644 39.3457 31.6187 39 31.1923 39Z" fill="#202630"/>
  <circle cx="19" cy="34" r="3" fill="#202630"/>
  <circle cx="36" cy="34" r="3" fill="#202630"/>
  <path d="M76 52H47V102H76V52Z" fill="#fff" stroke="#504C57"/>
  <path d="M53.3425 59L53.0335 56.9H53.3545L53.5195 58.151C53.5215 58.159 53.5235 58.173 53.5255 58.193C53.5295 58.213 53.5325 58.232 53.5345 58.25C53.5365 58.266 53.5385 58.282 53.5405 58.298C53.5445 58.272 53.5545 58.222 53.5705 58.148L53.8225 56.9H54.0145L54.2695 58.142C54.2875 58.23 54.2975 58.279 54.2995 58.289C54.3015 58.269 54.3055 58.241 54.3115 58.205C54.3175 58.169 54.3205 58.149 54.3205 58.145L54.4645 56.9H54.8035L54.4915 59H54.2095L53.9425 57.716C53.9305 57.654 53.9215 57.603 53.9155 57.563C53.9135 57.581 53.9085 57.608 53.9005 57.644C53.8945 57.678 53.8905 57.701 53.8885 57.713L53.6245 59H53.3425ZM62.659 59.036C62.451 59.036 62.281 58.97 62.149 58.838C62.017 58.704 61.951 58.491 61.951 58.199V56.9H62.305V58.199C62.305 58.381 62.336 58.51 62.398 58.586C62.46 58.66 62.547 58.697 62.659 58.697C62.895 58.697 63.013 58.531 63.013 58.199V56.9H63.37V58.199C63.37 58.487 63.304 58.699 63.172 58.835C63.04 58.969 62.869 59.036 62.659 59.036ZM65.7089 59V56.9H66.4499C66.6919 56.9 66.8689 56.963 66.9809 57.089C67.0949 57.215 67.1519 57.369 67.1519 57.551C67.1519 57.723 67.0929 57.875 66.9749 58.007C66.8569 58.137 66.6819 58.202 66.4499 58.202H66.0659V59H65.7089ZM66.0659 57.866H66.4679C66.5759 57.866 66.6559 57.835 66.7079 57.773C66.7619 57.711 66.7889 57.637 66.7889 57.551C66.7889 57.469 66.7629 57.396 66.7109 57.332C66.6609 57.268 66.5799 57.236 66.4679 57.236H66.0659V57.866ZM66.9575 59V56.9H67.6655C67.9015 56.9 68.0725 56.954 68.1785 57.062C68.2845 57.168 68.3375 57.301 68.3375 57.461C68.3375 57.667 68.2465 57.811 68.0645 57.893C68.1765 57.931 68.2615 57.995 68.3195 58.085C68.3795 58.175 68.4095 58.275 68.4095 58.385C68.4095 58.553 68.3525 58.698 68.2385 58.82C68.1265 58.94 67.9505 59 67.7105 59H66.9575ZM67.3145 57.749H67.6175C67.7375 57.749 67.8275 57.726 67.8875 57.68C67.9495 57.632 67.9805 57.567 67.9805 57.485C67.9805 57.315 67.8785 57.23 67.6745 57.23H67.3145V57.749ZM67.3145 58.67H67.7345C67.8485 58.67 67.9295 58.643 67.9775 58.589C68.0275 58.533 68.0525 58.466 68.0525 58.388C68.0525 58.18 67.9175 58.076 67.6475 58.076H67.3145V58.67ZM72.672 59.036C72.502 59.036 72.349 58.987 72.213 58.889C72.077 58.791 71.981 58.66 71.925 58.496L72.249 58.376C72.295 58.474 72.358 58.553 72.438 58.613C72.52 58.671 72.608 58.7 72.702 58.7C72.794 58.7 72.868 58.676 72.924 58.628C72.98 58.58 73.008 58.511 73.008 58.421C73.008 58.345 72.97 58.278 72.894 58.22C72.818 58.16 72.712 58.1 72.576 58.04C72.49 58.002 72.421 57.969 72.369 57.941C72.317 57.913 72.258 57.874 72.192 57.824C72.128 57.774 72.08 57.715 72.048 57.647C72.016 57.579 72 57.503 72 57.419C72 57.263 72.059 57.132 72.177 57.026C72.297 56.918 72.454 56.864 72.648 56.864C72.802 56.864 72.936 56.906 73.05 56.99C73.166 57.074 73.243 57.181 73.281 57.311L72.96 57.419C72.888 57.273 72.777 57.2 72.627 57.2C72.549 57.2 72.485 57.22 72.435 57.26C72.385 57.3 72.36 57.355 72.36 57.425C72.36 57.441 72.362 57.457 72.366 57.473C72.37 57.487 72.377 57.501 72.387 57.515C72.397 57.527 72.406 57.539 72.414 57.551C72.424 57.561 72.438 57.573 72.456 57.587C72.476 57.599 72.492 57.609 72.504 57.617C72.518 57.625 72.538 57.636 72.564 57.65C72.59 57.662 72.61 57.671 72.624 57.677C72.638 57.683 72.661 57.694 72.693 57.71C72.725 57.724 72.748 57.734 72.762 57.74C72.846 57.778 72.916 57.814 72.972 57.848C73.028 57.88 73.09 57.923 73.158 57.977C73.226 58.031 73.278 58.095 73.314 58.169C73.35 58.243 73.368 58.324 73.368 58.412C73.368 58.604 73.3 58.756 73.164 58.868C73.03 58.98 72.866 59.036 72.672 59.036ZM51.9739 71V68.9H52.7149C52.9569 68.9 53.1339 68.963 53.2459 69.089C53.3599 69.215 53.4169 69.369 53.4169 69.551C53.4169 69.723 53.3579 69.875 53.2399 70.007C53.1219 70.137 52.9469 70.202 52.7149 70.202H52.3309V71H51.9739ZM52.3309 69.866H52.7329C52.8409 69.866 52.9209 69.835 52.9729 69.773C53.0269 69.711 53.0539 69.637 53.0539 69.551C53.0539 69.469 53.0279 69.396 52.9759 69.332C52.9259 69.268 52.8449 69.236 52.7329 69.236H52.3309V69.866ZM58.9131 71.036C58.7331 71.036 58.5811 70.984 58.4571 70.88C58.3351 70.774 58.2481 70.642 58.1961 70.484C58.1441 70.326 58.1181 70.148 58.1181 69.95C58.1181 69.752 58.1441 69.574 58.1961 69.416C58.2481 69.258 58.3351 69.127 58.4571 69.023C58.5811 68.917 58.7331 68.864 58.9131 68.864C59.0231 68.864 59.1231 68.884 59.2131 68.924C59.3031 68.962 59.3781 69.015 59.4381 69.083C59.5001 69.151 59.5511 69.232 59.5911 69.326C59.6331 69.418 59.6631 69.516 59.6811 69.62C59.7011 69.724 59.7111 69.834 59.7111 69.95C59.7111 70.066 59.7011 70.176 59.6811 70.28C59.6631 70.384 59.6331 70.483 59.5911 70.577C59.5511 70.669 59.5001 70.749 59.4381 70.817C59.3781 70.885 59.3031 70.939 59.2131 70.979C59.1231 71.017 59.0231 71.036 58.9131 71.036ZM58.9131 70.697C59.0071 70.697 59.0871 70.66 59.1531 70.586C59.2191 70.512 59.2661 70.421 59.2941 70.313C59.3241 70.203 59.3391 70.082 59.3391 69.95C59.3391 69.734 59.3031 69.556 59.2311 69.416C59.1611 69.274 59.0551 69.203 58.9131 69.203C58.7731 69.203 58.6671 69.276 58.5951 69.422C58.5231 69.566 58.4871 69.742 58.4871 69.95C58.4871 70.164 58.5221 70.342 58.5921 70.484C58.6641 70.626 58.7711 70.697 58.9131 70.697ZM65.7089 71V68.9H66.4499C66.6919 68.9 66.8689 68.963 66.9809 69.089C67.0949 69.215 67.1519 69.369 67.1519 69.551C67.1519 69.723 67.0929 69.875 66.9749 70.007C66.8569 70.137 66.6819 70.202 66.4499 70.202H66.0659V71H65.7089ZM66.0659 69.866H66.4679C66.5759 69.866 66.6559 69.835 66.7079 69.773C66.7619 69.711 66.7889 69.637 66.7889 69.551C66.7889 69.469 66.7629 69.396 66.7109 69.332C66.6609 69.268 66.5799 69.236 66.4679 69.236H66.0659V69.866ZM66.9575 71V68.9H67.6655C67.9015 68.9 68.0725 68.954 68.1785 69.062C68.2845 69.168 68.3375 69.301 68.3375 69.461C68.3375 69.667 68.2465 69.811 68.0645 69.893C68.1765 69.931 68.2615 69.995 68.3195 70.085C68.3795 70.175 68.4095 70.275 68.4095 70.385C68.4095 70.553 68.3525 70.698 68.2385 70.82C68.1265 70.94 67.9505 71 67.7105 71H66.9575ZM67.3145 69.749H67.6175C67.7375 69.749 67.8275 69.726 67.8875 69.68C67.9495 69.632 67.9805 69.567 67.9805 69.485C67.9805 69.315 67.8785 69.23 67.6745 69.23H67.3145V69.749ZM67.3145 70.67H67.7345C67.8485 70.67 67.9295 70.643 67.9775 70.589C68.0275 70.533 68.0525 70.466 68.0525 70.388C68.0525 70.18 67.9175 70.076 67.6475 70.076H67.3145V70.67ZM58.1354 83L57.9974 82.538H57.3314L57.1934 83H56.8094L57.4964 80.9H57.8324L58.5194 83H58.1354ZM57.4274 82.214H57.9014L57.7154 81.59C57.6954 81.526 57.6784 81.448 57.6644 81.356C57.6404 81.478 57.6234 81.556 57.6134 81.59L57.4274 82.214ZM60.7143 83V80.9H62.0613V81.239H61.0713V81.746H61.7163V82.085H61.0713V82.661H62.1243V83H60.7143ZM62.659 83.036C62.451 83.036 62.281 82.97 62.149 82.838C62.017 82.704 61.951 82.491 61.951 82.199V80.9H62.305V82.199C62.305 82.381 62.336 82.51 62.398 82.586C62.46 82.66 62.547 82.697 62.659 82.697C62.895 82.697 63.013 82.531 63.013 82.199V80.9H63.37V82.199C63.37 82.487 63.304 82.699 63.172 82.835C63.04 82.969 62.869 83.036 62.659 83.036ZM49.9926 95V93.242H49.3836V92.9H50.9616V93.242H50.3496V95H49.9926ZM58.1354 95L57.9974 94.538H57.3314L57.1934 95H56.8094L57.4964 92.9H57.8324L58.5194 95H58.1354ZM57.4274 94.214H57.9014L57.7154 93.59C57.6954 93.526 57.6784 93.448 57.6644 93.356C57.6404 93.478 57.6234 93.556 57.6134 93.59L57.4274 94.214ZM58.9131 95.036C58.7331 95.036 58.5811 94.984 58.4571 94.88C58.3351 94.774 58.2481 94.642 58.1961 94.484C58.1441 94.326 58.1181 94.148 58.1181 93.95C58.1181 93.752 58.1441 93.574 58.1961 93.416C58.2481 93.258 58.3351 93.127 58.4571 93.023C58.5811 92.917 58.7331 92.864 58.9131 92.864C59.0231 92.864 59.1231 92.884 59.2131 92.924C59.3031 92.962 59.3781 93.015 59.4381 93.083C59.5001 93.151 59.5511 93.232 59.5911 93.326C59.6331 93.418 59.6631 93.516 59.6811 93.62C59.7011 93.724 59.7111 93.834 59.7111 93.95C59.7111 94.066 59.7011 94.176 59.6811 94.28C59.6631 94.384 59.6331 94.483 59.5911 94.577C59.5511 94.669 59.5001 94.749 59.4381 94.817C59.3781 94.885 59.3031 94.939 59.2131 94.979C59.1231 95.017 59.0231 95.036 58.9131 95.036ZM58.9131 94.697C59.0071 94.697 59.0871 94.66 59.1531 94.586C59.2191 94.512 59.2661 94.421 59.2941 94.313C59.3241 94.203 59.3391 94.082 59.3391 93.95C59.3391 93.734 59.3031 93.556 59.2311 93.416C59.1611 93.274 59.0551 93.203 58.9131 93.203C58.7731 93.203 58.6671 93.276 58.5951 93.422C58.5231 93.566 58.4871 93.742 58.4871 93.95C58.4871 94.164 58.5221 94.342 58.5921 94.484C58.6641 94.626 58.7711 94.697 58.9131 94.697ZM60.7143 95V92.9H62.0613V93.239H61.0713V93.746H61.7163V94.085H61.0713V94.661H62.1243V95H60.7143ZM62.659 95.036C62.451 95.036 62.281 94.97 62.149 94.838C62.017 94.704 61.951 94.491 61.951 94.199V92.9H62.305V94.199C62.305 94.381 62.336 94.51 62.398 94.586C62.46 94.66 62.547 94.697 62.659 94.697C62.895 94.697 63.013 94.531 63.013 94.199V92.9H63.37V94.199C63.37 94.487 63.304 94.699 63.172 94.835C63.04 94.969 62.869 95.036 62.659 95.036ZM65.7089 95V92.9H66.4499C66.6919 92.9 66.8689 92.963 66.9809 93.089C67.0949 93.215 67.1519 93.369 67.1519 93.551C67.1519 93.723 67.0929 93.875 66.9749 94.007C66.8569 94.137 66.6819 94.202 66.4499 94.202H66.0659V95H65.7089ZM66.0659 93.866H66.4679C66.5759 93.866 66.6559 93.835 66.7079 93.773C66.7619 93.711 66.7889 93.637 66.7889 93.551C66.7889 93.469 66.7629 93.396 66.7109 93.332C66.6609 93.268 66.5799 93.236 66.4679 93.236H66.0659V93.866ZM68.2061 95V92.9H68.5631V94.658H69.5321V95H68.2061Z" fill="#353F50"/>
</svg>
