<svg viewBox="0 0 77 124" fill="none" xmlns="http://www.w3.org/2000/svg">
  <title id="composing-robot-title">Composing robot</title>
  <path d="M68 50.6087C65.9999 65 54.5652 69 45 69L45 65C60.6521 64.6258 63 52.3718 63 50.6087 63 47.1304 68.4788 47.1635 68 50.6087ZM4.48842 91.0885C-.975065 77.6252 6.92768 68.4438 15.2114 63.6612L17.2114 67.1253C3.84331 75.2754 7.93699 87.0616 8.81855 88.5885 10.5577 91.6008 5.79633 94.3115 4.48842 91.0885Z" fill="#202630" stroke="#202630" stroke-width="1.73913"/>
  <path fill="#202630" d="M15 97H22V119H15zM33 97H40V119H33zM20 51H37V56H20z"/>
  <path d="M11 64C11 58.4772 15.4772 54 21 54H36C41.5228 54 46 58.4772 46 64V89C46 94.5228 41.5228 99 36 99H21C15.4772 99 11 94.5228 11 89V64Z" fill="#9880C2"/>
  <rect x="39.97" y="66.8552" width="1.96678" height="2.8339" rx=".462772" fill="#202630" stroke="#202630" stroke-width=".115693"/>
  <rect x="39.97" y="63.4045" width="1.96678" height="2.8339" rx=".462772" fill="#202630" stroke="#202630" stroke-width=".115693"/>
  <rect x="37.3883" y="66.8552" width="1.96678" height="2.8339" rx=".462772" fill="#202630" stroke="#202630" stroke-width=".115693"/>
  <rect x="37.3883" y="63.4045" width="1.96678" height="2.8339" rx=".462772" fill="#202630" stroke="#202630" stroke-width=".115693"/>
  <rect x="34.8075" y="66.8552" width="1.96678" height="2.8339" rx=".462772" fill="#202630" stroke="#202630" stroke-width=".115693"/>
  <rect x="34.8075" y="63.4045" width="1.96678" height="2.8339" rx=".462772" fill="#202630" stroke="#202630" stroke-width=".115693"/>
  <rect x="32.2255" y="66.8552" width="1.96678" height="2.8339" rx=".462772" fill="#202630" stroke="#202630" stroke-width=".115693"/>
  <rect x="32.2255" y="63.4045" width="1.96678" height="2.8339" rx=".462772" fill="#202630" stroke="#202630" stroke-width=".115693"/>
  <rect x="29.6438" y="66.8552" width="1.96678" height="2.8339" rx=".462772" fill="#202630" stroke="#202630" stroke-width=".115693"/>
  <rect x="29.6438" y="63.4045" width="1.96678" height="2.8339" rx=".462772" fill="#202630" stroke="#202630" stroke-width=".115693"/>
  <rect x="30.9958" y="70.3042" width="1.96678" height="2.8339" rx=".462772" fill="#202630" stroke="#202630" stroke-width=".115693"/>
  <rect x="28.4149" y="70.3042" width="1.96678" height="2.8339" rx=".462772" fill="#202630" stroke="#202630" stroke-width=".115693"/>
  <rect x="26.325" y="63.4045" width="2.45848" height="6.28387" rx=".462772" fill="#202630" stroke="#202630" stroke-width=".115693"/>
  <rect x="24.7264" y="70.3042" width="1.96678" height="2.8339" rx=".462772" fill="#202630" stroke="#202630" stroke-width=".115693"/>
  <rect x="22.146" y="70.3042" width="1.96678" height="2.8339" rx=".462772" fill="#202630" stroke="#202630" stroke-width=".115693"/>
  <rect x="23.4985" y="66.8552" width="1.96678" height="2.8339" rx=".462772" fill="#202630" stroke="#202630" stroke-width=".115693"/>
  <rect x="23.4985" y="63.4045" width="1.96678" height="2.8339" rx=".462772" fill="#202630" stroke="#202630" stroke-width=".115693"/>
  <rect x="20.9164" y="66.8552" width="1.96678" height="2.8339" rx=".462772" fill="#202630" stroke="#202630" stroke-width=".115693"/>
  <rect x="20.9164" y="63.4045" width="1.96678" height="2.8339" rx=".462772" fill="#202630" stroke="#202630" stroke-width=".115693"/>
  <rect x="18.3356" y="66.8552" width="1.96678" height="2.8339" rx=".462772" fill="#202630" stroke="#202630" stroke-width=".115693"/>
  <rect x="18.3356" y="63.4045" width="1.96678" height="2.8339" rx=".462772" fill="#202630" stroke="#202630" stroke-width=".115693"/>
  <rect x="15.7535" y="66.8552" width="1.96678" height="2.8339" rx=".462772" fill="#202630" stroke="#202630" stroke-width=".115693"/>
  <rect x="15.7535" y="63.4045" width="1.96678" height="2.8339" rx=".462772" fill="#202630" stroke="#202630" stroke-width=".115693"/>
  <rect x="15.7534" y="60.9414" width="26.1828" height="1.8482" rx=".462772" fill="#202630" stroke="#202630" stroke-width=".115693"/>
  <path d="M21 10.487C27.7757 8.53439 31 15.5179 31 19.9999H28C28.4718 12.7453 23.1509 11.7889 21 13.3306V10.487Z" fill="#202630" stroke="#202630"/>
  <circle cx="4" cy="4" r="4" transform="matrix(-1 0 0 1 23 9)" fill="#202630"/>
  <circle cx="1.5" cy="1.5" r="1.5" transform="matrix(-1 0 0 1 20 10)" fill="#fff"/>
  <path d="M18.5 113C13.8056 113 9.99987 118.5 10 121.5 10.0001 124.5 27 124.5 27 121.5 27 118.5 23.1944 113 18.5 113ZM36.5 113C31.8056 113 27.9999 118.5 28 121.5 28.0001 124.5 45 124.5 45 121.5 45 118.5 41.1944 113 36.5 113ZM50 39C52.2091 39 54 37.2091 54 35 54 32.7909 52.2091 31 50 31V39ZM3 35C3 37.2091 4.79086 39 7 39V31C4.79086 31 3 32.7909 3 35Z" fill="#202630"/>
  <path d="M6 31.0954C6 24.9676 10.9676 20 17.0954 20H39.9046C46.0324 20 51 24.9676 51 31.0954V31.0954V39C51 45.6274 45.6274 51 39 51H18C11.3726 51 6 45.6274 6 39V31.0954V31.0954Z" fill="#9880C2"/>
  <path d="M12 31.224C12 28.3389 14.3389 26 17.224 26H39.776C42.6611 26 45 28.3389 45 31.224V31.224V37C45 41.4183 41.4183 45 37 45H20C15.5817 45 12 41.4183 12 37V31.224V31.224Z" fill="#fff"/>
  <path d="M32.1923 39L25.7434 39C25.3132 39 24.9638 39.3488 24.9647 39.779C24.9689 41.6012 27.0261 43 28.9644 43C30.9027 43 32.9644 41.6665 32.9644 39.7721C32.9644 39.3457 32.6187 39 32.1923 39Z" fill="#202630"/>
  <circle cx="20" cy="34" r="3" fill="#202630"/>
  <circle cx="37" cy="34" r="3" fill="#202630"/>
  <path d="M77 52H48V102H77V52Z" fill="#fff" stroke="#504C57"/>
  <path d="M54.3425 59L54.0335 56.9H54.3545L54.5195 58.151C54.5215 58.159 54.5235 58.173 54.5255 58.193C54.5295 58.213 54.5325 58.232 54.5345 58.25C54.5365 58.266 54.5385 58.282 54.5405 58.298C54.5445 58.272 54.5545 58.222 54.5705 58.148L54.8225 56.9H55.0145L55.2695 58.142C55.2875 58.23 55.2975 58.279 55.2995 58.289C55.3015 58.269 55.3055 58.241 55.3115 58.205C55.3175 58.169 55.3205 58.149 55.3205 58.145L55.4645 56.9H55.8035L55.4915 59H55.2095L54.9425 57.716C54.9305 57.654 54.9215 57.603 54.9155 57.563C54.9135 57.581 54.9085 57.608 54.9005 57.644C54.8945 57.678 54.8905 57.701 54.8885 57.713L54.6245 59H54.3425ZM63.659 59.036C63.451 59.036 63.281 58.97 63.149 58.838C63.017 58.704 62.951 58.491 62.951 58.199V56.9H63.305V58.199C63.305 58.381 63.336 58.51 63.398 58.586C63.46 58.66 63.547 58.697 63.659 58.697C63.895 58.697 64.013 58.531 64.013 58.199V56.9H64.37V58.199C64.37 58.487 64.304 58.699 64.172 58.835C64.04 58.969 63.869 59.036 63.659 59.036ZM66.7089 59V56.9H67.4499C67.6919 56.9 67.8689 56.963 67.9809 57.089C68.0949 57.215 68.1519 57.369 68.1519 57.551C68.1519 57.723 68.0929 57.875 67.9749 58.007C67.8569 58.137 67.6819 58.202 67.4499 58.202H67.0659V59H66.7089ZM67.0659 57.866H67.4679C67.5759 57.866 67.6559 57.835 67.7079 57.773C67.7619 57.711 67.7889 57.637 67.7889 57.551C67.7889 57.469 67.7629 57.396 67.7109 57.332C67.6609 57.268 67.5799 57.236 67.4679 57.236H67.0659V57.866ZM67.9575 59V56.9H68.6655C68.9015 56.9 69.0725 56.954 69.1785 57.062C69.2845 57.168 69.3375 57.301 69.3375 57.461C69.3375 57.667 69.2465 57.811 69.0645 57.893C69.1765 57.931 69.2615 57.995 69.3195 58.085C69.3795 58.175 69.4095 58.275 69.4095 58.385C69.4095 58.553 69.3525 58.698 69.2385 58.82C69.1265 58.94 68.9505 59 68.7105 59H67.9575ZM68.3145 57.749H68.6175C68.7375 57.749 68.8275 57.726 68.8875 57.68C68.9495 57.632 68.9805 57.567 68.9805 57.485C68.9805 57.315 68.8785 57.23 68.6745 57.23H68.3145V57.749ZM68.3145 58.67H68.7345C68.8485 58.67 68.9295 58.643 68.9775 58.589C69.0275 58.533 69.0525 58.466 69.0525 58.388C69.0525 58.18 68.9175 58.076 68.6475 58.076H68.3145V58.67ZM73.672 59.036C73.502 59.036 73.349 58.987 73.213 58.889C73.077 58.791 72.981 58.66 72.925 58.496L73.249 58.376C73.295 58.474 73.358 58.553 73.438 58.613C73.52 58.671 73.608 58.7 73.702 58.7C73.794 58.7 73.868 58.676 73.924 58.628C73.98 58.58 74.008 58.511 74.008 58.421C74.008 58.345 73.97 58.278 73.894 58.22C73.818 58.16 73.712 58.1 73.576 58.04C73.49 58.002 73.421 57.969 73.369 57.941C73.317 57.913 73.258 57.874 73.192 57.824C73.128 57.774 73.08 57.715 73.048 57.647C73.016 57.579 73 57.503 73 57.419C73 57.263 73.059 57.132 73.177 57.026C73.297 56.918 73.454 56.864 73.648 56.864C73.802 56.864 73.936 56.906 74.05 56.99C74.166 57.074 74.243 57.181 74.281 57.311L73.96 57.419C73.888 57.273 73.777 57.2 73.627 57.2C73.549 57.2 73.485 57.22 73.435 57.26C73.385 57.3 73.36 57.355 73.36 57.425C73.36 57.441 73.362 57.457 73.366 57.473C73.37 57.487 73.377 57.501 73.387 57.515C73.397 57.527 73.406 57.539 73.414 57.551C73.424 57.561 73.438 57.573 73.456 57.587C73.476 57.599 73.492 57.609 73.504 57.617C73.518 57.625 73.538 57.636 73.564 57.65C73.59 57.662 73.61 57.671 73.624 57.677C73.638 57.683 73.661 57.694 73.693 57.71C73.725 57.724 73.748 57.734 73.762 57.74C73.846 57.778 73.916 57.814 73.972 57.848C74.028 57.88 74.09 57.923 74.158 57.977C74.226 58.031 74.278 58.095 74.314 58.169C74.35 58.243 74.368 58.324 74.368 58.412C74.368 58.604 74.3 58.756 74.164 58.868C74.03 58.98 73.866 59.036 73.672 59.036ZM52.9739 71V68.9H53.7149C53.9569 68.9 54.1339 68.963 54.2459 69.089C54.3599 69.215 54.4169 69.369 54.4169 69.551C54.4169 69.723 54.3579 69.875 54.2399 70.007C54.1219 70.137 53.9469 70.202 53.7149 70.202H53.3309V71H52.9739ZM53.3309 69.866H53.7329C53.8409 69.866 53.9209 69.835 53.9729 69.773C54.0269 69.711 54.0539 69.637 54.0539 69.551C54.0539 69.469 54.0279 69.396 53.9759 69.332C53.9259 69.268 53.8449 69.236 53.7329 69.236H53.3309V69.866ZM59.9131 71.036C59.7331 71.036 59.5811 70.984 59.4571 70.88C59.3351 70.774 59.2481 70.642 59.1961 70.484C59.1441 70.326 59.1181 70.148 59.1181 69.95C59.1181 69.752 59.1441 69.574 59.1961 69.416C59.2481 69.258 59.3351 69.127 59.4571 69.023C59.5811 68.917 59.7331 68.864 59.9131 68.864C60.0231 68.864 60.1231 68.884 60.2131 68.924C60.3031 68.962 60.3781 69.015 60.4381 69.083C60.5001 69.151 60.5511 69.232 60.5911 69.326C60.6331 69.418 60.6631 69.516 60.6811 69.62C60.7011 69.724 60.7111 69.834 60.7111 69.95C60.7111 70.066 60.7011 70.176 60.6811 70.28C60.6631 70.384 60.6331 70.483 60.5911 70.577C60.5511 70.669 60.5001 70.749 60.4381 70.817C60.3781 70.885 60.3031 70.939 60.2131 70.979C60.1231 71.017 60.0231 71.036 59.9131 71.036ZM59.9131 70.697C60.0071 70.697 60.0871 70.66 60.1531 70.586C60.2191 70.512 60.2661 70.421 60.2941 70.313C60.3241 70.203 60.3391 70.082 60.3391 69.95C60.3391 69.734 60.3031 69.556 60.2311 69.416C60.1611 69.274 60.0551 69.203 59.9131 69.203C59.7731 69.203 59.6671 69.276 59.5951 69.422C59.5231 69.566 59.4871 69.742 59.4871 69.95C59.4871 70.164 59.5221 70.342 59.5921 70.484C59.6641 70.626 59.7711 70.697 59.9131 70.697ZM66.7089 71V68.9H67.4499C67.6919 68.9 67.8689 68.963 67.9809 69.089C68.0949 69.215 68.1519 69.369 68.1519 69.551C68.1519 69.723 68.0929 69.875 67.9749 70.007C67.8569 70.137 67.6819 70.202 67.4499 70.202H67.0659V71H66.7089ZM67.0659 69.866H67.4679C67.5759 69.866 67.6559 69.835 67.7079 69.773C67.7619 69.711 67.7889 69.637 67.7889 69.551C67.7889 69.469 67.7629 69.396 67.7109 69.332C67.6609 69.268 67.5799 69.236 67.4679 69.236H67.0659V69.866ZM67.9575 71V68.9H68.6655C68.9015 68.9 69.0725 68.954 69.1785 69.062C69.2845 69.168 69.3375 69.301 69.3375 69.461C69.3375 69.667 69.2465 69.811 69.0645 69.893C69.1765 69.931 69.2615 69.995 69.3195 70.085C69.3795 70.175 69.4095 70.275 69.4095 70.385C69.4095 70.553 69.3525 70.698 69.2385 70.82C69.1265 70.94 68.9505 71 68.7105 71H67.9575ZM68.3145 69.749H68.6175C68.7375 69.749 68.8275 69.726 68.8875 69.68C68.9495 69.632 68.9805 69.567 68.9805 69.485C68.9805 69.315 68.8785 69.23 68.6745 69.23H68.3145V69.749ZM68.3145 70.67H68.7345C68.8485 70.67 68.9295 70.643 68.9775 70.589C69.0275 70.533 69.0525 70.466 69.0525 70.388C69.0525 70.18 68.9175 70.076 68.6475 70.076H68.3145V70.67ZM59.1354 83L58.9974 82.538H58.3314L58.1934 83H57.8094L58.4964 80.9H58.8324L59.5194 83H59.1354ZM58.4274 82.214H58.9014L58.7154 81.59C58.6954 81.526 58.6784 81.448 58.6644 81.356C58.6404 81.478 58.6234 81.556 58.6134 81.59L58.4274 82.214ZM61.7143 83V80.9H63.0613V81.239H62.0713V81.746H62.7163V82.085H62.0713V82.661H63.1243V83H61.7143ZM63.659 83.036C63.451 83.036 63.281 82.97 63.149 82.838C63.017 82.704 62.951 82.491 62.951 82.199V80.9H63.305V82.199C63.305 82.381 63.336 82.51 63.398 82.586C63.46 82.66 63.547 82.697 63.659 82.697C63.895 82.697 64.013 82.531 64.013 82.199V80.9H64.37V82.199C64.37 82.487 64.304 82.699 64.172 82.835C64.04 82.969 63.869 83.036 63.659 83.036ZM50.9926 95V93.242H50.3836V92.9H51.9616V93.242H51.3496V95H50.9926ZM59.1354 95L58.9974 94.538H58.3314L58.1934 95H57.8094L58.4964 92.9H58.8324L59.5194 95H59.1354ZM58.4274 94.214H58.9014L58.7154 93.59C58.6954 93.526 58.6784 93.448 58.6644 93.356C58.6404 93.478 58.6234 93.556 58.6134 93.59L58.4274 94.214ZM59.9131 95.036C59.7331 95.036 59.5811 94.984 59.4571 94.88C59.3351 94.774 59.2481 94.642 59.1961 94.484C59.1441 94.326 59.1181 94.148 59.1181 93.95C59.1181 93.752 59.1441 93.574 59.1961 93.416C59.2481 93.258 59.3351 93.127 59.4571 93.023C59.5811 92.917 59.7331 92.864 59.9131 92.864C60.0231 92.864 60.1231 92.884 60.2131 92.924C60.3031 92.962 60.3781 93.015 60.4381 93.083C60.5001 93.151 60.5511 93.232 60.5911 93.326C60.6331 93.418 60.6631 93.516 60.6811 93.62C60.7011 93.724 60.7111 93.834 60.7111 93.95C60.7111 94.066 60.7011 94.176 60.6811 94.28C60.6631 94.384 60.6331 94.483 60.5911 94.577C60.5511 94.669 60.5001 94.749 60.4381 94.817C60.3781 94.885 60.3031 94.939 60.2131 94.979C60.1231 95.017 60.0231 95.036 59.9131 95.036ZM59.9131 94.697C60.0071 94.697 60.0871 94.66 60.1531 94.586C60.2191 94.512 60.2661 94.421 60.2941 94.313C60.3241 94.203 60.3391 94.082 60.3391 93.95C60.3391 93.734 60.3031 93.556 60.2311 93.416C60.1611 93.274 60.0551 93.203 59.9131 93.203C59.7731 93.203 59.6671 93.276 59.5951 93.422C59.5231 93.566 59.4871 93.742 59.4871 93.95C59.4871 94.164 59.5221 94.342 59.5921 94.484C59.6641 94.626 59.7711 94.697 59.9131 94.697ZM61.7143 95V92.9H63.0613V93.239H62.0713V93.746H62.7163V94.085H62.0713V94.661H63.1243V95H61.7143ZM63.659 95.036C63.451 95.036 63.281 94.97 63.149 94.838C63.017 94.704 62.951 94.491 62.951 94.199V92.9H63.305V94.199C63.305 94.381 63.336 94.51 63.398 94.586C63.46 94.66 63.547 94.697 63.659 94.697C63.895 94.697 64.013 94.531 64.013 94.199V92.9H64.37V94.199C64.37 94.487 64.304 94.699 64.172 94.835C64.04 94.969 63.869 95.036 63.659 95.036ZM66.7089 95V92.9H67.4499C67.6919 92.9 67.8689 92.963 67.9809 93.089C68.0949 93.215 68.1519 93.369 68.1519 93.551C68.1519 93.723 68.0929 93.875 67.9749 94.007C67.8569 94.137 67.6819 94.202 67.4499 94.202H67.0659V95H66.7089ZM67.0659 93.866H67.4679C67.5759 93.866 67.6559 93.835 67.7079 93.773C67.7619 93.711 67.7889 93.637 67.7889 93.551C67.7889 93.469 67.7629 93.396 67.7109 93.332C67.6609 93.268 67.5799 93.236 67.4679 93.236H67.0659V93.866ZM69.2061 95V92.9H69.5631V94.658H70.5321V95H69.2061Z" fill="#353F50"/>
  <g clip-path="url(#a)">
    <rect x="9.27197" y="72" width="30.1423" height="11.5662" rx=".538255" transform="rotate(53.2866 9.27197 72)" fill="#202630"/>
    <rect x="25.6375" y="94.3359" width="2.33661" height="11.2157" rx=".233661" transform="rotate(53.2866 25.6375 94.3359)" fill="#fff" stroke="#202630" stroke-width=".116831"/>
    <rect x="24.2406" y="92.4629" width="2.33661" height="11.2157" rx=".233661" transform="rotate(53.2866 24.2406 92.4629)" fill="#fff" stroke="#202630" stroke-width=".116831"/>
    <rect x="22.8436" y="90.5898" width="2.33661" height="11.2157" rx=".233661" transform="rotate(53.2866 22.8436 90.5898)" fill="#fff" stroke="#202630" stroke-width=".116831"/>
    <rect x="21.4468" y="88.7168" width="2.33661" height="11.2157" rx=".233661" transform="rotate(53.2866 21.4468 88.7168)" fill="#fff" stroke="#202630" stroke-width=".116831"/>
    <rect x="20.0499" y="86.8435" width="2.33661" height="11.2157" rx=".233661" transform="rotate(53.2866 20.0499 86.8435)" fill="#fff" stroke="#202630" stroke-width=".116831"/>
    <rect x="18.6531" y="84.9705" width="2.33661" height="11.2157" rx=".233661" transform="rotate(53.2866 18.6531 84.9705)" fill="#fff" stroke="#202630" stroke-width=".116831"/>
    <rect x="26.3358" y="95.2727" width="1.16831" height="8.4118" rx=".233661" transform="rotate(53.2866 26.3358 95.2727)" fill="#202630" stroke="#202630" stroke-width=".116831"/>
    <rect x="23.9612" y="92.0884" width="1.16831" height="7.00984" rx=".233661" transform="rotate(53.2866 23.9612 92.0884)" fill="#202630" stroke="#202630" stroke-width=".116831"/>
    <rect x="22.5643" y="90.2153" width="1.16831" height="7.00984" rx=".233661" transform="rotate(53.2866 22.5643 90.2153)" fill="#202630" stroke="#202630" stroke-width=".116831"/>
    <rect x="21.1675" y="88.342" width="1.16831" height="7.00984" rx=".233661" transform="rotate(53.2866 21.1675 88.342)" fill="#202630" stroke="#202630" stroke-width=".116831"/>
    <rect x="16.1388" y="81.5989" width="2.33661" height="11.2157" rx=".233661" transform="rotate(53.2866 16.1388 81.5989)" fill="#fff" stroke="#202630" stroke-width=".116831"/>
    <rect x="14.7419" y="79.7258" width="2.33661" height="11.2157" rx=".233661" transform="rotate(53.2866 14.7419 79.7258)" fill="#fff" stroke="#202630" stroke-width=".116831"/>
    <rect x="13.345" y="77.8528" width="2.33661" height="11.2157" rx=".233661" transform="rotate(53.2866 13.345 77.8528)" fill="#fff" stroke="#202630" stroke-width=".116831"/>
    <rect x="11.9481" y="75.9797" width="2.33661" height="11.2157" rx=".233661" transform="rotate(53.2866 11.9481 75.9797)" fill="#fff" stroke="#202630" stroke-width=".116831"/>
    <rect x="10.5514" y="74.1064" width="2.33661" height="11.2157" rx=".233661" transform="rotate(53.2866 10.5514 74.1064)" fill="#fff" stroke="#202630" stroke-width=".116831"/>
    <rect x="9.15454" y="72.2334" width="2.33661" height="11.2157" rx=".233661" transform="rotate(53.2866 9.15454 72.2334)" fill="#fff" stroke="#202630" stroke-width=".116831"/>
    <rect x="14.3229" y="79.1638" width="1.16831" height="7.00984" rx=".233661" transform="rotate(53.2866 14.3229 79.1638)" fill="#202630" stroke="#202630" stroke-width=".116831"/>
    <rect x="12.926" y="77.2908" width="1.16831" height="7.00984" rx=".233661" transform="rotate(53.2866 12.926 77.2908)" fill="#202630" stroke="#202630" stroke-width=".116831"/>
    <rect x="11.5292" y="75.4177" width="1.16831" height="7.00984" rx=".233661" transform="rotate(53.2866 11.5292 75.4177)" fill="#202630" stroke="#202630" stroke-width=".116831"/>
    <rect x="9.15454" y="72.2334" width="1.16831" height="8.4118" rx=".233661" transform="rotate(53.2866 9.15454 72.2334)" fill="#202630" stroke="#202630" stroke-width=".116831"/>
  </g>
  <path fill-rule="evenodd" clip-rule="evenodd" d="M10.0001 67.3994C4.12503 72.6347 0.21181 80.5498 4.48846 91.0885C5.79637 94.3115 10.5577 91.6007 8.81859 88.5885C8.16429 87.4552 5.74051 80.6703 10.0001 73.9152V67.3994Z" fill="#202630"/>
  <path d="M4.48846 91.0885L3.68271 91.4154L3.68271 91.4154L4.48846 91.0885ZM10.0001 67.3994H10.8696V65.4598L9.42155 66.7502L10.0001 67.3994ZM8.81859 88.5885L8.06552 89.0232L8.06552 89.0232L8.81859 88.5885ZM10.0001 73.9152L10.7356 74.379L10.8696 74.1664V73.9152H10.0001ZM5.29421 90.7615C3.2236 85.659 3.15387 81.2487 4.27068 77.5037C5.3915 73.7453 7.72853 70.5883 10.5786 68.0486L9.42155 66.7502C6.39656 69.4458 3.83947 72.8641 2.60408 77.0067C1.36469 81.1627 1.47667 85.9792 3.68271 91.4154L5.29421 90.7615ZM8.06552 89.0232C8.37486 89.559 8.37609 90.0285 8.23997 90.4128C8.0956 90.8203 7.77477 91.1867 7.36376 91.4222C6.95044 91.6591 6.51728 91.7245 6.17393 91.6379C5.86464 91.56 5.52714 91.3355 5.29421 90.7615L3.68271 91.4154C4.10373 92.4529 4.85187 93.0982 5.74883 93.3243C6.61174 93.5418 7.50546 93.3456 8.22856 92.9311C8.95399 92.5153 9.57915 91.8407 9.87928 90.9935C10.1877 90.123 10.1319 89.124 9.57165 88.1537L8.06552 89.0232ZM9.26452 73.4514C7.0191 77.0123 6.53501 80.586 6.69852 83.4103C6.86041 86.2066 7.66064 88.322 8.06552 89.0232L9.57165 88.1537C9.32224 87.7217 8.58343 85.8779 8.43474 83.3098C8.28767 80.7694 8.72147 77.5732 10.7356 74.379L9.26452 73.4514ZM10.8696 73.9152V67.3994H9.1305V73.9152H10.8696Z" fill="#202630"/>
  <defs>
    <clipPath id="a">
      <rect x="9.27197" y="72" width="30.1423" height="11.5662" rx=".538255" transform="rotate(53.2866 9.27197 72)" fill="#fff"/>
    </clipPath>
  </defs>
</svg>
