<svg width="96" height="124" viewBox="0 0 96 124" fill="none" xmlns="http://www.w3.org/2000/svg">
<path d="M10.4998 42.6087C12.5 57 24.065 61 33.6302 61L33.6302 57C17.978 56.6258 15.7172 44.3718 15.7172 42.6087C15.7172 39.1304 10.0209 39.1636 10.4998 42.6087Z" fill="#202630" stroke="#202630" stroke-width="1.73913"/>
<path d="M85.5001 42.6087C83.5 57 72.0653 61 62.5001 61L62.5001 57C78.1522 56.6258 80.5001 44.3718 80.5001 42.6087C80.5001 39.1304 85.9789 39.1635 85.5001 42.6087Z" fill="#202630" stroke="#202630" stroke-width="1.73913"/>
<rect x="34.5" y="98" width="7" height="21" fill="#202630"/>
<rect x="54.5" y="98" width="7" height="21" fill="#202630"/>
<rect x="39.5" y="45" width="17" height="5" fill="#202630"/>
<path d="M27.5 60C27.5 54.4772 31.9772 50 37.5 50H58.5C64.0228 50 68.5 54.4772 68.5 60V89C68.5 94.5228 64.0228 99 58.5 99H37.5C31.9772 99 27.5 94.5228 27.5 89V60Z" fill="#FFD073"/>
<rect x="60.9697" y="66.8555" width="1.96678" height="2.8339" rx="0.462772" fill="#202630" stroke="#202630" stroke-width="0.115693"/>
<rect x="60.9697" y="63.4043" width="1.96678" height="2.8339" rx="0.462772" fill="#202630" stroke="#202630" stroke-width="0.115693"/>
<rect x="58.3882" y="66.8555" width="1.96678" height="2.8339" rx="0.462772" fill="#202630" stroke="#202630" stroke-width="0.115693"/>
<rect x="58.3882" y="63.4043" width="1.96678" height="2.8339" rx="0.462772" fill="#202630" stroke="#202630" stroke-width="0.115693"/>
<rect x="55.8076" y="66.8555" width="1.96678" height="2.8339" rx="0.462772" fill="#202630" stroke="#202630" stroke-width="0.115693"/>
<rect x="55.8076" y="63.4043" width="1.96678" height="2.8339" rx="0.462772" fill="#202630" stroke="#202630" stroke-width="0.115693"/>
<rect x="53.2256" y="66.8555" width="1.96678" height="2.8339" rx="0.462772" fill="#202630" stroke="#202630" stroke-width="0.115693"/>
<rect x="53.2256" y="63.4043" width="1.96678" height="2.8339" rx="0.462772" fill="#202630" stroke="#202630" stroke-width="0.115693"/>
<rect x="50.6436" y="66.8555" width="1.96678" height="2.8339" rx="0.462772" fill="#202630" stroke="#202630" stroke-width="0.115693"/>
<rect x="50.6436" y="63.4043" width="1.96678" height="2.8339" rx="0.462772" fill="#202630" stroke="#202630" stroke-width="0.115693"/>
<rect x="51.9956" y="70.3037" width="1.96678" height="2.8339" rx="0.462772" fill="#202630" stroke="#202630" stroke-width="0.115693"/>
<rect x="49.415" y="70.3037" width="1.96678" height="2.8339" rx="0.462772" fill="#202630" stroke="#202630" stroke-width="0.115693"/>
<rect x="47.3247" y="63.4043" width="2.45848" height="6.28387" rx="0.462772" fill="#202630" stroke="#202630" stroke-width="0.115693"/>
<rect x="45.7266" y="70.3037" width="1.96678" height="2.8339" rx="0.462772" fill="#202630" stroke="#202630" stroke-width="0.115693"/>
<rect x="43.146" y="70.3037" width="1.96678" height="2.8339" rx="0.462772" fill="#202630" stroke="#202630" stroke-width="0.115693"/>
<rect x="44.4985" y="66.8555" width="1.96678" height="2.8339" rx="0.462772" fill="#202630" stroke="#202630" stroke-width="0.115693"/>
<rect x="44.4985" y="63.4043" width="1.96678" height="2.8339" rx="0.462772" fill="#202630" stroke="#202630" stroke-width="0.115693"/>
<rect x="41.9165" y="66.8555" width="1.96678" height="2.8339" rx="0.462772" fill="#202630" stroke="#202630" stroke-width="0.115693"/>
<rect x="41.9165" y="63.4043" width="1.96678" height="2.8339" rx="0.462772" fill="#202630" stroke="#202630" stroke-width="0.115693"/>
<rect x="39.3354" y="66.8555" width="1.96678" height="2.8339" rx="0.462772" fill="#202630" stroke="#202630" stroke-width="0.115693"/>
<rect x="39.3354" y="63.4043" width="1.96678" height="2.8339" rx="0.462772" fill="#202630" stroke="#202630" stroke-width="0.115693"/>
<rect x="36.7534" y="66.8555" width="1.96678" height="2.8339" rx="0.462772" fill="#202630" stroke="#202630" stroke-width="0.115693"/>
<rect x="36.7534" y="63.4043" width="1.96678" height="2.8339" rx="0.462772" fill="#202630" stroke="#202630" stroke-width="0.115693"/>
<rect x="36.7534" y="60.9414" width="26.1828" height="1.8482" rx="0.462772" fill="#202630" stroke="#202630" stroke-width="0.115693"/>
<path d="M56.5 3C48.5 3 46.5 8.5 46.5 14H49.5C49.7152 5 54.5 6 56.5 6V3Z" fill="#202630" stroke="#202630"/>
<circle cx="58.5" cy="4" r="4" fill="#202630"/>
<circle cx="60" cy="2.5" r="1.5" fill="white"/>
<path d="M38 113C33.3056 113 29.4999 118.5 29.5 121.5C29.5001 124.5 46.5 124.5 46.5 121.5C46.5 118.5 42.6944 113 38 113Z" fill="#202630"/>
<path d="M58 113C53.3056 113 49.4999 118.5 49.5 121.5C49.5001 124.5 66.5 124.5 66.5 121.5C66.5 118.5 62.6944 113 58 113Z" fill="#202630"/>
<path d="M71.5 33C73.7091 33 75.5 31.2091 75.5 29C75.5 26.7909 73.7091 25 71.5 25V33Z" fill="#202630"/>
<path d="M20.5 29C20.5 31.2091 22.2909 33 24.5 33V25C22.2909 25 20.5 26.7909 20.5 29Z" fill="#202630"/>
<path d="M23.5 25.0954C23.5 18.9676 28.4676 14 34.5954 14H61.4046C67.5324 14 72.5 18.9676 72.5 25.0954V25.0954V33C72.5 39.6274 67.1274 45 60.5 45H35.5C28.8726 45 23.5 39.6274 23.5 33V25.0954V25.0954Z" fill="#FFD073"/>
<path d="M29.5 25.224C29.5 22.3389 31.8389 20 34.724 20H61.276C64.1611 20 66.5 22.3389 66.5 25.224V25.224V31C66.5 35.4183 62.9183 39 58.5 39H37.5C33.0817 39 29.5 35.4183 29.5 31V25.224V25.224Z" fill="white"/>
<path d="M51.6923 33L45.2434 33C44.8132 33 44.4638 33.3488 44.4647 33.779C44.4689 35.6012 46.5261 37 48.4644 37C50.4027 37 52.4644 35.6665 52.4644 33.7721C52.4644 33.3457 52.1187 33 51.6923 33Z" fill="#202630"/>
<circle cx="39.5" cy="28" r="3" fill="#202630"/>
<circle cx="56.5" cy="28" r="3" fill="#202630"/>
</svg>
