<svg viewBox="0 0 77 124" fill="none" xmlns="http://www.w3.org/2000/svg" id="HappyRobot">
<path d="M1.00002 42.6087C3.00026 57 14.5652 61 24.1305 61L24.1305 57C8.47828 56.6258 6.21741 44.3718 6.21741 42.6087C6.21741 39.1304 0.521178 39.1636 1.00002 42.6087Z" fill="#202630" stroke="#202630" stroke-width="1.73913"/>
<path d="M76 42.6087C73.9999 57 62.5652 61 53 61L53 57C68.6521 56.6258 71 44.3718 71 42.6087C71 39.1304 76.4788 39.1635 76 42.6087Z" fill="#202630" stroke="#202630" stroke-width="1.73913"/>
<rect x="25" y="98" width="7" height="21" fill="#202630"/>
<rect x="45" y="98" width="7" height="21" fill="#202630"/>
<rect x="30" y="45" width="17" height="5" fill="#202630"/>
<path d="M18 60C18 54.4772 22.4772 50 28 50H49C54.5228 50 59 54.4772 59 60V89C59 94.5228 54.5228 99 49 99H28C22.4772 99 18 94.5228 18 89V60Z" fill="#FFD073"/>
<rect x="51.47" y="66.8552" width="1.96678" height="2.8339" rx="0.462772" fill="#202630" stroke="#202630" stroke-width="0.115693"/>
<rect x="51.47" y="63.4045" width="1.96678" height="2.8339" rx="0.462772" fill="#202630" stroke="#202630" stroke-width="0.115693"/>
<rect x="48.8883" y="66.8552" width="1.96678" height="2.8339" rx="0.462772" fill="#202630" stroke="#202630" stroke-width="0.115693"/>
<rect x="48.8883" y="63.4045" width="1.96678" height="2.8339" rx="0.462772" fill="#202630" stroke="#202630" stroke-width="0.115693"/>
<rect x="46.3075" y="66.8552" width="1.96678" height="2.8339" rx="0.462772" fill="#202630" stroke="#202630" stroke-width="0.115693"/>
<rect x="46.3075" y="63.4045" width="1.96678" height="2.8339" rx="0.462772" fill="#202630" stroke="#202630" stroke-width="0.115693"/>
<rect x="43.7255" y="66.8552" width="1.96678" height="2.8339" rx="0.462772" fill="#202630" stroke="#202630" stroke-width="0.115693"/>
<rect x="43.7255" y="63.4045" width="1.96678" height="2.8339" rx="0.462772" fill="#202630" stroke="#202630" stroke-width="0.115693"/>
<rect x="41.1438" y="66.8552" width="1.96678" height="2.8339" rx="0.462772" fill="#202630" stroke="#202630" stroke-width="0.115693"/>
<rect x="41.1438" y="63.4045" width="1.96678" height="2.8339" rx="0.462772" fill="#202630" stroke="#202630" stroke-width="0.115693"/>
<rect x="42.4958" y="70.3042" width="1.96678" height="2.8339" rx="0.462772" fill="#202630" stroke="#202630" stroke-width="0.115693"/>
<rect x="39.9149" y="70.3042" width="1.96678" height="2.8339" rx="0.462772" fill="#202630" stroke="#202630" stroke-width="0.115693"/>
<rect x="37.825" y="63.4045" width="2.45848" height="6.28387" rx="0.462772" fill="#202630" stroke="#202630" stroke-width="0.115693"/>
<rect x="36.2264" y="70.3042" width="1.96678" height="2.8339" rx="0.462772" fill="#202630" stroke="#202630" stroke-width="0.115693"/>
<rect x="33.646" y="70.3042" width="1.96678" height="2.8339" rx="0.462772" fill="#202630" stroke="#202630" stroke-width="0.115693"/>
<rect x="34.9985" y="66.8552" width="1.96678" height="2.8339" rx="0.462772" fill="#202630" stroke="#202630" stroke-width="0.115693"/>
<rect x="34.9985" y="63.4045" width="1.96678" height="2.8339" rx="0.462772" fill="#202630" stroke="#202630" stroke-width="0.115693"/>
<rect x="32.4164" y="66.8552" width="1.96678" height="2.8339" rx="0.462772" fill="#202630" stroke="#202630" stroke-width="0.115693"/>
<rect x="32.4164" y="63.4045" width="1.96678" height="2.8339" rx="0.462772" fill="#202630" stroke="#202630" stroke-width="0.115693"/>
<rect x="29.8356" y="66.8552" width="1.96678" height="2.8339" rx="0.462772" fill="#202630" stroke="#202630" stroke-width="0.115693"/>
<rect x="29.8356" y="63.4045" width="1.96678" height="2.8339" rx="0.462772" fill="#202630" stroke="#202630" stroke-width="0.115693"/>
<rect x="27.2535" y="66.8552" width="1.96678" height="2.8339" rx="0.462772" fill="#202630" stroke="#202630" stroke-width="0.115693"/>
<rect x="27.2535" y="63.4045" width="1.96678" height="2.8339" rx="0.462772" fill="#202630" stroke="#202630" stroke-width="0.115693"/>
<rect x="27.2534" y="60.9414" width="26.1828" height="1.8482" rx="0.462772" fill="#202630" stroke="#202630" stroke-width="0.115693"/>
<path d="M47 3C39 3 37 8.5 37 14H40C40.2152 5 45 6 47 6V3Z" fill="#202630" stroke="#202630"/>
<circle cx="49" cy="4" r="4" fill="#202630"/>
<circle cx="50.5" cy="2.5" r="1.5" fill="white"/>
<path d="M28.5 113C23.8056 113 19.9999 118.5 20 121.5C20.0001 124.5 37 124.5 37 121.5C37 118.5 33.1944 113 28.5 113Z" fill="#202630"/>
<path d="M48.5 113C43.8056 113 39.9999 118.5 40 121.5C40.0001 124.5 57 124.5 57 121.5C57 118.5 53.1944 113 48.5 113Z" fill="#202630"/>
<path d="M62 33C64.2091 33 66 31.2091 66 29C66 26.7909 64.2091 25 62 25V33Z" fill="#202630"/>
<path d="M11 29C11 31.2091 12.7909 33 15 33V25C12.7909 25 11 26.7909 11 29Z" fill="#202630"/>
<path d="M14 25.0954C14 18.9676 18.9676 14 25.0954 14H51.9046C58.0324 14 63 18.9676 63 25.0954V33C63 39.6274 57.6274 45 51 45H26C19.3726 45 14 39.6274 14 33V25.0954Z" fill="#FFD073"/>
<path d="M20 25.224C20 22.3389 22.3389 20 25.224 20H51.776C54.6611 20 57 22.3389 57 25.224V31C57 35.4183 53.4183 39 49 39H28C23.5817 39 20 35.4183 20 31V25.224Z" fill="white"/>
<path d="M42.1923 33L35.7434 33C35.3132 33 34.9638 33.3488 34.9647 33.779C34.9689 35.6012 37.0261 37 38.9644 37C40.9027 37 42.9644 35.6665 42.9644 33.7721C42.9644 33.3457 42.6187 33 42.1923 33Z" fill="#202630"/>
<circle cx="30" cy="28" r="3" fill="#202630"/>
<circle cx="47" cy="28" r="3" fill="#202630"/>
</svg>
