<svg fill="none" xmlns="http://www.w3.org/2000/svg" viewBox="0 0 83 124">
  <title id="mischievous-robot-title">Mischievous robot</title>
  <path d="M2.40116 82.3081C.109791 67.9603 9.87712 60.7943 19.0251 57.9999L20.1936 61.8254C5.33356 66.7559 6.66797 79.1612 7.18304 80.8474 8.19918 84.174 2.94969 85.7429 2.40116 82.3081ZM70 42.6087C67.9999 57 56.5652 61 47 61L47 57C62.6521 56.6258 65 44.3718 65 42.6087 65 39.1304 70.4788 39.1635 70 42.6087Z" fill="#202630" stroke="#202630" stroke-width="1.73913"/>
  <path fill="#202630" d="M19 98H26V119H19zM39 98H46V119H39zM24 45H41V50H24z"/>
  <path d="M12 60C12 54.4772 16.4772 50 22 50H43C48.5228 50 53 54.4772 53 60V89C53 94.5228 48.5228 99 43 99H22C16.4772 99 12 94.5228 12 89V60Z" fill="#953159"/>
  <rect x="15.0305" y="90.8267" width="1.96678" height="2.8339" rx=".462772" transform="rotate(20.4541 15.0305 90.8267)" fill="#202630" stroke="#202630" stroke-width=".115693"/>
  <rect x="16.2363" y="87.5938" width="1.96678" height="2.8339" rx=".462772" transform="rotate(20.4541 16.2363 87.5938)" fill="#202630" stroke="#202630" stroke-width=".115693"/>
  <rect x="12.6117" y="89.9246" width="1.96678" height="2.8339" rx=".462772" transform="rotate(20.4541 12.6117 89.9246)" fill="#202630" stroke="#202630" stroke-width=".115693"/>
  <rect x="13.8175" y="86.6914" width="1.96678" height="2.8339" rx=".462772" transform="rotate(20.4541 13.8175 86.6914)" fill="#202630" stroke="#202630" stroke-width=".115693"/>
  <rect x="10.1935" y="89.0227" width="1.96678" height="2.8339" rx=".462772" transform="rotate(20.4541 10.1935 89.0227)" fill="#202630" stroke="#202630" stroke-width=".115693"/>
  <rect x="11.3994" y="85.7896" width="1.96678" height="2.8339" rx=".462772" transform="rotate(20.4541 11.3994 85.7896)" fill="#202630" stroke="#202630" stroke-width=".115693"/>
  <rect x="7.77429" y="88.1204" width="1.96678" height="2.8339" rx=".462772" transform="rotate(20.4541 7.77429 88.1204)" fill="#202630" stroke="#202630" stroke-width=".115693"/>
  <rect x="8.9801" y="84.8872" width="1.96678" height="2.8339" rx=".462772" transform="rotate(20.4541 8.9801 84.8872)" fill="#202630" stroke="#202630" stroke-width=".115693"/>
  <rect x="5.35535" y="87.2183" width="1.96678" height="2.8339" rx=".462772" transform="rotate(20.4541 5.35535 87.2183)" fill="#202630" stroke="#202630" stroke-width=".115693"/>
  <rect x="6.56128" y="83.9851" width="1.96678" height="2.8339" rx=".462772" transform="rotate(20.4541 6.56128 83.9851)" fill="#202630" stroke="#202630" stroke-width=".115693"/>
  <rect x="5.41687" y="90.9221" width="1.96678" height="2.8339" rx=".462772" transform="rotate(20.4541 5.41687 90.9221)" fill="#202630" stroke="#202630" stroke-width=".115693"/>
  <rect x="7.40637" y="81.6714" width="12.3091" height="1.8482" rx=".462772" transform="rotate(20.4541 7.40637 81.6714)" fill="#202630" stroke="#202630" stroke-width=".115693"/>
  <rect x="71.792" y="37.6318" width="1.96678" height="2.8339" rx=".462772" transform="rotate(23.4772 71.792 37.6318)" fill="#202630" stroke="#202630" stroke-width=".115693"/>
  <rect x="72.6237" y="30.4709" width="2.45848" height="6.28387" rx=".462772" transform="rotate(23.4772 72.6237 30.4709)" fill="#202630" stroke="#202630" stroke-width=".115693"/>
  <rect x="68.4088" y="36.1626" width="1.96678" height="2.8339" rx=".462772" transform="rotate(23.4772 68.4088 36.1626)" fill="#202630" stroke="#202630" stroke-width=".115693"/>
  <rect x="66.042" y="35.1345" width="1.96678" height="2.8339" rx=".462772" transform="rotate(23.4772 66.042 35.1345)" fill="#202630" stroke="#202630" stroke-width=".115693"/>
  <rect x="68.6565" y="32.5098" width="1.96678" height="2.8339" rx=".462772" transform="rotate(23.4772 68.6565 32.5098)" fill="#202630" stroke="#202630" stroke-width=".115693"/>
  <rect x="70.0311" y="29.345" width="1.96678" height="2.8339" rx=".462772" transform="rotate(23.4772 70.0311 29.345)" fill="#202630" stroke="#202630" stroke-width=".115693"/>
  <rect x="66.2882" y="31.4812" width="1.96678" height="2.8339" rx=".462772" transform="rotate(23.4772 66.2882 31.4812)" fill="#202630" stroke="#202630" stroke-width=".115693"/>
  <rect x="67.6628" y="28.3162" width="1.96678" height="2.8339" rx=".462772" transform="rotate(23.4772 67.6628 28.3162)" fill="#202630" stroke="#202630" stroke-width=".115693"/>
  <rect x="63.921" y="30.4529" width="1.96678" height="2.8339" rx=".462772" transform="rotate(23.4772 63.921 30.4529)" fill="#202630" stroke="#202630" stroke-width=".115693"/>
  <rect x="65.2957" y="27.2881" width="1.96678" height="2.8339" rx=".462772" transform="rotate(23.4772 65.2957 27.2881)" fill="#202630" stroke="#202630" stroke-width=".115693"/>
  <rect x="61.5526" y="29.4243" width="1.96678" height="2.8339" rx=".462772" transform="rotate(23.4772 61.5526 29.4243)" fill="#202630" stroke="#202630" stroke-width=".115693"/>
  <rect x="62.9274" y="26.2593" width="1.96678" height="2.8339" rx=".462772" transform="rotate(23.4772 62.9274 26.2593)" fill="#202630" stroke="#202630" stroke-width=".115693"/>
  <rect x="63.9086" y="24" width="13.143" height="1.8482" rx=".462772" transform="rotate(23.4772 63.9086 24)" fill="#202630" stroke="#202630" stroke-width=".115693"/>
  <path d="M41 4.48695C34.2243 2.53439 31 9.51792 31 13.9999H34C33.5282 6.74529 38.8491 5.7889 41 7.33062V4.48695Z" fill="#202630" stroke="#202630"/>
  <circle cx="43" cy="7" r="4" fill="#202630"/>
  <circle cx="44.5" cy="5.5" r="1.5" fill="#fff"/>
  <path d="M22.5 113C17.8056 113 13.9999 118.5 14 121.5 14.0001 124.5 31 124.5 31 121.5 31 118.5 27.1944 113 22.5 113ZM42.5 113C37.8056 113 33.9999 118.5 34 121.5 34.0001 124.5 51 124.5 51 121.5 51 118.5 47.1944 113 42.5 113ZM56 33C58.2091 33 60 31.2091 60 29 60 26.7909 58.2091 25 56 25V33ZM5 29C5 31.2091 6.79086 33 9 33V25C6.79086 25 5 26.7909 5 29Z" fill="#202630"/>
  <path d="M8 25.0954C8 18.9676 12.9676 14 19.0954 14H45.9046C52.0324 14 57 18.9676 57 25.0954V25.0954V33C57 39.6274 51.6274 45 45 45H20C13.3726 45 8 39.6274 8 33V25.0954V25.0954Z" fill="#953159"/>
  <path d="M14 25.224C14 22.3389 16.3389 20 19.224 20H45.776C48.6611 20 51 22.3389 51 25.224V25.224V31C51 35.4183 47.4183 39 43 39H22C17.5817 39 14 35.4183 14 31V25.224V25.224Z" fill="#fff"/>
  <path d="M36.2279 33L28.7791 33C28.3489 33 27.9993 33.3488 28.0004 33.779C28.0051 35.6012 30.3195 37 32.5 37C34.6806 37 37 35.6665 37 33.7721C37 33.3457 36.6543 33 36.2279 33Z" fill="#202630"/>
  <path fill-rule="evenodd" clip-rule="evenodd" d="M21.921 24.8372C21.3533 25.383 21 26.1502 21 26.9999 21 28.6568 22.3431 29.9999 24 29.9999 25.3185 29.9999 26.4384 29.1493 26.8407 27.9669 24.7491 27.7562 22.9501 26.5539 21.921 24.8372ZM38.1593 27.9669C38.5617 29.1493 39.6815 29.9999 41.0001 29.9999 42.6569 29.9999 44.0001 28.6568 44.0001 26.9999 44.0001 26.1502 43.6468 25.383 43.0791 24.8372 42.05 26.5539 40.251 27.7562 38.1593 27.9669Z" fill="#202630"/>
  <rect x="43.97" y="66.8552" width="1.96678" height="2.8339" rx=".462772" fill="#202630" stroke="#202630" stroke-width=".115693"/>
  <rect x="43.97" y="63.4045" width="1.96678" height="2.8339" rx=".462772" fill="#202630" stroke="#202630" stroke-width=".115693"/>
  <rect x="41.3883" y="66.8552" width="1.96678" height="2.8339" rx=".462772" fill="#202630" stroke="#202630" stroke-width=".115693"/>
  <rect x="41.3883" y="63.4045" width="1.96678" height="2.8339" rx=".462772" fill="#202630" stroke="#202630" stroke-width=".115693"/>
  <rect x="38.8075" y="66.8552" width="1.96678" height="2.8339" rx=".462772" fill="#202630" stroke="#202630" stroke-width=".115693"/>
  <rect x="38.8075" y="63.4045" width="1.96678" height="2.8339" rx=".462772" fill="#202630" stroke="#202630" stroke-width=".115693"/>
  <rect x="36.2255" y="66.8552" width="1.96678" height="2.8339" rx=".462772" fill="#202630" stroke="#202630" stroke-width=".115693"/>
  <rect x="36.2255" y="63.4045" width="1.96678" height="2.8339" rx=".462772" fill="#202630" stroke="#202630" stroke-width=".115693"/>
  <rect x="33.6438" y="66.8552" width="1.96678" height="2.8339" rx=".462772" fill="#202630" stroke="#202630" stroke-width=".115693"/>
  <rect x="33.6438" y="63.4045" width="1.96678" height="2.8339" rx=".462772" fill="#202630" stroke="#202630" stroke-width=".115693"/>
  <rect x="34.9958" y="70.3042" width="1.96678" height="2.8339" rx=".462772" fill="#202630" stroke="#202630" stroke-width=".115693"/>
  <rect x="32.4149" y="70.3042" width="1.96678" height="2.8339" rx=".462772" fill="#202630" stroke="#202630" stroke-width=".115693"/>
  <rect x="30.325" y="63.4045" width="2.45848" height="6.28387" rx=".462772" fill="#202630" stroke="#202630" stroke-width=".115693"/>
  <rect x="28.7264" y="70.3042" width="1.96678" height="2.8339" rx=".462772" fill="#202630" stroke="#202630" stroke-width=".115693"/>
  <rect x="26.146" y="70.3042" width="1.96678" height="2.8339" rx=".462772" fill="#202630" stroke="#202630" stroke-width=".115693"/>
  <rect x="27.4985" y="66.8552" width="1.96678" height="2.8339" rx=".462772" fill="#202630" stroke="#202630" stroke-width=".115693"/>
  <rect x="27.4985" y="63.4045" width="1.96678" height="2.8339" rx=".462772" fill="#202630" stroke="#202630" stroke-width=".115693"/>
  <rect x="24.9164" y="66.8552" width="1.96678" height="2.8339" rx=".462772" fill="#202630" stroke="#202630" stroke-width=".115693"/>
  <rect x="24.9164" y="63.4045" width="1.96678" height="2.8339" rx=".462772" fill="#202630" stroke="#202630" stroke-width=".115693"/>
  <rect x="22.3356" y="66.8552" width="1.96678" height="2.8339" rx=".462772" fill="#202630" stroke="#202630" stroke-width=".115693"/>
  <rect x="22.3356" y="63.4045" width="1.96678" height="2.8339" rx=".462772" fill="#202630" stroke="#202630" stroke-width=".115693"/>
  <rect x="19.7535" y="66.8552" width="1.96678" height="2.8339" rx=".462772" fill="#202630" stroke="#202630" stroke-width=".115693"/>
  <rect x="19.7535" y="63.4045" width="1.96678" height="2.8339" rx=".462772" fill="#202630" stroke="#202630" stroke-width=".115693"/>
  <rect x="19.7534" y="60.9414" width="26.1828" height="1.8482" rx=".462772" fill="#202630" stroke="#202630" stroke-width=".115693"/>
</svg>
