<svg viewBox="0 0 77 124" fill="none" xmlns="http://www.w3.org/2000/svg"><path d="M1 72.391C1 58 10.5 54 24.13 54v4C6.5 58.487 6.217 66.987 6.217 72.391c0 3.479-5.217 3.479-5.217 0ZM76.13 72.391C76.13 58 66.63 54 53 54v4c17.63.487 17.913 8.987 17.913 14.391 0 3.479 5.218 3.479 5.218 0Z" fill="#202630" stroke="#202630" stroke-width="1.739"/><path fill="#202630" d="M25 94h7v21h-7zM45 98h7v21h-7zM30 45h17v5H30z"/><path d="M18 60c0-5.523 4.477-10 10-10h21c5.523 0 10 4.477 10 10v29c0 5.523-4.477 10-10 10H28c-5.523 0-10-4.477-10-10V60Z" fill="#E8686A"/><rect x="51.47" y="66.855" width="1.967" height="2.834" rx=".463" fill="#202630" stroke="#202630" stroke-width=".116"/><rect x="51.47" y="63.404" width="1.967" height="2.834" rx=".463" fill="#202630" stroke="#202630" stroke-width=".116"/><rect x="48.888" y="66.855" width="1.967" height="2.834" rx=".463" fill="#202630" stroke="#202630" stroke-width=".116"/><rect x="48.888" y="63.404" width="1.967" height="2.834" rx=".463" fill="#202630" stroke="#202630" stroke-width=".116"/><rect x="46.307" y="66.855" width="1.967" height="2.834" rx=".463" fill="#202630" stroke="#202630" stroke-width=".116"/><rect x="46.307" y="63.404" width="1.967" height="2.834" rx=".463" fill="#202630" stroke="#202630" stroke-width=".116"/><rect x="43.725" y="66.855" width="1.967" height="2.834" rx=".463" fill="#202630" stroke="#202630" stroke-width=".116"/><rect x="43.725" y="63.404" width="1.967" height="2.834" rx=".463" fill="#202630" stroke="#202630" stroke-width=".116"/><rect x="41.144" y="66.855" width="1.967" height="2.834" rx=".463" fill="#202630" stroke="#202630" stroke-width=".116"/><rect x="41.144" y="63.404" width="1.967" height="2.834" rx=".463" fill="#202630" stroke="#202630" stroke-width=".116"/><rect x="42.496" y="70.304" width="1.967" height="2.834" rx=".463" fill="#202630" stroke="#202630" stroke-width=".116"/><rect x="39.915" y="70.304" width="1.967" height="2.834" rx=".463" fill="#202630" stroke="#202630" stroke-width=".116"/><rect x="37.825" y="63.404" width="2.458" height="6.284" rx=".463" fill="#202630" stroke="#202630" stroke-width=".116"/><rect x="36.226" y="70.304" width="1.967" height="2.834" rx=".463" fill="#202630" stroke="#202630" stroke-width=".116"/><rect x="33.646" y="70.304" width="1.967" height="2.834" rx=".463" fill="#202630" stroke="#202630" stroke-width=".116"/><rect x="34.998" y="66.855" width="1.967" height="2.834" rx=".463" fill="#202630" stroke="#202630" stroke-width=".116"/><rect x="34.998" y="63.404" width="1.967" height="2.834" rx=".463" fill="#202630" stroke="#202630" stroke-width=".116"/><rect x="32.416" y="66.855" width="1.967" height="2.834" rx=".463" fill="#202630" stroke="#202630" stroke-width=".116"/><rect x="32.416" y="63.404" width="1.967" height="2.834" rx=".463" fill="#202630" stroke="#202630" stroke-width=".116"/><rect x="29.836" y="66.855" width="1.967" height="2.834" rx=".463" fill="#202630" stroke="#202630" stroke-width=".116"/><rect x="29.836" y="63.404" width="1.967" height="2.834" rx=".463" fill="#202630" stroke="#202630" stroke-width=".116"/><rect x="27.253" y="66.855" width="1.967" height="2.834" rx=".463" fill="#202630" stroke="#202630" stroke-width=".116"/><rect x="27.253" y="63.404" width="1.967" height="2.834" rx=".463" fill="#202630" stroke="#202630" stroke-width=".116"/><rect x="27.253" y="60.941" width="26.183" height="1.848" rx=".463" fill="#202630" stroke="#202630" stroke-width=".116"/><path d="M47 3c-8 0-10 5.5-10 11h3c.215-9 5-8 7-8V3Z" fill="#202630" stroke="#202630"/><circle cx="49" cy="4" r="4" fill="#E8686A"/><circle cx="50.5" cy="2.5" r="1.5" fill="#fff"/><path d="M28.5 109c-4.694 0-8.5 5.5-8.5 8.5s17 3 17 0-3.806-8.5-8.5-8.5ZM48.5 113c-4.694 0-8.5 5.5-8.5 8.5s17 3 17 0-3.806-8.5-8.5-8.5ZM62 33a4 4 0 0 0 0-8v8ZM11 29a4 4 0 0 0 4 4v-8a4 4 0 0 0-4 4Z" fill="#202630"/><path d="M14 25.095C14 18.968 18.968 14 25.095 14h26.81C58.032 14 63 18.968 63 25.095V33c0 6.627-5.373 12-12 12H26c-6.627 0-12-5.373-12-12v-7.905Z" fill="#E8686A"/><path d="M20 25.224A5.224 5.224 0 0 1 25.224 20h26.552A5.224 5.224 0 0 1 57 25.224V31a8 8 0 0 1-8 8H28a8 8 0 0 1-8-8v-5.776Z" fill="#fff"/><path d="M45 27h4M29 27h4" stroke="#202630" stroke-width="2" stroke-linecap="round"/><path d="M42.192 33h-6.449c-.43 0-.78.349-.778.779.004 1.822 2.061 3.221 4 3.221 1.938 0 4-1.334 4-3.228a.772.772 0 0 0-.773-.772Z" fill="#202630"/></svg>