<svg fill="none" xmlns="http://www.w3.org/2000/svg" viewBox="0 0 40 40">
  <title id="stenographer-title">Stenographer</title>
  <circle cx="20" cy="20" r="20" fill="#067551"/>
  <path d="M22.5394 18.0806 15.8976 19.0011C14.9071 19.1383 14.2976 18.383 14.2059 17.7212 14.1142 17.0593 14.4953 16.1667 15.4858 16.0295L22.1276 15.109C22.7162 15.0275 23.007 15.6652 23.1207 16.4857 23.2344 17.3063 23.128 17.9991 22.5394 18.0806ZM14.5 22.0001H9C8.56364 22.0001 8 21.6545 8 21.0001 8 19.2034 8 20.3715 8 19.0001 8 18.3016 8.5 18.0001 9 18.0001 9.15127 18.0001 8.5 18 9.5 18 10.5 18 12.8463 19.7145 14 19.7145 15 19.7145 16 19.7145 16 20.8573 16 22.0001 15 22.0001 14.5 22.0001ZM20 6.5C20 8.433 21.567 10 23.5 10 25.433 10 27 8.433 27 6.5 27 4.567 25.433 3 23.5 3 21.567 3 20 4.567 20 6.5Z" fill="#fff"/>
  <path d="M21 24.5938V13.4192C21 12.4192 22 11 23.5 11C25 11 26 12.4288 26 13.4192V24.5938C26 25.5841 24.8807 26 23.5 26C22.1193 26 21 25.5841 21 24.5938Z" fill="#fff"/>
  <path d="M15 23H24C25 23 26 24 26 25C26 26 25 27 24 27H15C14.1922 27 13 26.2095 13 25C13 23.7905 14 23 15 23Z" fill="#fff"/>
  <path d="M13 34V25.3502C13 24.6045 13.8954 24 15 24C16.1046 24 17 24.6045 17 25.3502L17 34C17 35 16 36 15 36C14 36 13 35 13 34Z" fill="#fff"/>
</svg>
