<svg viewBox="0 0 77 124" fill="none" xmlns="http://www.w3.org/2000/svg">
  <title id="thinking-robot-title">Thinking robot</title>
  <path d="M63.5049 91.1213C68.9683 77.6579 60.9528 68.4114 52.669 63.6287L50.669 67.0928C64.0371 75.243 59.8681 86.9857 58.9865 88.5126 57.2474 91.5249 62.1971 94.3443 63.5049 91.1213ZM3.48842 91.0885C-1.97507 77.6252 5.92768 68.4438 14.2114 63.6612L16.2114 67.1253C2.84331 75.2754 6.93699 87.0616 7.81855 88.5885 9.55768 91.6008 4.79633 94.3115 3.48842 91.0885Z" fill="#202630" stroke="#202630" stroke-width="1.73913"/>
  <path fill="#202630" d="M20 98H27V119H20zM40 98H47V119H40zM25 51H42V56H25z"/>
  <path d="M13 64C13 58.4772 17.4772 54 23 54H44C49.5228 54 54 58.4772 54 64V89C54 94.5228 49.5228 99 44 99H23C17.4772 99 13 94.5228 13 89V64Z" fill="#3F75D8"/>
  <rect x="45.97" y="66.8552" width="1.96678" height="2.8339" rx=".462772" fill="#202630" stroke="#202630" stroke-width=".115693"/>
  <rect x="45.97" y="63.4045" width="1.96678" height="2.8339" rx=".462772" fill="#202630" stroke="#202630" stroke-width=".115693"/>
  <rect x="43.3883" y="66.8552" width="1.96678" height="2.8339" rx=".462772" fill="#202630" stroke="#202630" stroke-width=".115693"/>
  <rect x="43.3883" y="63.4045" width="1.96678" height="2.8339" rx=".462772" fill="#202630" stroke="#202630" stroke-width=".115693"/>
  <rect x="40.8075" y="66.8552" width="1.96678" height="2.8339" rx=".462772" fill="#202630" stroke="#202630" stroke-width=".115693"/>
  <rect x="40.8075" y="63.4045" width="1.96678" height="2.8339" rx=".462772" fill="#202630" stroke="#202630" stroke-width=".115693"/>
  <rect x="38.2255" y="66.8552" width="1.96678" height="2.8339" rx=".462772" fill="#202630" stroke="#202630" stroke-width=".115693"/>
  <rect x="38.2255" y="63.4045" width="1.96678" height="2.8339" rx=".462772" fill="#202630" stroke="#202630" stroke-width=".115693"/>
  <rect x="35.6438" y="66.8552" width="1.96678" height="2.8339" rx=".462772" fill="#202630" stroke="#202630" stroke-width=".115693"/>
  <rect x="35.6438" y="63.4045" width="1.96678" height="2.8339" rx=".462772" fill="#202630" stroke="#202630" stroke-width=".115693"/>
  <rect x="36.9958" y="70.3042" width="1.96678" height="2.8339" rx=".462772" fill="#202630" stroke="#202630" stroke-width=".115693"/>
  <rect x="34.4149" y="70.3042" width="1.96678" height="2.8339" rx=".462772" fill="#202630" stroke="#202630" stroke-width=".115693"/>
  <rect x="32.325" y="63.4045" width="2.45848" height="6.28387" rx=".462772" fill="#202630" stroke="#202630" stroke-width=".115693"/>
  <rect x="30.7264" y="70.3042" width="1.96678" height="2.8339" rx=".462772" fill="#202630" stroke="#202630" stroke-width=".115693"/>
  <rect x="28.146" y="70.3042" width="1.96678" height="2.8339" rx=".462772" fill="#202630" stroke="#202630" stroke-width=".115693"/>
  <rect x="29.4985" y="66.8552" width="1.96678" height="2.8339" rx=".462772" fill="#202630" stroke="#202630" stroke-width=".115693"/>
  <rect x="29.4985" y="63.4045" width="1.96678" height="2.8339" rx=".462772" fill="#202630" stroke="#202630" stroke-width=".115693"/>
  <rect x="26.9164" y="66.8552" width="1.96678" height="2.8339" rx=".462772" fill="#202630" stroke="#202630" stroke-width=".115693"/>
  <rect x="26.9164" y="63.4045" width="1.96678" height="2.8339" rx=".462772" fill="#202630" stroke="#202630" stroke-width=".115693"/>
  <rect x="24.3356" y="66.8552" width="1.96678" height="2.8339" rx=".462772" fill="#202630" stroke="#202630" stroke-width=".115693"/>
  <rect x="24.3356" y="63.4045" width="1.96678" height="2.8339" rx=".462772" fill="#202630" stroke="#202630" stroke-width=".115693"/>
  <rect x="21.7535" y="66.8552" width="1.96678" height="2.8339" rx=".462772" fill="#202630" stroke="#202630" stroke-width=".115693"/>
  <rect x="21.7535" y="63.4045" width="1.96678" height="2.8339" rx=".462772" fill="#202630" stroke="#202630" stroke-width=".115693"/>
  <rect x="21.7534" y="60.9414" width="26.1828" height="1.8482" rx=".462772" fill="#202630" stroke="#202630" stroke-width=".115693"/>
  <path d="M26 10.487C32.7757 8.53439 36 15.5179 36 19.9999H33C33.4718 12.7453 28.1509 11.7889 26 13.3306V10.487Z" fill="#202630" stroke="#202630"/>
  <circle r="4" transform="matrix(-1 0 0 1 24 13)" fill="#202630"/>
  <circle r="1.5" transform="matrix(-1 0 0 1 22.5 11.5)" fill="#fff"/>
  <path d="M23.5 113C18.8056 113 14.9999 118.5 15 121.5 15.0001 124.5 32 124.5 32 121.5 32 118.5 28.1944 113 23.5 113ZM43.5 113C38.8056 113 34.9999 118.5 35 121.5 35.0001 124.5 52 124.5 52 121.5 52 118.5 48.1944 113 43.5 113ZM55 39C57.2091 39 59 37.2091 59 35 59 32.7909 57.2091 31 55 31V39ZM8 35C8 37.2091 9.79086 39 12 39V31C9.79086 31 8 32.7909 8 35Z" fill="#202630"/>
  <path d="M11 31.0954C11 24.9676 15.9676 20 22.0954 20H44.9046C51.0324 20 56 24.9676 56 31.0954V31.0954V39C56 45.6274 50.6274 51 44 51H23C16.3726 51 11 45.6274 11 39V31.0954V31.0954Z" fill="#3F75D8"/>
  <path d="M17 31.224C17 28.3389 19.3389 26 22.224 26H44.776C47.6611 26 50 28.3389 50 31.224V31.224V37C50 41.4183 46.4183 45 42 45H25C20.5817 45 17 41.4183 17 37V31.224V31.224Z" fill="#fff"/>
  <path d="M36.9646 38.4173L30.9646 38.4173C30.4123 38.4173 29.9644 38.8651 29.9644 39.4173C29.9643 39.6888 29.9644 39.9355 29.9647 40.0473C29.9688 41.8694 32.0263 42 33.9646 42C35.9029 42 37.9646 41.9416 37.9646 40.0473L37.9646 39.4173C37.9646 38.8651 37.5168 38.4173 36.9646 38.4173Z" fill="#202630"/>
  <circle cx="25" cy="34" r="3" fill="#202630"/>
  <circle cx="42" cy="34" r="3" fill="#202630"/>
  <path fill-rule="evenodd" clip-rule="evenodd" d="M44.91 16.0001C47.0642 15.9869 49.261 16.9339 49.8738 18.8203C50.4516 20.5993 48.9528 22.2213 47.2673 23.2572C45.7954 24.1618 43.9271 24.2843 42.4553 23.3796C40.7921 22.3571 39.5642 20.6321 40.147 18.8799C40.759 17.0402 42.8051 16.013 44.91 16.0001Z" fill="#fff" stroke="#353F50"/>
  <path fill-rule="evenodd" clip-rule="evenodd" d="M60.7791 1.00041C54.101 0.960804 47.291 3.80155 45.3914 9.46095C43.6 14.7979 48.2462 19.664 53.4713 22.7717C58.0341 25.4854 63.8261 25.853 68.3885 23.1387C73.5445 20.0712 77.351 14.8962 75.5442 9.63977C73.6472 4.12074 67.3043 1.03911 60.7791 1.00041Z" fill="#fff" stroke="#353F50"/>
  <path d="M57.718 13.892C57.49 14.132 57.202 14.252 56.854 14.252C56.506 14.252 56.212 14.132 55.972 13.892C55.744 13.64 55.63 13.352 55.63 13.028C55.63 12.692 55.744 12.404 55.972 12.164C56.212 11.924 56.506 11.804 56.854 11.804C57.202 11.804 57.49 11.924 57.718 12.164C57.958 12.404 58.078 12.692 58.078 13.028C58.078 13.352 57.958 13.64 57.718 13.892ZM61.408 13.892C61.18 14.132 60.892 14.252 60.544 14.252C60.196 14.252 59.902 14.132 59.662 13.892C59.434 13.64 59.32 13.352 59.32 13.028C59.32 12.692 59.434 12.404 59.662 12.164C59.902 11.924 60.196 11.804 60.544 11.804C60.892 11.804 61.18 11.924 61.408 12.164C61.648 12.404 61.768 12.692 61.768 13.028C61.768 13.352 61.648 13.64 61.408 13.892ZM65.116 13.892C64.876 14.132 64.582 14.252 64.234 14.252C63.886 14.252 63.592 14.132 63.352 13.892C63.124 13.64 63.01 13.352 63.01 13.028C63.01 12.692 63.124 12.404 63.352 12.164C63.592 11.924 63.886 11.804 64.234 11.804C64.582 11.804 64.876 11.93 65.116 12.182C65.356 12.422 65.476 12.704 65.476 13.028C65.476 13.352 65.356 13.64 65.116 13.892Z" fill="#353F50"/>
</svg>
