<?xml version="1.0" encoding="UTF-8"?>
<svg width="332px" height="178px" viewBox="0 0 332 178" version="1.1" xmlns="http://www.w3.org/2000/svg" xmlns:xlink="http://www.w3.org/1999/xlink">
    <!-- Generator: Sketch 51.3 (57544) - http://www.bohemiancoding.com/sketch -->
    <title>palantype-diagram</title>
    <desc>Created with Sketch.</desc>
    <defs></defs>
    <g id="Page-1" stroke="none" stroke-width="1" fill="none" fill-rule="evenodd">
        <g id="palantype-diagram" transform="translate(-1.000000, -1.000000)">
            <g id="base-layout-left">
                <rect id="leftE" stroke="#7109AA" fill="#E9D9F2" fill-rule="nonzero" transform="translate(131.190700, 146.108550) rotate(27.064711) translate(-131.190700, -146.108550) " x="117.290594" y="132.208444" width="27.800212" height="27.800212" rx="4"></rect>
                <polygon id="E" fill="#FFFFFF" transform="translate(130.598000, 146.700000) rotate(27.000000) translate(-130.598000, -146.700000) " points="126.368 153 126.368 140.4 134.45 140.4 134.45 142.434 128.51 142.434 128.51 145.476 132.38 145.476 132.38 147.51 128.51 147.51 128.51 150.966 134.828 150.966 134.828 153"></polygon>
                <rect id="leftO" stroke="#7109AA" fill="#E9D9F2" fill-rule="nonzero" transform="translate(145.389500, 118.303350) rotate(27.064711) translate(-145.389500, -118.303350) " x="131.489394" y="104.403244" width="27.800212" height="27.800212" rx="4"></rect>
                <path d="M145.544,125.216 C142.16,125.216 140.774,122.084 140.774,118.7 C140.774,115.316 142.16,112.184 145.544,112.184 C148.928,112.184 150.332,115.316 150.332,118.7 C150.332,122.084 148.928,125.216 145.544,125.216 Z M145.544,123.182 C147.326,123.182 148.1,120.95 148.1,118.7 C148.1,116.306 147.344,114.218 145.544,114.218 C143.744,114.218 142.988,116.432 142.988,118.7 C142.988,121.076 143.744,123.182 145.544,123.182 Z" id="OLeft" fill="#FFFFFF" transform="translate(145.553000, 118.700000) rotate(27.000000) translate(-145.553000, -118.700000) "></path>
                <rect id="leftY" stroke="#7109AA" fill="#E9D9F2" fill-rule="nonzero" transform="translate(117.306850, 103.908050) rotate(27.064711) translate(-117.306850, -103.908050) " x="103.406744" y="90.007944" width="27.800212" height="27.800212" rx="4"></rect>
                <polygon id="YLeft" fill="#FFFFFF" transform="translate(117.544000, 103.700000) rotate(27.000000) translate(-117.544000, -103.700000) " points="119.956 97.4 122.314 97.4 118.606 105.068 118.606 110 116.482 110 116.482 105.068 112.774 97.4 115.15 97.4 117.544 102.782"></polygon>
                <rect id="leftL" stroke="#7109AA" fill="#E9D9F2" fill-rule="nonzero" transform="translate(131.505750, 76.102850) rotate(27.064711) translate(-131.505750, -76.102850) " x="117.605644" y="62.202744" width="27.800212" height="27.800212" rx="4"></rect>
                <polygon id="LLeft" fill="#FFFFFF" transform="translate(131.346000, 76.700000) rotate(27.000000) translate(-131.346000, -76.700000) " points="127.368 83 127.368 70.4 129.51 70.4 129.51 80.948 135.324 80.948 135.324 83"></polygon>
                <rect id="leftN" stroke="#7109AA" fill="#E9D9F2" fill-rule="nonzero" transform="translate(145.704550, 48.297650) rotate(27.064711) translate(-145.704550, -48.297650) " x="131.804444" y="34.397544" width="27.800212" height="27.800212" rx="4"></rect>
                <path d="M142.368,54 L142.368,41.4 L144.402,41.4 L148.326,49.176 C148.452,49.392 148.65,49.734 148.776,50.04 C148.758,49.698 148.74,49.392 148.74,49.176 L148.74,41.4 L150.72,41.4 L150.72,54 L148.776,54 L144.78,46.188 C144.654,45.972 144.438,45.594 144.312,45.324 C144.366,45.594 144.366,45.954 144.366,46.188 L144.366,54 L142.368,54 Z" id="NLeft" fill="#FFFFFF" transform="translate(146.544000, 47.700000) rotate(27.000000) translate(-146.544000, -47.700000) "></path>
                <rect id="leftR" stroke="#7109AA" fill="#E9D9F2" fill-rule="nonzero" transform="translate(95.500050, 77.199700) rotate(27.064711) translate(-95.500050, -77.199700) " x="81.599944" y="63.299594" width="27.800212" height="27.800212" rx="4"></rect>
                <path d="M99.846,75.216 C99.846,76.764 99,78.258 97.29,78.834 L99.828,84 L97.452,84 L95.004,79.068 L93.51,79.068 L93.51,84 L91.368,84 L91.368,71.4 L95.724,71.4 C98.838,71.4 99.846,73.236 99.846,75.216 Z M93.51,73.416 L93.51,77.052 L95.76,77.052 C97.2,77.052 97.65,76.17 97.65,75.234 C97.65,74.388 97.254,73.416 95.76,73.416 L93.51,73.416 Z" id="RLeft" fill="#FFFFFF" transform="translate(95.607000, 77.700000) rotate(27.000000) translate(-95.607000, -77.700000) "></path>
                <rect id="leftF" stroke="#7109AA" fill="#E9D9F2" fill-rule="nonzero" transform="translate(109.698950, 49.394500) rotate(27.064711) translate(-109.698950, -49.394500) " x="95.798844" y="35.494394" width="27.800212" height="27.800212" rx="4"></rect>
                <polygon id="FLeft" fill="#FFFFFF" transform="translate(110.616000, 49.700000) rotate(27.000000) translate(-110.616000, -49.700000) " points="106.368 56 106.368 43.4 114.864 43.4 114.864 45.434 108.51 45.434 108.51 48.476 113.136 48.476 113.136 50.51 108.51 50.51 108.51 56"></polygon>
                <rect id="leftM" stroke="#7109AA" fill="#E9D9F2" fill-rule="nonzero" transform="translate(123.897750, 21.589300) rotate(27.064711) translate(-123.897750, -21.589300) " x="109.997644" y="7.68919401" width="27.800212" height="27.800212" rx="4"></rect>
                <path d="M119.168,27.470518 L119.168,14.870518 L121.256,14.870518 L123.074,21.782518 C123.182,22.178518 123.326,22.700518 123.38,23.024518 C123.416,22.700518 123.542,22.178518 123.686,21.782518 L125.558,14.870518 L127.52,14.870518 L127.52,27.470518 L125.666,27.470518 L125.666,20.630518 C125.666,20.360518 125.666,19.838518 125.702,19.586518 L125.36,20.630518 L123.434,27.470518 L123.254,27.470518 L121.328,20.630518 L120.986,19.586518 C121.004,19.838518 121.022,20.360518 121.022,20.630518 L121.022,27.470518 L119.168,27.470518 Z" id="MLeft" fill="#FFFFFF" transform="translate(123.344000, 21.170518) rotate(27.000000) translate(-123.344000, -21.170518) "></path>
                <rect id="leftTwoPlus" stroke="#7109AA" fill="#E9D9F2" fill-rule="nonzero" transform="translate(89.165175, 124.185050) rotate(27.064711) translate(-89.165175, -124.185050) " x="59.5149489" y="110.284944" width="59.3004522" height="27.800212" rx="4"></rect>
                <polygon id="plusLeftTwo" fill="#FFFFFF" transform="translate(89.054179, 124.261734) rotate(27.000000) translate(-89.054179, -124.261734) " points="90.0981788 125.269734 90.0981788 128.491734 88.0101788 128.491734 88.0101788 125.269734 84.8241788 125.269734 84.8241788 123.253734 88.0101788 123.253734 88.0101788 120.031734 90.0981788 120.031734 90.0981788 123.253734 93.2841788 123.253734 93.2841788 125.269734"></polygon>
                <rect id="leftOnePlus" stroke="#7109AA" fill="#E9D9F2" fill-rule="nonzero" transform="translate(32.954375, 95.483600) rotate(27.064711) translate(-32.954375, -95.483600) " x="3.30414892" y="81.583494" width="59.3004522" height="27.800212" rx="4"></rect>
                <polygon id="plusLeftOne" fill="#FFFFFF" transform="translate(33.269932, 95.626910) rotate(27.000000) translate(-33.269932, -95.626910) " points="34.3139321 96.6349099 34.3139321 99.8569099 32.2259321 99.8569099 32.2259321 96.6349099 29.0399321 96.6349099 29.0399321 94.6189099 32.2259321 94.6189099 32.2259321 91.3969099 34.3139321 91.3969099 34.3139321 94.6189099 37.4999321 94.6189099 37.4999321 96.6349099"></polygon>
                <rect id="leftH" stroke="#7109AA" fill="#E9D9F2" fill-rule="nonzero" transform="translate(61.096150, 75.206600) rotate(27.064711) translate(-61.096150, -75.206600) " x="47.196044" y="61.306494" width="27.800212" height="27.800212" rx="4"></rect>
                <polygon id="HLeft" fill="#FFFFFF" transform="translate(61.544000, 75.700000) rotate(27.000000) translate(-61.544000, -75.700000) " points="57.368 82 57.368 69.4 59.51 69.4 59.51 74.494 63.578 74.494 63.578 69.4 65.72 69.4 65.72 82 63.578 82 63.578 76.51 59.51 76.51 59.51 82"></polygon>
                <rect id="leftT" stroke="#7109AA" fill="#E9D9F2" fill-rule="nonzero" transform="translate(75.294950, 47.401400) rotate(27.064711) translate(-75.294950, -47.401400) " x="61.394844" y="33.501294" width="27.800212" height="27.800212" rx="4"></rect>
                <polygon id="TLeft" fill="#FFFFFF" transform="translate(75.544000, 47.700000) rotate(27.000000) translate(-75.544000, -47.700000) " points="74.464 54 74.464 43.452 70.81 43.452 70.81 41.4 80.278 41.4 80.278 43.452 76.606 43.452 76.606 54"></polygon>
                <rect id="leftP" stroke="#7109AA" fill="#E9D9F2" fill-rule="nonzero" transform="translate(89.493850, 19.596200) rotate(27.064711) translate(-89.493850, -19.596200) " x="75.593744" y="5.69609401" width="27.800212" height="27.800212" rx="4"></rect>
                <path d="M85.368,26 L85.368,13.4 L89.814,13.4 C92.946,13.4 94.026,15.38 94.026,17.306 C94.026,19.106 92.838,21.212 89.814,21.212 L87.51,21.212 L87.51,26 L85.368,26 Z M87.51,19.196 L89.922,19.196 C91.326,19.196 91.848,18.206 91.848,17.306 C91.848,16.496 91.416,15.416 89.922,15.416 L87.51,15.416 L87.51,19.196 Z" id="PLeft" fill="#FFFFFF" transform="translate(89.697000, 19.700000) rotate(27.000000) translate(-89.697000, -19.700000) "></path>
                <rect id="leftS" stroke="#7109AA" fill="#E9D9F2" fill-rule="nonzero" transform="translate(33.013500, 60.811300) rotate(27.064711) translate(-33.013500, -60.811300) " x="19.113394" y="46.911194" width="27.800212" height="27.800212" rx="4"></rect>
                <path d="M33.4139321,67.0169099 C31.3619321,67.0169099 29.5979321,65.7389099 28.9319321,63.7769099 L30.8759321,63.0569099 C31.4159321,64.2089099 32.4599321,65.0009099 33.5939321,65.0009099 C34.6739321,65.0009099 35.4299321,64.4429099 35.4299321,63.3269099 C35.4299321,62.3369099 34.2239321,61.6529099 32.8379321,61.0409099 C31.2359321,60.3389099 29.3819321,59.4569099 29.3819321,57.3149099 C29.3819321,55.4969099 30.8939321,53.9849099 33.2699321,53.9849099 C35.1599321,53.9849099 36.6179321,55.1369099 37.0679321,56.6669099 L35.1419321,57.3149099 C34.7819321,56.5769099 34.0979321,56.0009099 33.1439321,56.0009099 C32.2439321,56.0009099 31.5419321,56.4869099 31.5419321,57.3509099 C31.5419321,58.2329099 32.6759321,58.6469099 33.9539321,59.2409099 C35.5199321,59.9609099 37.5899321,61.0229099 37.5899321,63.2729099 C37.5899321,65.6669099 35.6459321,67.0169099 33.4139321,67.0169099 Z" id="SLeft" fill="#FFFFFF" transform="translate(33.260932, 60.500910) rotate(27.000000) translate(-33.260932, -60.500910) "></path>
                <rect id="leftC" stroke="#7109AA" fill="#E9D9F2" fill-rule="nonzero" transform="translate(47.212300, 33.006100) rotate(27.064711) translate(-47.212300, -33.006100) " x="33.312194" y="19.105994" width="27.800212" height="27.800212" rx="4"></rect>
                <path d="M47.76,40.198 C44.106,40.198 42.774,36.85 42.774,33.7 C42.774,30.676 44.16,27.202 47.76,27.202 C49.884,27.202 51.144,28.516 51.666,29.83 L49.758,30.748 C49.272,29.812 48.732,29.236 47.76,29.236 C45.708,29.236 44.988,31.684 44.988,33.7 C44.988,35.842 45.852,38.164 47.76,38.164 C48.732,38.164 49.326,37.498 49.776,36.544 L51.72,37.282 C51.036,38.956 49.794,40.198 47.76,40.198 Z" id="CLeft" fill="#FFFFFF" transform="translate(47.247000, 33.700000) rotate(27.000000) translate(-47.247000, -33.700000) "></path>
            </g>
            <g id="center" transform="translate(139.000000, 113.000000)">
                <path d="M28.0754993,1.98460897 L51.2617001,51.8954669 C51.7253758,52.89358 51.2955164,54.0787646 50.2998,54.547565 L28.1493773,64.9763632 C27.0442956,65.4966546 25.7620541,65.483519 24.6678632,64.9406977 L2.59454864,53.9902644 C1.60505039,53.4993805 1.2008436,52.2992936 1.69172749,51.3097954 C1.69220725,51.3088283 1.6926878,51.3078616 1.69316912,51.3068953 L26.273481,1.96005713 C26.5197238,1.4657061 27.1200937,1.26457462 27.6144447,1.5108174 C27.8173986,1.61191144 27.9799721,1.77897613 28.0754993,1.98460897 Z" id="centerI" stroke="#7109AA" fill="#E9D9F2" fill-rule="nonzero"></path>
                <polygon id="ICenter" fill="#FFFFFF" points="30.252 36.29 27.606 36.29 27.606 45.11 30.252 45.11 30.252 47 22.836 47 22.836 45.11 25.464 45.11 25.464 36.29 22.836 36.29 22.836 34.4 30.252 34.4"></polygon>
            </g>
            <g id="base-layout-right" transform="translate(168.000000, 4.000000)">
                <rect id="rightS" stroke="#7109AA" fill="#E9D9F2" fill-rule="nonzero" transform="translate(133.839120, 62.085500) rotate(155.298090) translate(-133.839120, -62.085500) " x="119.939032" y="48.185412" width="27.800176" height="27.800176" rx="4"></rect>
                <path d="M133.688,68.216 C131.636,68.216 129.872,66.938 129.206,64.976 L131.15,64.256 C131.69,65.408 132.734,66.2 133.868,66.2 C134.948,66.2 135.704,65.642 135.704,64.526 C135.704,63.536 134.498,62.852 133.112,62.24 C131.51,61.538 129.656,60.656 129.656,58.514 C129.656,56.696 131.168,55.184 133.544,55.184 C135.434,55.184 136.892,56.336 137.342,57.866 L135.416,58.514 C135.056,57.776 134.372,57.2 133.418,57.2 C132.518,57.2 131.816,57.686 131.816,58.55 C131.816,59.432 132.95,59.846 134.228,60.44 C135.794,61.16 137.864,62.222 137.864,64.472 C137.864,66.866 135.92,68.216 133.688,68.216 Z" id="SRight" fill="#FFFFFF" transform="translate(133.535000, 61.700000) rotate(335.000000) translate(-133.535000, -61.700000) "></path>
                <rect id="rightH" stroke="#7109AA" fill="#E9D9F2" fill-rule="nonzero" transform="translate(120.851430, 33.731410) rotate(155.298090) translate(-120.851430, -33.731410) " x="106.951342" y="19.831322" width="27.800176" height="27.800176" rx="4"></rect>
                <polygon id="HRight" fill="#FFFFFF" transform="translate(120.544000, 33.700000) rotate(335.000000) translate(-120.544000, -33.700000) " points="116.368 40 116.368 27.4 118.51 27.4 118.51 32.494 122.578 32.494 122.578 27.4 124.72 27.4 124.72 40 122.578 40 122.578 34.51 118.51 34.51 118.51 40"></polygon>
                <rect id="rightB" stroke="#7109AA" fill="#E9D9F2" fill-rule="nonzero" transform="translate(105.239080, 75.339320) rotate(155.298090) translate(-105.239080, -75.339320) " x="91.338992" y="61.439232" width="27.800176" height="27.800176" rx="4"></rect>
                <polygon id="PlusRight" fill="#FFFFFF" transform="translate(105.544000, 74.826000) rotate(335.000000) translate(-105.544000, -74.826000) " points="106.588 75.834 106.588 79.056 104.5 79.056 104.5 75.834 101.314 75.834 101.314 73.818 104.5 73.818 104.5 70.596 106.588 70.596 106.588 73.818 109.774 73.818 109.774 75.834"></polygon>
                <rect id="rightTwoT" stroke="#7109AA" fill="#E9D9F2" fill-rule="nonzero" transform="translate(92.209700, 46.894380) rotate(155.298090) translate(-92.209700, -46.894380) " x="78.309612" y="32.994292" width="27.800176" height="27.800176" rx="4"></rect>
                <polygon id="TRightTwo" fill="#FFFFFF" transform="translate(92.544000, 46.700000) rotate(335.000000) translate(-92.544000, -46.700000) " points="91.464 53 91.464 42.452 87.81 42.452 87.81 40.4 97.278 40.4 97.278 42.452 93.606 42.452 93.606 53"></polygon>
                <rect id="rightP" stroke="#7109AA" fill="#E9D9F2" fill-rule="nonzero" transform="translate(79.131060, 18.582080) rotate(155.298090) translate(-79.131060, -18.582080) " x="65.230972" y="4.68199201" width="27.800176" height="27.800176" rx="4"></rect>
                <path d="M75.368,25 L75.368,12.4 L79.814,12.4 C82.946,12.4 84.026,14.38 84.026,16.306 C84.026,18.106 82.838,20.212 79.814,20.212 L77.51,20.212 L77.51,25 L75.368,25 Z M77.51,18.196 L79.922,18.196 C81.326,18.196 81.848,17.206 81.848,16.306 C81.848,15.496 81.416,14.416 79.922,14.416 L77.51,14.416 L77.51,18.196 Z" id="PRight" fill="#FFFFFF" transform="translate(79.697000, 18.700000) rotate(335.000000) translate(-79.697000, -18.700000) "></path>
                <rect id="rightR" stroke="#7109AA" fill="#E9D9F2" fill-rule="nonzero" transform="translate(70.796790, 75.891270) rotate(155.298090) translate(-70.796790, -75.891270) " x="56.896702" y="61.991182" width="27.800176" height="27.800176" rx="4"></rect>
                <path d="M74.596,73.366 C74.596,74.914 73.75,76.408 72.04,76.984 L74.578,82.15 L72.202,82.15 L69.754,77.218 L68.26,77.218 L68.26,82.15 L66.118,82.15 L66.118,69.55 L70.474,69.55 C73.588,69.55 74.596,71.386 74.596,73.366 Z M68.26,71.566 L68.26,75.202 L70.51,75.202 C71.95,75.202 72.4,74.32 72.4,73.384 C72.4,72.538 72.004,71.566 70.51,71.566 L68.26,71.566 Z" id="RRight" fill="#FFFFFF" transform="translate(70.357000, 75.850000) rotate(335.000000) translate(-70.357000, -75.850000) "></path>
                <rect id="rightF" stroke="#7109AA" fill="#E9D9F2" fill-rule="nonzero" transform="translate(57.676460, 47.488120) rotate(155.298090) translate(-57.676460, -47.488120) " x="43.776372" y="33.588032" width="27.800176" height="27.800176" rx="4"></rect>
                <polygon id="FRight" fill="#FFFFFF" transform="translate(57.716000, 47.350000) rotate(335.000000) translate(-57.716000, -47.350000) " points="53.468 53.65 53.468 41.05 61.964 41.05 61.964 43.084 55.61 43.084 55.61 46.126 60.236 46.126 60.236 48.16 55.61 48.16 55.61 53.65"></polygon>
                <rect id="rightM" stroke="#7109AA" fill="#E9D9F2" fill-rule="nonzero" transform="translate(44.688770, 19.134030) rotate(155.298090) translate(-44.688770, -19.134030) " x="30.788682" y="5.23394201" width="27.800176" height="27.800176" rx="4"></rect>
                <path d="M40.6659567,25.4582491 L40.6659567,12.8582491 L42.7539567,12.8582491 L44.5719567,19.7702491 C44.6799567,20.1662491 44.8239567,20.6882491 44.8779567,21.0122491 C44.9139567,20.6882491 45.0399567,20.1662491 45.1839567,19.7702491 L47.0559567,12.8582491 L49.0179567,12.8582491 L49.0179567,25.4582491 L47.1639567,25.4582491 L47.1639567,18.6182491 C47.1639567,18.3482491 47.1639567,17.8262491 47.1999567,17.5742491 L46.8579567,18.6182491 L44.9319567,25.4582491 L44.7519567,25.4582491 L42.8259567,18.6182491 L42.4839567,17.5742491 C42.5019567,17.8262491 42.5199567,18.3482491 42.5199567,18.6182491 L42.5199567,25.4582491 L40.6659567,25.4582491 Z" id="MRight" fill="#FFFFFF" transform="translate(44.841957, 19.158249) rotate(335.000000) translate(-44.841957, -19.158249) "></path>
                <rect id="rightC" stroke="#7109AA" fill="#E9D9F2" fill-rule="nonzero" transform="translate(47.864770, 101.707050) rotate(155.298090) translate(-47.864770, -101.707050) " x="33.964682" y="87.806962" width="27.800176" height="27.800176" rx="4"></rect>
                <path d="M48.2515667,108.656249 C44.5975667,108.656249 43.2655667,105.308249 43.2655667,102.158249 C43.2655667,99.1342491 44.6515667,95.6602491 48.2515667,95.6602491 C50.3755667,95.6602491 51.6355667,96.9742491 52.1575667,98.2882491 L50.2495667,99.2062491 C49.7635667,98.2702491 49.2235667,97.6942491 48.2515667,97.6942491 C46.1995667,97.6942491 45.4795667,100.142249 45.4795667,102.158249 C45.4795667,104.300249 46.3435667,106.622249 48.2515667,106.622249 C49.2235667,106.622249 49.8175667,105.956249 50.2675667,105.002249 L52.2115667,105.740249 C51.5275667,107.414249 50.2855667,108.656249 48.2515667,108.656249 Z" id="CRight" fill="#FFFFFF" transform="translate(47.738567, 102.158249) rotate(335.000000) translate(-47.738567, -102.158249) "></path>
                <rect id="rightL" stroke="#7109AA" fill="#E9D9F2" fill-rule="nonzero" transform="translate(34.835190, 73.262110) rotate(155.298090) translate(-34.835190, -73.262110) " x="20.935102" y="59.362022" width="27.800176" height="27.800176" rx="4"></rect>
                <polygon id="LRight" fill="#FFFFFF" transform="translate(35.499811, 73.462110) rotate(335.000000) translate(-35.499811, -73.462110) " points="31.5218107 79.76211 31.5218107 67.16211 33.6638107 67.16211 33.6638107 77.71011 39.4778107 77.71011 39.4778107 79.76211"></polygon>
                <rect id="rightN" stroke="#7109AA" fill="#E9D9F2" fill-rule="nonzero" transform="translate(21.756650, 44.949910) rotate(155.298090) translate(-21.756650, -44.949910) " x="7.85656201" y="31.049822" width="27.800176" height="27.800176" rx="4"></rect>
                <path d="M17.3715233,51.45 L17.3715233,38.85 L19.4055233,38.85 L23.3295233,46.626 C23.4555233,46.842 23.6535233,47.184 23.7795233,47.49 C23.7615233,47.148 23.7435233,46.842 23.7435233,46.626 L23.7435233,38.85 L25.7235233,38.85 L25.7235233,51.45 L23.7795233,51.45 L19.7835233,43.638 C19.6575233,43.422 19.4415233,43.044 19.3155233,42.774 C19.3695233,43.044 19.3695233,43.404 19.3695233,43.638 L19.3695233,51.45 L17.3715233,51.45 Z" id="NRight" fill="#FFFFFF" transform="translate(21.547523, 45.150000) rotate(335.000000) translate(-21.547523, -45.150000) "></path>
                <rect id="rightTwoCaret" stroke="#7109AA" fill="#E9D9F2" fill-rule="nonzero" transform="translate(132.524655, 96.701455) rotate(155.298090) translate(-132.524655, -96.701455) " x="102.874467" y="82.801367" width="59.3003754" height="27.800176" rx="4"></rect>
                <polygon id="CaretRightTwo" fill="#FFFFFF" transform="translate(132.462500, 96.428911) rotate(335.000000) translate(-132.462500, -96.428911) " points="134.8205 99.7229109 132.4625 95.7989109 130.1045 99.7229109 127.9625 99.7229109 131.6345 93.1349109 133.2905 93.1349109 136.9625 99.7229109"></polygon>
                <rect id="rightOneCaret" stroke="#7109AA" fill="#E9D9F2" fill-rule="nonzero" transform="translate(75.150245, 123.069185) rotate(155.298090) translate(-75.150245, -123.069185) " x="45.5000573" y="109.169097" width="59.3003754" height="27.800176" rx="4"></rect>
                <polygon id="CaretRightOne" fill="#FFFFFF" transform="translate(75.742000, 122.478000) rotate(335.000000) translate(-75.742000, -122.478000) " points="78.1 125.772 75.742 121.848 73.384 125.772 71.242 125.772 74.914 119.184 76.57 119.184 80.242 125.772"></polygon>
                <rect id="rightA" stroke="#7109AA" fill="#E9D9F2" fill-rule="nonzero" transform="translate(19.222940, 114.870020) rotate(155.298090) translate(-19.222940, -114.870020) " x="5.32285201" y="100.969932" width="27.800176" height="27.800176" rx="4"></rect>
                <path d="M21.37,121 L20.542,118.228 L16.546,118.228 L15.718,121 L13.414,121 L17.536,108.4 L19.552,108.4 L23.674,121 L21.37,121 Z M17.122,116.284 L19.966,116.284 L18.85,112.54 C18.76,112.252 18.616,111.604 18.544,111.136 C18.454,111.604 18.328,112.252 18.238,112.54 L17.122,116.284 Z" id="ARight" fill="#FFFFFF" transform="translate(18.544000, 114.700000) rotate(335.000000) translate(-18.544000, -114.700000) "></path>
                <rect id="rightU" stroke="#7109AA" fill="#E9D9F2" fill-rule="nonzero" transform="translate(32.301480, 143.182320) rotate(155.298090) translate(-32.301480, -143.182320) " x="18.401392" y="129.282232" width="27.800176" height="27.800176" rx="4"></rect>
                <path d="M31.8419567,149.674249 C29.5739567,149.674249 27.5939567,148.396249 27.5939567,144.652249 L27.5939567,136.858249 L29.7179567,136.858249 L29.7179567,144.652249 C29.7179567,146.974249 30.6179567,147.640249 31.8419567,147.640249 C33.0479567,147.640249 33.9659567,146.974249 33.9659567,144.652249 L33.9659567,136.858249 L36.1079567,136.858249 L36.1079567,144.652249 C36.1079567,148.342249 34.1459567,149.674249 31.8419567,149.674249 Z" id="URight" fill="#FFFFFF" transform="translate(31.850957, 143.266249) rotate(335.000000) translate(-31.850957, -143.266249) "></path>
            </g>
        </g>
    </g>
</svg>