<?xml version="1.0" encoding="UTF-8"?>
<svg width="213px" height="99px" viewBox="0 0 213 99" version="1.1" xmlns="http://www.w3.org/2000/svg" xmlns:xlink="http://www.w3.org/1999/xlink">
    <!-- Generator: Sketch 50.2 (55047) - http://www.bohemiancoding.com/sketch -->
    <title>stenoboard-diagram-thickest</title>
    <desc>Created with Sketch.</desc>
    <defs></defs>
    <g id="stenoboard-diagram-thickest" stroke="none" stroke-width="1" fill="none" fill-rule="evenodd">
        <rect id="rightZ" stroke="#7109AA" fill="#7109AA" fill-rule="nonzero" x="195" y="48" width="18" height="23" rx="4"></rect>
        <rect id="rightD" stroke="#7109AA" fill="#7109AA" fill-rule="nonzero" x="195" y="20" width="18" height="23" rx="4"></rect>
        <rect id="rightS" stroke="#7109AA" fill="#7109AA" fill-rule="nonzero" x="174" y="48" width="18" height="23" rx="4"></rect>
        <rect id="rightT" stroke="#7109AA" fill="#7109AA" fill-rule="nonzero" x="174" y="20" width="18" height="23" rx="4"></rect>
        <rect id="rightG" stroke="#7109AA" fill="#7109AA" fill-rule="nonzero" x="153" y="48" width="18" height="23" rx="4"></rect>
        <rect id="rightL" stroke="#7109AA" fill="#7109AA" fill-rule="nonzero" x="153" y="20" width="18" height="23" rx="4"></rect>
        <rect id="rightB" stroke="#7109AA" fill="#7109AA" fill-rule="nonzero" x="132" y="48" width="18" height="23" rx="4"></rect>
        <rect id="rightP" stroke="#7109AA" fill="#7109AA" fill-rule="nonzero" x="132" y="20" width="18" height="23" rx="4"></rect>
        <rect id="rightR" stroke="#7109AA" fill="#7109AA" fill-rule="nonzero" x="111" y="48" width="18" height="23" rx="4"></rect>
        <rect id="rightF" stroke="#7109AA" fill="#7109AA" fill-rule="nonzero" x="111" y="20" width="18" height="23" rx="4"></rect>
        <rect id="rightU" stroke="#7109AA" fill="#7109AA" fill-rule="nonzero" x="122" y="76" width="18" height="23" rx="4"></rect>
        <rect id="rightE" stroke="#7109AA" fill="#7109AA" fill-rule="nonzero" x="101" y="76" width="18" height="23" rx="4"></rect>
        <rect id="star" stroke="#7109AA" fill="#7109AA" fill-rule="nonzero" x="86" y="20" width="20" height="51" rx="4"></rect>
        <rect id="leftO" stroke="#7109AA" fill="#7109AA" fill-rule="nonzero" x="73" y="76" width="18" height="23" rx="4"></rect>
        <rect id="leftA" stroke="#7109AA" fill="#7109AA" fill-rule="nonzero" x="52" y="76" width="18" height="23" rx="4"></rect>
        <rect id="leftR" stroke="#7109AA" fill="#7109AA" fill-rule="nonzero" x="63" y="48" width="18" height="23" rx="4"></rect>
        <rect id="leftH" stroke="#7109AA" fill="#7109AA" fill-rule="nonzero" x="63" y="20" width="18" height="23" rx="4"></rect>
        <rect id="leftW" stroke="#7109AA" fill="#7109AA" fill-rule="nonzero" x="42" y="48" width="18" height="23" rx="4"></rect>
        <rect id="leftP" stroke="#7109AA" fill="#7109AA" fill-rule="nonzero" x="42" y="20" width="18" height="23" rx="4"></rect>
        <rect id="leftK" stroke="#7109AA" fill="#7109AA" fill-rule="nonzero" x="21" y="48" width="18" height="23" rx="4"></rect>
        <rect id="leftT" stroke="#7109AA" fill="#7109AA" fill-rule="nonzero" x="21" y="20" width="18" height="23" rx="4"></rect>
        <rect id="leftSLower" stroke="#7109AA" fill="#7109AA" fill-rule="nonzero" x="0" y="48" width="18" height="23" rx="4"></rect>
        <rect id="leftSUpper" stroke="#7109AA" fill="#7109AA" fill-rule="nonzero" x="0" y="20" width="18" height="23" rx="4"></rect>
        <rect id="numberBar" stroke="#7109AA" fill="#7109AA" fill-rule="nonzero" x="0" y="0" width="213" height="15" rx="4"></rect>
        <g id="Outlines" transform="translate(5.000000, 2.000000)" fill="#FFFFFF">
            <polygon id="Z-Copy" points="202.568 51 202.568 52.44 197.464 60.392 202.552 60.392 202.552 62.2 195 62.2 195 60.76 200.072 52.792 195.352 52.792 195.352 51"></polygon>
            <path d="M195,34.2 L195,23 L197.816,23 C201.56,23 202.968,25.816 202.968,28.6 C202.968,31.16 201.688,34.2 197.752,34.2 L195,34.2 Z M196.904,32.408 L197.944,32.408 C200.232,32.408 200.984,30.376 200.984,28.6 C200.984,26.712 200.152,24.792 198.12,24.792 L196.904,24.792 L196.904,32.408 Z" id="D-Copy"></path>
            <path d="M177.984,62.584 C176.16,62.584 174.592,61.448 174,59.704 L175.728,59.064 C176.208,60.088 177.136,60.792 178.144,60.792 C179.104,60.792 179.776,60.296 179.776,59.304 C179.776,58.424 178.704,57.816 177.472,57.272 C176.048,56.648 174.4,55.864 174.4,53.96 C174.4,52.344 175.744,51 177.856,51 C179.536,51 180.832,52.024 181.232,53.384 L179.52,53.96 C179.2,53.304 178.592,52.792 177.744,52.792 C176.944,52.792 176.32,53.224 176.32,53.992 C176.32,54.776 177.328,55.144 178.464,55.672 C179.856,56.312 181.696,57.256 181.696,59.256 C181.696,61.384 179.968,62.584 177.984,62.584 Z" id="SRight-Copy"></path>
            <polygon id="TRight-Copy" points="177.248 34.2 177.248 24.824 174 24.824 174 23 182.416 23 182.416 24.824 179.152 24.824 179.152 34.2"></polygon>
            <path d="M157.416,62.584 C154.376,62.584 153,59.72 153,56.792 C153,53.992 154.456,51 157.416,51 C159.32,51 160.232,52.104 160.872,53.256 L159.192,54.216 C158.792,53.464 158.264,52.808 157.416,52.808 C155.624,52.808 154.984,55.016 154.984,56.792 C154.984,58.824 155.752,60.776 157.416,60.776 C158.6,60.776 159.192,59.88 159.192,58.696 L159.192,58.456 L157.24,58.456 L157.24,56.664 L161.144,56.664 L161.144,58.216 C161.144,61.048 159.528,62.584 157.416,62.584 Z" id="G-Copy"></path>
            <polygon id="L-Copy" points="153 34.2 153 23 154.904 23 154.904 32.376 160.072 32.376 160.072 34.2"></polygon>
            <path d="M132,62.2 L132,51 L135.776,51 C138.496,51 139.36,52.488 139.36,53.992 C139.36,54.984 138.896,55.848 137.904,56.296 C139.152,56.712 139.744,57.8 139.744,58.92 C139.744,60.488 138.8,62.2 136.016,62.2 L132,62.2 Z M133.904,55.528 L135.52,55.528 C136.832,55.528 137.456,54.968 137.456,54.12 C137.456,53.464 137.184,52.76 135.824,52.76 L133.904,52.76 L133.904,55.528 Z M133.904,60.44 L136.144,60.44 C137.472,60.44 137.84,59.64 137.84,58.936 C137.84,58.104 137.44,57.272 135.68,57.272 L133.904,57.272 L133.904,60.44 Z" id="B-Copy"></path>
            <path d="M132,34.2 L132,23 L135.952,23 C138.736,23 139.696,24.76 139.696,26.472 C139.696,28.072 138.64,29.944 135.952,29.944 L133.904,29.944 L133.904,34.2 L132,34.2 Z M133.904,28.152 L136.048,28.152 C137.296,28.152 137.76,27.272 137.76,26.472 C137.76,25.752 137.376,24.792 136.048,24.792 L133.904,24.792 L133.904,28.152 Z" id="PRight-Copy"></path>
            <path d="M118.536,54.392 C118.536,55.768 117.784,57.096 116.264,57.608 L118.52,62.2 L116.408,62.2 L114.232,57.816 L112.904,57.816 L112.904,62.2 L111,62.2 L111,51 L114.872,51 C117.64,51 118.536,52.632 118.536,54.392 Z M112.904,52.792 L112.904,56.024 L114.904,56.024 C116.184,56.024 116.584,55.24 116.584,54.408 C116.584,53.656 116.232,52.792 114.904,52.792 L112.904,52.792 Z" id="RRight-Copy"></path>
            <polygon id="F-Copy" points="111 34.2 111 23 118.552 23 118.552 24.808 112.904 24.808 112.904 27.512 117.016 27.512 117.016 29.32 112.904 29.32 112.904 34.2"></polygon>
            <path d="M125.928,90.5919996 C123.912,90.5919996 122.152,89.4559996 122.152,86.1279996 L122.152,79.1999996 L124.04,79.1999996 L124.04,86.1279996 C124.04,88.1919996 124.84,88.7839996 125.928,88.7839996 C127,88.7839996 127.816,88.1919996 127.816,86.1279996 L127.816,79.1999996 L129.72,79.1999996 L129.72,86.1279996 C129.72,89.4079996 127.976,90.5919996 125.928,90.5919996 Z" id="U-Copy"></path>
            <polygon id="E-Copy" points="101.216 90.3999996 101.216 79.1999996 108.4 79.1999996 108.4 81.0079996 103.12 81.0079996 103.12 83.7119996 106.56 83.7119996 106.56 85.5199996 103.12 85.5199996 103.12 88.5919996 108.736 88.5919996 108.736 90.3999996"></polygon>
            <polygon id="*-copy" points="89.52 46.6239996 88.128 45.6479996 89.136 44.1919996 89.968 43.5199996 88.88 43.7759996 87.2 43.7759996 87.2 42.0479996 88.88 42.0479996 89.968 42.3039996 89.136 41.6319996 88.128 40.1759996 89.52 39.1999996 90.704 40.8639996 90.928 41.8399996 91.152 40.8639996 92.336 39.1999996 93.728 40.1759996 92.72 41.6319996 91.888 42.3039996 92.976 42.0479996 94.672 42.0479996 94.672 43.7759996 92.976 43.7759996 91.888 43.5199996 92.72 44.1919996 93.728 45.6479996 92.336 46.6239996 91.152 44.9599996 90.928 43.9839996 90.704 44.9599996"></polygon>
            <path d="M76.928,90.5919996 C73.92,90.5919996 72.688,87.8079996 72.688,84.7999996 C72.688,81.7919996 73.92,79.0079996 76.928,79.0079996 C79.936,79.0079996 81.184,81.7919996 81.184,84.7999996 C81.184,87.8079996 79.936,90.5919996 76.928,90.5919996 Z M76.928,88.7839996 C78.512,88.7839996 79.2,86.7999996 79.2,84.7999996 C79.2,82.6719996 78.528,80.8159996 76.928,80.8159996 C75.328,80.8159996 74.656,82.7839996 74.656,84.7999996 C74.656,86.9119996 75.328,88.7839996 76.928,88.7839996 Z" id="O-Copy"></path>
            <path d="M58.44,90.3999996 L57.704,87.9359996 L54.152,87.9359996 L53.416,90.3999996 L51.368,90.3999996 L55.032,79.1999996 L56.824,79.1999996 L60.488,90.3999996 L58.44,90.3999996 Z M54.664,86.2079996 L57.192,86.2079996 L56.2,82.8799996 C56.12,82.6239996 55.992,82.0479996 55.928,81.6319996 C55.848,82.0479996 55.736,82.6239996 55.656,82.8799996 L54.664,86.2079996 Z" id="A-Copy"></path>
            <path d="M70.536,54.392 C70.536,55.768 69.784,57.096 68.264,57.608 L70.52,62.2 L68.408,62.2 L66.232,57.816 L64.904,57.816 L64.904,62.2 L63,62.2 L63,51 L66.872,51 C69.64,51 70.536,52.632 70.536,54.392 Z M64.904,52.792 L64.904,56.024 L66.904,56.024 C68.184,56.024 68.584,55.24 68.584,54.408 C68.584,53.656 68.232,52.792 66.904,52.792 L64.904,52.792 Z" id="RLeft-Copy"></path>
            <polygon id="H-Copy" points="63 34.2 63 23 64.904 23 64.904 27.528 68.52 27.528 68.52 23 70.424 23 70.424 34.2 68.52 34.2 68.52 29.32 64.904 29.32 64.904 34.2"></polygon>
            <path d="M42.648,62.2 L41,51 L42.712,51 L43.592,57.672 C43.624,57.896 43.672,58.168 43.704,58.456 C43.736,58.216 43.8,57.944 43.864,57.656 L45.208,51 L46.232,51 L47.592,57.624 C47.656,57.928 47.72,58.184 47.752,58.408 C47.784,58.136 47.832,57.864 47.864,57.64 L48.632,51 L50.44,51 L48.776,62.2 L47.272,62.2 L45.848,55.352 C45.784,55.048 45.736,54.792 45.704,54.536 C45.672,54.792 45.608,55.048 45.56,55.336 L44.152,62.2 L42.648,62.2 Z" id="W-Copy"></path>
            <path d="M42,34.2 L42,23 L45.952,23 C48.736,23 49.696,24.76 49.696,26.472 C49.696,28.072 48.64,29.944 45.952,29.944 L43.904,29.944 L43.904,34.2 L42,34.2 Z M43.904,28.152 L46.048,28.152 C47.296,28.152 47.76,27.272 47.76,26.472 C47.76,25.752 47.376,24.792 46.048,24.792 L43.904,24.792 L43.904,28.152 Z" id="PLeft-Copy"></path>
            <polygon id="K-Copy" points="26.952 62.2 23.96 56.584 22.904 57.896 22.904 62.2 21 62.2 21 51 22.904 51 22.904 55.224 26.232 51 28.456 51 25.24 54.984 29.176 62.2"></polygon>
            <polygon id="TLeft-Copy" points="24.248 34.2 24.248 24.824 21 24.824 21 23 29.416 23 29.416 24.824 26.152 24.824 26.152 34.2"></polygon>
            <path d="M3.984,62.584 C2.16,62.584 0.592,61.448 0,59.704 L1.728,59.064 C2.208,60.088 3.136,60.792 4.144,60.792 C5.104,60.792 5.776,60.296 5.776,59.304 C5.776,58.424 4.704,57.816 3.472,57.272 C2.048,56.648 0.4,55.864 0.4,53.96 C0.4,52.344 1.744,51 3.856,51 C5.536,51 6.832,52.024 7.232,53.384 L5.52,53.96 C5.2,53.304 4.592,52.792 3.744,52.792 C2.944,52.792 2.32,53.224 2.32,53.992 C2.32,54.776 3.328,55.144 4.464,55.672 C5.856,56.312 7.696,57.256 7.696,59.256 C7.696,61.384 5.968,62.584 3.984,62.584 Z" id="SLower-Copy"></path>
            <path d="M3.984,34.584 C2.16,34.584 0.592,33.448 0,31.704 L1.728,31.064 C2.208,32.088 3.136,32.792 4.144,32.792 C5.104,32.792 5.776,32.296 5.776,31.304 C5.776,30.424 4.704,29.816 3.472,29.272 C2.048,28.648 0.4,27.864 0.4,25.96 C0.4,24.344 1.744,23 3.856,23 C5.536,23 6.832,24.024 7.232,25.384 L5.52,25.96 C5.2,25.304 4.592,24.792 3.744,24.792 C2.944,24.792 2.32,25.224 2.32,25.992 C2.32,26.776 3.328,27.144 4.464,27.672 C5.856,28.312 7.696,29.256 7.696,31.256 C7.696,33.384 5.968,34.584 3.984,34.584 Z" id="SUpper-Copy"></path>
            <path d="M89.1264,9.92000008 L89.4848,7.57760004 L88.0768,7.57760004 L88.2688,6.29760002 L89.6768,6.29760002 L89.9584,4.37759999 L88.576,4.37759999 L88.768,3.11039997 L90.1632,3.11039997 L90.4832,0.959999943 L91.7888001,0.959999943 L91.4688001,3.11039997 L93.0816001,3.11039997 L93.4272001,0.959999943 L94.7200001,0.959999943 L94.4000001,3.11039997 L95.8080001,3.11039997 L95.6288001,4.37759999 L94.2080001,4.37759999 L93.9136001,6.29760002 L95.3088001,6.29760002 L95.1168001,7.57760004 L93.7216001,7.57760004 L93.3632001,9.92000008 L92.0576001,9.92000008 L92.4160001,7.57760004 L90.7904,7.57760004 L90.432,9.92000008 L89.1264,9.92000008 Z M90.9824,6.29760002 L92.6080001,6.29760002 L92.8896001,4.37759999 L91.2768,4.37759999 L90.9824,6.29760002 Z" id="#-copy"></path>
        </g>
    </g>
</svg>