<?xml version="1.0" encoding="UTF-8"?>
<svg width="258px" height="99px" viewBox="0 0 258 99" version="1.1" xmlns="http://www.w3.org/2000/svg" xmlns:xlink="http://www.w3.org/1999/xlink">
    <!-- Generator: Sketch 51.3 (57544) - http://www.bohemiancoding.com/sketch -->
    <title>italian-michela</title>
    <desc>Created with Sketch.</desc>
    <defs></defs>
    <g id="italian-michela" stroke="none" stroke-width="1" fill="none" fill-rule="evenodd">
        <rect id="sRightLowercase" stroke="#7109AA" fill="#E9D9F2" fill-rule="nonzero" x="237" y="2" width="20" height="96" rx="2"></rect>
        <rect id="cRightLowercase" stroke="#7109AA" fill="#E9D9F2" fill-rule="nonzero" x="217" y="2" width="20" height="96" rx="2"></rect>
        <rect id="pRightLowercase" stroke="#7109AA" fill="#E9D9F2" fill-rule="nonzero" x="197" y="2" width="20" height="96" rx="2"></rect>
        <rect id="aRightLowercase" stroke="#7109AA" fill="#E9D9F2" fill-rule="nonzero" x="177" y="2" width="20" height="96" rx="2"></rect>
        <rect id="iRightLowercase" stroke="#7109AA" fill="#E9D9F2" fill-rule="nonzero" x="157" y="2" width="20" height="96" rx="2"></rect>
        <rect id="uRightLowercase" stroke="#7109AA" fill="#E9D9F2" fill-rule="nonzero" x="137" y="2" width="20" height="96" rx="2"></rect>
        <rect id="fRightLowercase" stroke="#7109AA" fill="#E9D9F2" fill-rule="nonzero" x="247" y="2" width="10" height="72" rx="2"></rect>
        <rect id="zRightLowercase" stroke="#7109AA" fill="#E9D9F2" fill-rule="nonzero" x="213" y="2" width="10" height="60" rx="2"></rect>
        <rect id="nRightLowercase" stroke="#7109AA" fill="#E9D9F2" fill-rule="nonzero" x="193" y="2" width="10" height="60" rx="2"></rect>
        <rect id="eRightLowercase" stroke="#7109AA" fill="#E9D9F2" fill-rule="nonzero" x="173" y="2" width="10" height="60" rx="2"></rect>
        <rect id="leftCapitalU" stroke="#7109AA" fill="#E9D9F2" fill-rule="nonzero" x="101" y="2" width="20" height="96" rx="2"></rect>
        <rect id="leftCapitalI" stroke="#7109AA" fill="#E9D9F2" fill-rule="nonzero" x="81" y="2" width="20" height="96" rx="2"></rect>
        <rect id="leftCapitalR" stroke="#7109AA" fill="#E9D9F2" fill-rule="nonzero" x="61" y="2" width="20" height="96" rx="2"></rect>
        <rect id="leftCapitalP" stroke="#7109AA" fill="#E9D9F2" fill-rule="nonzero" x="41" y="2" width="20" height="96" rx="2"></rect>
        <rect id="leftCapitalC" stroke="#7109AA" fill="#E9D9F2" fill-rule="nonzero" x="21" y="2" width="20" height="96" rx="2"></rect>
        <rect id="leftCapitalS" stroke="#7109AA" fill="#E9D9F2" fill-rule="nonzero" x="1" y="2" width="20" height="96" rx="2"></rect>
        <rect id="leftCapitalX" stroke="#7109AA" fill="#E9D9F2" fill-rule="nonzero" x="75" y="2" width="10" height="60" rx="2"></rect>
        <rect id="leftCapitalN" stroke="#7109AA" fill="#E9D9F2" fill-rule="nonzero" x="55" y="2" width="10" height="60" rx="2"></rect>
        <rect id="leftCapitalZ" stroke="#7109AA" fill="#E9D9F2" fill-rule="nonzero" x="35" y="2" width="10" height="60" rx="2"></rect>
        <rect id="leftCapitalF" stroke="#7109AA" fill="#E9D9F2" fill-rule="nonzero" x="1" y="2" width="10" height="72" rx="2"></rect>
        <path d="M253.864,48.24 C253.469331,48.24 253.144001,48.3093326 252.888,48.448 C252.631999,48.5866674 252.504,48.789332 252.504,49.056 L252.504,49.824 L255.256,49.824 L255.256,51.44 L252.504,51.44 L252.504,56.384 L254.68,56.384 L254.68,58 L248.904,58 L248.904,56.384 L250.664,56.384 L250.664,51.44 L248.904,51.44 L248.904,49.824 L250.664,49.824 L250.664,48.704 C250.664,47.9359962 250.938664,47.3946682 251.488,47.08 C252.037336,46.7653318 252.695996,46.608 253.464,46.608 C254.242671,46.608 254.893331,46.741332 255.416,47.008 L255.416,48.528 C254.957331,48.335999 254.440003,48.24 253.864,48.24 Z" id="fRightLowercaseLetter" fill="#FFFFFF"></path>
        <path d="M246.976,93.192 C246.282663,93.192 245.64267,93.0613346 245.056,92.8 C244.46933,92.5386654 244.000002,92.1840022 243.648,91.736 L244.848,90.648 C245.520003,91.2986699 246.261329,91.624 247.072,91.624 C247.466669,91.624 247.791999,91.5546674 248.048,91.416 C248.304001,91.2773326 248.432,91.0693347 248.432,90.792 C248.432,90.6319992 248.354667,90.4800007 248.2,90.336 C248.045333,90.1919993 247.866668,90.0720005 247.664,89.976 C247.461332,89.8799995 247.162669,89.7520008 246.768,89.592 C246.725333,89.5706666 246.690667,89.5546667 246.664,89.544 C246.637333,89.5333333 246.602667,89.5200001 246.56,89.504 C246.517333,89.4879999 246.48,89.4746667 246.448,89.464 C246.053331,89.2933325 245.760001,89.1626671 245.568,89.072 C245.375999,88.9813329 245.144001,88.8533342 244.872,88.688 C244.599999,88.5226658 244.402667,88.3653341 244.28,88.216 C244.157333,88.0666659 244.048,87.8773345 243.952,87.648 C243.856,87.4186655 243.808,87.1600014 243.808,86.872 C243.808,86.1786632 244.106664,85.632002 244.704,85.232 C245.301336,84.831998 246.053329,84.632 246.96,84.632 C248.22934,84.632 249.247996,85.0639957 250.016,85.928 L248.784,86.936 C248.19733,86.4453309 247.568003,86.2 246.896,86.2 C246.479998,86.2 246.146668,86.2613327 245.896,86.384 C245.645332,86.5066673 245.52,86.6799989 245.52,86.904 C245.52,87.0106672 245.562666,87.1146662 245.648,87.216 C245.733334,87.3173338 245.882666,87.4239994 246.096,87.536 C246.309334,87.6480006 246.485333,87.733333 246.624,87.792 C246.762667,87.850667 246.997332,87.9439994 247.328,88.072 C248.309338,88.4666686 248.959998,88.7866654 249.28,89.032 C249.845336,89.4800022 250.133333,90.0613298 250.144,90.776 C250.144,91.5333371 249.85867,92.1253312 249.288,92.552 C248.71733,92.9786688 247.946672,93.192 246.976,93.192 Z" id="sRightLowercaseLetter" fill="#FFFFFF"></path>
        <path d="M227.088,93.192 C225.935994,93.192 225.024003,92.8133371 224.352,92.056 C223.679997,91.2986629 223.344,90.25334 223.344,88.92 C223.344,87.5973267 223.687997,86.5520038 224.376,85.784 C225.064003,85.0159962 225.978661,84.632 227.12,84.632 C228.858675,84.632 229.978664,85.3733259 230.48,86.856 L228.736,87.448 C228.458665,86.7333298 227.925337,86.376 227.136,86.376 C226.527997,86.376 226.056002,86.605331 225.72,87.064 C225.383998,87.522669 225.216,88.1413294 225.216,88.92 C225.216,89.6986706 225.383998,90.3119978 225.72,90.76 C226.056002,91.2080022 226.51733,91.432 227.104,91.432 C227.957338,91.432 228.517332,91.032004 228.784,90.232 L230.528,90.776 C230.037331,92.3866747 228.890676,93.192 227.088,93.192 Z" id="cRightLowercaseLetter" fill="#FFFFFF"></path>
        <polygon id="zRightLowercaseLetter" fill="#FFFFFF" points="214.568 58 214.568 56.608 218.936 51.472 214.872 51.472 214.872 49.824 221.288 49.824 221.288 51.184 216.92 56.352 221.272 56.352 221.272 58"></polygon>
        <path d="M203.408,96.216 L203.408,84.824 L205.248,84.824 L205.248,85.448 C205.749336,84.9039973 206.415996,84.632 207.248,84.632 C208.346672,84.632 209.218663,85.0106629 209.864,85.768 C210.509337,86.5253371 210.832,87.5759933 210.832,88.92 C210.832,90.2320066 210.49867,91.2719962 209.832,92.04 C209.16533,92.8080038 208.309339,93.192 207.264,93.192 C206.410662,93.192 205.738669,92.9093362 205.248,92.344 L205.248,95.368 L203.408,96.216 Z M206.992,91.432 C207.621336,91.432 208.109332,91.2160022 208.456,90.784 C208.802668,90.3519978 208.976,89.7306707 208.976,88.92 C208.976,88.1413294 208.802668,87.522669 208.456,87.064 C208.109332,86.605331 207.616003,86.376 206.976,86.376 C206.207996,86.376 205.632002,86.6479973 205.248,87.192 L205.248,90.616 C205.632002,91.1600027 206.213329,91.432 206.992,91.432 Z" id="pRightLowercaseLetter" fill="#FFFFFF"></path>
        <path d="M198.504,49.632 C199.400004,49.632 200.127997,49.9013306 200.688,50.44 C201.248003,50.9786694 201.528,51.8346608 201.528,53.008 L201.528,58 L199.688,58 L199.688,53.392 C199.688,52.6879965 199.533335,52.1760016 199.224,51.856 C198.914665,51.5359984 198.504003,51.376 197.992,51.376 C196.786661,51.376 196.184,52.0373267 196.184,53.36 L196.184,58 L194.344,58 L194.344,49.824 L196.04,49.824 L196.04,50.832 C196.200001,50.5119984 196.511998,50.2320012 196.976,49.992 C197.440002,49.7519988 197.949331,49.632 198.504,49.632 Z" id="nRightLowercaseLetter" fill="#FFFFFF"></path>
        <path d="M186.304,93.192 C185.407996,93.192 184.680003,92.9573357 184.12,92.488 C183.559997,92.0186643 183.28,91.346671 183.28,90.472 C183.28,89.5866622 183.599997,88.914669 184.24,88.456 C184.880003,87.997331 185.647996,87.768 186.544,87.768 C187.322671,87.768 187.999997,87.9119986 188.576,88.2 L188.576,87.72 C188.576,86.7386618 188.037339,86.248 186.96,86.248 C186.063996,86.248 185.200004,86.5253306 184.368,87.08 L183.808,85.576 C184.800005,84.9466635 185.903994,84.632 187.12,84.632 C189.285344,84.632 190.368,85.6559898 190.368,87.704 L190.368,93 L188.576,93 L188.576,92.36 C187.999997,92.9146694 187.242671,93.192 186.304,93.192 Z M186.64,91.576 C187.408004,91.576 188.053331,91.3040027 188.576,90.76 L188.576,89.704 C188.085331,89.4586654 187.504003,89.336 186.832,89.336 C186.319997,89.336 185.896002,89.431999 185.56,89.624 C185.223998,89.816001 185.056,90.0986648 185.056,90.472 C185.056,90.8026683 185.194665,91.0693323 185.472,91.272 C185.749335,91.4746677 186.138664,91.576 186.64,91.576 Z" id="aRightLowercaseLetter" fill="#FFFFFF"></path>
        <path d="M181.656,53.504 C181.656,53.9733357 181.634667,54.3466653 181.592,54.624 L176.024,54.624 C176.141334,55.2213363 176.378665,55.6933316 176.736,56.04 C177.093335,56.3866684 177.554664,56.56 178.12,56.56 C178.83467,56.56 179.437331,56.293336 179.928,55.76 L181.032,56.928 C180.263996,57.7706709 179.288006,58.192 178.104,58.192 C176.898661,58.192 175.94667,57.8026706 175.248,57.024 C174.54933,56.2453294 174.2,55.2053398 174.2,53.904 C174.2,52.5813267 174.551996,51.5386705 175.256,50.776 C175.960004,50.0133295 176.909327,49.632 178.104,49.632 C179.149339,49.632 180.002663,49.9599967 180.664,50.616 C181.325337,51.2720033 181.656,52.2346603 181.656,53.504 Z M176.008,53.056 L179.848,53.056 C179.794666,52.4586637 179.605335,52.0080015 179.28,51.704 C178.954665,51.3999985 178.562669,51.248 178.104,51.248 C177.51733,51.248 177.045335,51.4079984 176.688,51.728 C176.330665,52.0480016 176.104,52.4906638 176.008,53.056 Z" id="eRightLowercaseLetter" fill="#FFFFFF"></path>
        <path d="M166.992,83.688 C166.693332,83.688 166.437334,83.5813344 166.224,83.368 C166.010666,83.1546656 165.904,82.8933349 165.904,82.584 C165.904,82.2746651 166.010666,82.016001 166.224,81.808 C166.437334,81.599999 166.693332,81.496 166.992,81.496 C167.301335,81.496 167.562666,81.599999 167.776,81.808 C167.989334,82.016001 168.096,82.2746651 168.096,82.584 C168.096,82.8933349 167.989334,83.1546656 167.776,83.368 C167.562666,83.5813344 167.301335,83.688 166.992,83.688 Z M167.92,91.384 L170.176,91.384 L170.176,93 L163.824,93 L163.824,91.384 L166.08,91.384 L166.08,86.44 L163.824,86.44 L163.824,84.824 L167.92,84.824 L167.92,91.384 Z" id="iRightLowercaseLetter" fill="#FFFFFF"></path>
        <path d="M146.384,93.192 C145.477329,93.192 144.744003,92.9226694 144.184,92.384 C143.623997,91.8453306 143.344,90.9840059 143.344,89.8 L143.344,84.824 L145.184,84.824 L145.184,89.4 C145.184,90.7546734 145.743994,91.432 146.864,91.432 C148.069339,91.432 148.672,90.76534 148.672,89.432 L148.672,84.824 L150.512,84.824 L150.512,93 L148.672,93 L148.672,92.216 C148.149331,92.8666699 147.386672,93.192 146.384,93.192 Z" id="uRightLowercaseLetter" fill="#FFFFFF"></path>
        <path d="M110.928,93.192 C109.818661,93.192 108.912004,92.8373369 108.208,92.128 C107.503996,91.4186631 107.152,90.2853411 107.152,88.728 L107.152,81.8 L109.04,81.8 L109.04,88.728 C109.04,89.6986715 109.205332,90.383998 109.536,90.784 C109.866668,91.184002 110.330664,91.384 110.928,91.384 C112.186673,91.384 112.816,90.4986755 112.816,88.728 L112.816,81.8 L114.72,81.8 L114.72,88.728 C114.72,90.2640077 114.368004,91.3919964 113.664,92.112 C112.959996,92.8320036 112.048006,93.192 110.928,93.192 Z" id="leftCapitalULetter" fill="#FFFFFF"></path>
        <polygon id="leftCapitalILetter" fill="#FFFFFF" points="94.224 83.48 91.872 83.48 91.872 91.32 94.224 91.32 94.224 93 87.632 93 87.632 91.32 89.968 91.32 89.968 83.48 87.632 83.48 87.632 81.8 94.224 81.8"></polygon>
        <polygon id="leftCapitalXLetter" fill="#FFFFFF" points="84.28 58 82.088 58 79.912 54 77.768 58 75.576 58 78.904 52.208 75.8 46.8 77.992 46.8 79.928 50.384 81.848 46.8 84.04 46.8 80.936 52.176"></polygon>
        <path d="M74.752,85.192 C74.752,85.917337 74.5573353,86.5733304 74.168,87.16 C73.7786647,87.7466696 73.2160037,88.1626654 72.48,88.408 L74.736,93 L72.624,93 L70.448,88.616 L69.12,88.616 L69.12,93 L67.216,93 L67.216,81.8 L71.088,81.8 C71.7493366,81.8 72.3253309,81.8933324 72.816,82.08 C73.3066691,82.2666676 73.6879986,82.522665 73.96,82.848 C74.2320014,83.173335 74.4319994,83.5306647 74.56,83.92 C74.6880006,84.3093353 74.752,84.733331 74.752,85.192 Z M69.12,83.592 L69.12,86.824 L71.12,86.824 C71.7173363,86.824 72.1466654,86.6720015 72.408,86.368 C72.6693346,86.0639985 72.8,85.6773357 72.8,85.208 C72.8,84.7599978 72.6720013,84.3786682 72.416,84.064 C72.1599987,83.7493318 71.728003,83.592 71.12,83.592 L69.12,83.592 Z" id="leftCapitalRLetter" fill="#FFFFFF"></path>
        <path d="M56.216,58 L56.216,46.8 L58.024,46.8 L61.512,53.712 C61.704001,54.0426683 61.837333,54.2986658 61.912,54.48 C61.8906666,54.0746646 61.88,53.8186672 61.88,53.712 L61.88,46.8 L63.64,46.8 L63.64,58 L61.912,58 L58.36,51.056 C58.167999,50.7253317 58.0293338,50.4693342 57.944,50.288 C57.9760002,50.4480008 57.992,50.7039982 57.992,51.056 L57.992,58 L56.216,58 Z" id="leftCapitalNLetter" fill="#FFFFFF"></path>
        <path d="M47.216,93 L47.216,81.8 L51.168,81.8 C52.4586731,81.8 53.4053303,82.1359966 54.008,82.808 C54.6106697,83.4800034 54.912,84.3013285 54.912,85.272 C54.912,86.1893379 54.5973365,86.9973298 53.968,87.696 C53.3386635,88.3946702 52.4053395,88.744 51.168,88.744 L49.12,88.744 L49.12,93 L47.216,93 Z M49.12,86.952 L51.264,86.952 C51.8400029,86.952 52.2693319,86.7866683 52.552,86.456 C52.8346681,86.1253317 52.976,85.730669 52.976,85.272 C52.976,84.8346645 52.8400014,84.445335 52.568,84.104 C52.2959986,83.762665 51.8613363,83.592 51.264,83.592 L49.12,83.592 L49.12,86.952 Z" id="leftCapitalPLetter" fill="#FFFFFF"></path>
        <polygon id="leftCapitalZLetter" fill="#FFFFFF" points="43.72 46.8 43.72 48.24 38.616 56.192 43.704 56.192 43.704 58 36.152 58 36.152 56.56 41.224 48.592 36.504 48.592 36.504 46.8"></polygon>
        <path d="M31.12,93.176 C30.4906635,93.176 29.9226692,93.0640011 29.416,92.84 C28.9093308,92.6159989 28.4880017,92.3200018 28.152,91.952 C27.8159983,91.5839982 27.5360011,91.1466692 27.312,90.64 C27.0879989,90.1333308 26.9280005,89.6106694 26.832,89.072 C26.7359995,88.5333306 26.688,87.9760029 26.688,87.4 C26.688,86.6959965 26.7706658,86.0160033 26.936,85.36 C27.1013342,84.7039967 27.354665,84.0906695 27.696,83.52 C28.037335,82.9493305 28.5013304,82.4906684 29.088,82.144 C29.6746696,81.7973316 30.3519962,81.624 31.12,81.624 C31.994671,81.624 32.7253304,81.8479978 33.312,82.296 C33.8986696,82.7440022 34.325332,83.2986634 34.592,83.96 L32.896,84.776 C32.6613322,84.3279978 32.4080014,83.9920011 32.136,83.768 C31.8639986,83.5439989 31.5253354,83.432 31.12,83.432 C30.5439971,83.432 30.0640019,83.6453312 29.68,84.072 C29.2959981,84.4986688 29.0293341,84.9973305 28.88,85.568 C28.7306659,86.1386695 28.656,86.7493301 28.656,87.4 C28.656,88.4560053 28.8693312,89.3813294 29.296,90.176 C29.7226688,90.9706706 30.3306627,91.368 31.12,91.368 C31.8666704,91.368 32.4639978,90.8880048 32.912,89.928 L34.64,90.584 C33.9359965,92.3120086 32.7626749,93.176 31.12,93.176 Z" id="leftCapitalCLetter" fill="#FFFFFF"></path>
        <path d="M11.056,93.192 C10.1493288,93.192 9.33333696,92.9306693 8.608,92.408 C7.88266304,91.8853307 7.37066816,91.186671 7.072,90.312 L8.8,89.672 C9.04533456,90.1946693 9.38399784,90.6133318 9.816,90.928 C10.2480022,91.2426682 10.7146642,91.4 11.216,91.4 C11.7066691,91.4 12.1013318,91.2720013 12.4,91.016 C12.6986682,90.7599987 12.848,90.3920024 12.848,89.912 C12.848,89.5066646 12.6453354,89.1466682 12.24,88.832 C11.8346646,88.5173318 11.269337,88.2000016 10.544,87.88 C10.085331,87.6773323 9.71733472,87.5013341 9.44,87.352 C9.16266528,87.2026659 8.8506684,86.994668 8.504,86.728 C8.1573316,86.461332 7.89866752,86.1466685 7.728,85.784 C7.55733248,85.4213315 7.472,85.0160022 7.472,84.568 C7.472,83.7359958 7.78933016,83.0346695 8.424,82.464 C9.05866984,81.8933305 9.89332816,81.608 10.928,81.608 C11.7493374,81.608 12.4666636,81.8319978 13.08,82.28 C13.6933364,82.7280022 14.1013323,83.2986632 14.304,83.992 L12.592,84.568 C12.2079981,83.7893294 11.616004,83.4 10.816,83.4 C10.3999979,83.4 10.058668,83.5066656 9.792,83.72 C9.525332,83.9333344 9.392,84.2266648 9.392,84.6 C9.392,84.6853338 9.40266656,84.7679996 9.424,84.848 C9.44533344,84.9280004 9.4826664,85.0026663 9.536,85.072 C9.5893336,85.1413337 9.63999976,85.205333 9.688,85.264 C9.73600024,85.322667 9.81066616,85.3866663 9.912,85.456 C10.0133338,85.5253337 10.0986663,85.5813331 10.168,85.624 C10.2373337,85.6666669 10.3413326,85.7226663 10.48,85.792 C10.6186674,85.8613337 10.725333,85.9119998 10.8,85.944 C10.874667,85.9760002 10.9973325,86.0319996 11.168,86.112 C11.3386675,86.1920004 11.461333,86.2479998 11.536,86.28 C11.9840022,86.4826677 12.3573318,86.6719991 12.656,86.848 C12.9546682,87.0240009 13.2853315,87.2559986 13.648,87.544 C14.0106685,87.8320014 14.287999,88.1733314 14.48,88.568 C14.672001,88.9626686 14.768,89.3946643 14.768,89.864 C14.768,90.8880051 14.4080036,91.6986637 13.688,92.296 C12.9679964,92.8933363 12.0906718,93.192 11.056,93.192 Z" id="leftCapitalSLetter" fill="#FFFFFF"></path>
        <polygon id="leftCapitalFLetter" fill="#FFFFFF" points="2.216 58 2.216 46.8 9.768 46.8 9.768 48.608 4.12 48.608 4.12 51.312 8.232 51.312 8.232 53.12 4.12 53.12 4.12 58"></polygon>
    </g>
</svg>