<?xml version="1.0" encoding="UTF-8"?>
<svg width="240px" height="112px" viewBox="0 0 240 112" version="1.1" xmlns="http://www.w3.org/2000/svg" xmlns:xlink="http://www.w3.org/1999/xlink">
    <!-- Generator: Sketch 51.3 (57544) - http://www.bohemiancoding.com/sketch -->
    <title>korean-modern-c</title>
    <desc>Created with Sketch.</desc>
    <defs></defs>
    <g id="korean-modern-c" stroke="none" stroke-width="1" fill="none" fill-rule="evenodd">
        <rect id="theRightㅁKey" stroke="#7109AA" fill="#E9D9F2" fill-rule="nonzero" x="221" y="61" width="18" height="24" rx="4"></rect>
        <rect id="theRightㅈKey" stroke="#7109AA" fill="#E9D9F2" fill-rule="nonzero" x="198" y="55" width="18" height="24" rx="4"></rect>
        <rect id="theRightㅅKey" stroke="#7109AA" fill="#E9D9F2" fill-rule="nonzero" x="175" y="53" width="18" height="24" rx="4"></rect>
        <rect id="theRightㄴKey" stroke="#7109AA" fill="#E9D9F2" fill-rule="nonzero" x="152" y="57" width="18" height="24" rx="4"></rect>
        <rect id="theRightㅂKey" stroke="#7109AA" fill="#E9D9F2" fill-rule="nonzero" x="129" y="57" width="18" height="24" rx="4"></rect>
        <rect id="theRightㄷKey" stroke="#7109AA" fill="#E9D9F2" fill-rule="nonzero" x="221" y="35" width="18" height="24" rx="4"></rect>
        <rect id="theRightㄱKey" stroke="#7109AA" fill="#E9D9F2" fill-rule="nonzero" x="198" y="29" width="18" height="24" rx="4"></rect>
        <rect id="theRightㄹKey" stroke="#7109AA" fill="#E9D9F2" fill-rule="nonzero" x="175" y="27" width="18" height="24" rx="4"></rect>
        <rect id="theRightㅇKey" stroke="#7109AA" fill="#E9D9F2" fill-rule="nonzero" x="152" y="31" width="18" height="24" rx="4"></rect>
        <rect id="theRightㅎKey" stroke="#7109AA" fill="#E9D9F2" fill-rule="nonzero" x="129" y="31" width="18" height="24" rx="4"></rect>
        <rect id="the0Key" stroke="#7109AA" fill="#E9D9F2" fill-rule="nonzero" x="221" y="9" width="18" height="24" rx="4"></rect>
        <rect id="the9Key" stroke="#7109AA" fill="#E9D9F2" fill-rule="nonzero" x="198" y="3" width="18" height="24" rx="4"></rect>
        <rect id="the8Key" stroke="#7109AA" fill="#E9D9F2" fill-rule="nonzero" x="175" y="1" width="18" height="24" rx="4"></rect>
        <rect id="the7Key" stroke="#7109AA" fill="#E9D9F2" fill-rule="nonzero" x="152" y="5" width="18" height="24" rx="4"></rect>
        <rect id="the6Key" stroke="#7109AA" fill="#E9D9F2" fill-rule="nonzero" x="129" y="5" width="18" height="24" rx="4"></rect>
        <rect id="theㅣKey" stroke="#7109AA" fill="#E9D9F2" fill-rule="nonzero" x="173" y="87" width="18" height="24" rx="4"></rect>
        <rect id="theㅓKey" stroke="#7109AA" fill="#E9D9F2" fill-rule="nonzero" x="150" y="87" width="18" height="24" rx="4"></rect>
        <rect id="theStarKey" stroke="#7109AA" fill="#E9D9F2" fill-rule="nonzero" x="127" y="87" width="18" height="24" rx="4"></rect>
        <rect id="theㅜKey" stroke="#7109AA" fill="#E9D9F2" fill-rule="nonzero" x="95" y="87" width="18" height="24" rx="4"></rect>
        <rect id="theㅏKey" stroke="#7109AA" fill="#E9D9F2" fill-rule="nonzero" x="72" y="87" width="18" height="24" rx="4"></rect>
        <rect id="theㅗKey" stroke="#7109AA" fill="#E9D9F2" fill-rule="nonzero" x="49" y="87" width="18" height="24" rx="4"></rect>
        <rect id="theLeftㄹKey" stroke="#7109AA" fill="#E9D9F2" fill-rule="nonzero" x="93" y="57" width="18" height="24" rx="4"></rect>
        <rect id="theLeftㅂKey" stroke="#7109AA" fill="#E9D9F2" fill-rule="nonzero" x="70" y="57" width="18" height="24" rx="4"></rect>
        <rect id="theLeftㅅKey" stroke="#7109AA" fill="#E9D9F2" fill-rule="nonzero" x="47" y="53" width="18" height="24" rx="4"></rect>
        <rect id="theLeftㅇKey" stroke="#7109AA" fill="#E9D9F2" fill-rule="nonzero" x="24" y="55" width="18" height="24" rx="4"></rect>
        <rect id="theLeftㄷKey" stroke="#7109AA" fill="#E9D9F2" fill-rule="nonzero" x="1" y="61" width="18" height="24" rx="4"></rect>
        <rect id="theLeftㄴKey" stroke="#7109AA" fill="#E9D9F2" fill-rule="nonzero" x="93" y="31" width="18" height="24" rx="4"></rect>
        <rect id="theLeftㅈKey" stroke="#7109AA" fill="#E9D9F2" fill-rule="nonzero" x="70" y="31" width="18" height="24" rx="4"></rect>
        <rect id="theLeftㄱKey" stroke="#7109AA" fill="#E9D9F2" fill-rule="nonzero" x="47" y="27" width="18" height="24" rx="4"></rect>
        <rect id="theLeftㅁKey" stroke="#7109AA" fill="#E9D9F2" fill-rule="nonzero" x="24" y="29" width="18" height="24" rx="4"></rect>
        <rect id="theLeftㅎKey" stroke="#7109AA" fill="#E9D9F2" fill-rule="nonzero" x="1" y="35" width="18" height="24" rx="4"></rect>
        <rect id="the5Key" stroke="#7109AA" fill="#E9D9F2" fill-rule="nonzero" x="93" y="5" width="18" height="24" rx="4"></rect>
        <rect id="the4Key" stroke="#7109AA" fill="#E9D9F2" fill-rule="nonzero" x="70" y="5" width="18" height="24" rx="4"></rect>
        <rect id="the3Key" stroke="#7109AA" fill="#E9D9F2" fill-rule="nonzero" x="47" y="1" width="18" height="24" rx="4"></rect>
        <rect id="the2Key" stroke="#7109AA" fill="#E9D9F2" fill-rule="nonzero" x="24" y="3" width="18" height="24" rx="4"></rect>
        <rect id="the1Key" stroke="#7109AA" fill="#E9D9F2" fill-rule="nonzero" x="1" y="9" width="18" height="24" rx="4"></rect>
        <path d="M226.192,70.088 C226.192,69.6399978 226.277332,69.3386674 226.448,69.184 C226.618668,69.0293326 226.938664,68.952 227.408,68.952 L232.592,68.952 C232.848001,68.952 233.053333,68.9679998 233.208,69 C233.362667,69.0320002 233.485333,69.0906662 233.576,69.176 C233.666667,69.2613338 233.728,69.3786659 233.76,69.528 C233.792,69.6773341 233.808,69.8639989 233.808,70.088 L233.808,74.296 C233.808,74.7440022 233.722668,75.0453326 233.552,75.2 C233.381332,75.3546674 233.061336,75.432 232.592,75.432 L227.408,75.432 C227.151999,75.432 226.946667,75.4160002 226.792,75.384 C226.637333,75.3519998 226.514667,75.2906671 226.424,75.2 C226.333333,75.1093329 226.272,74.9920007 226.24,74.848 C226.208,74.7039993 226.192,74.5200011 226.192,74.296 L226.192,70.088 Z M227.68,69.912 C227.530666,69.912 227.429334,69.941333 227.376,70 C227.322666,70.058667 227.296,70.1679992 227.296,70.328 L227.296,74.056 C227.296,74.2160008 227.322666,74.325333 227.376,74.384 C227.429334,74.442667 227.530666,74.472 227.68,74.472 L232.32,74.472 C232.469334,74.472 232.570666,74.442667 232.624,74.384 C232.677334,74.325333 232.704,74.2160008 232.704,74.056 L232.704,70.328 C232.704,70.1679992 232.677334,70.058667 232.624,70 C232.570666,69.941333 232.469334,69.912 232.32,69.912 L227.68,69.912 Z" id="theRightㅁ" fill="#FFFFFF"></path>
        <path d="M206.808,67.176 C206.765333,67.1973334 206.728,67.2239998 206.696,67.256 C206.10933,67.714669 205.47467,68.1653311 204.792,68.608 C204.10933,69.0506689 203.336004,69.5173309 202.472,70.008 C202.333333,70.082667 202.226667,70.0560006 202.152,69.928 L201.864,69.464 C201.8,69.3253326 201.826666,69.2240003 201.944,69.16 C202.733337,68.7119978 203.450663,68.2853354 204.096,67.88 C204.741337,67.4746646 205.335997,67.0613354 205.88,66.64 C206.424003,66.2186646 206.933331,65.778669 207.408,65.32 C207.882669,64.861331 208.349331,64.365336 208.808,63.832 C208.914667,63.7146661 208.965333,63.6240003 208.96,63.56 C208.954667,63.4959997 208.866668,63.464 208.696,63.464 L202.776,63.464 C202.637333,63.464 202.568,63.3946674 202.568,63.256 L202.568,62.696 C202.568,62.5679994 202.637333,62.504 202.776,62.504 L209.128,62.504 C209.544002,62.504 209.866666,62.5439996 210.096,62.624 C210.325334,62.7040004 210.472,62.8159993 210.536,62.96 C210.6,63.1040007 210.589334,63.2773323 210.504,63.48 C210.418666,63.6826677 210.264001,63.9013322 210.04,64.136 C209.474664,64.744003 208.925336,65.2986642 208.392,65.8 C208.135999,66.0453346 207.874668,66.2799989 207.608,66.504 C207.853335,66.6640008 208.109332,66.8186659 208.376,66.968 C208.770669,67.2133346 209.170665,67.4479989 209.576,67.672 C209.981335,67.8960011 210.391998,68.1066657 210.808,68.304 C211.224002,68.5013343 211.634665,68.6693326 212.04,68.808 C212.136,68.8400002 212.189333,68.8746665 212.2,68.912 C212.210667,68.9493335 212.194667,68.9999997 212.152,69.064 L211.896,69.624 C211.853333,69.7413339 211.752001,69.762667 211.592,69.688 C210.727996,69.3786651 209.810672,68.9466694 208.84,68.392 C208.146663,68.0079981 207.469337,67.6026688 206.808,67.176 Z" id="theRightㅈ" fill="#FFFFFF"></path>
        <path d="M183.84,64.072 C183.733333,64.2746677 183.621334,64.4773323 183.504,64.68 C183.130665,65.288003 182.682669,65.8639973 182.16,66.408 C181.637331,66.9520027 181.045337,67.4373312 180.384,67.864 C180.309333,67.9173336 180.248,67.9466666 180.2,67.952 C180.152,67.9573334 180.101334,67.9280003 180.048,67.864 L179.68,67.384 C179.594666,67.2666661 179.621333,67.1600005 179.76,67.064 C180.336003,66.7013315 180.861331,66.2720025 181.336,65.776 C181.810669,65.2799975 182.215998,64.7546694 182.552,64.2 C182.888002,63.6453306 183.143999,63.0826695 183.32,62.512 C183.496001,61.9413305 183.578667,61.3946693 183.568,60.872 C183.568,60.7866662 183.589333,60.7226669 183.632,60.68 C183.674667,60.6373331 183.717333,60.616 183.76,60.616 L184.496,60.664 C184.613334,60.664 184.672,60.7386659 184.672,60.888 C184.661333,61.5280032 184.554668,62.1679968 184.352,62.808 C184.373333,62.9573341 184.517332,63.2453312 184.784,63.672 C185.050668,64.0986688 185.367998,64.511998 185.736,64.912 C186.104002,65.312002 186.511998,65.6799983 186.96,66.016 C187.408002,66.3520017 187.866664,66.6213323 188.336,66.824 C188.4,66.8453334 188.432,66.885333 188.432,66.944 C188.432,67.002667 188.421333,67.0533331 188.4,67.096 L188.096,67.64 C188.064,67.7040003 188.018667,67.7386666 187.96,67.744 C187.901333,67.7493334 187.84,67.7413334 187.776,67.72 C187.370665,67.5386658 186.957335,67.2960015 186.536,66.992 C186.114665,66.6879985 185.720002,66.3546685 185.352,65.992 C184.983998,65.6293315 184.656001,65.2560019 184.368,64.872 C184.154666,64.5946653 183.978667,64.3280013 183.84,64.072 Z" id="theRightㅅ" fill="#FFFFFF"></path>
        <path d="M164.792,71.32 C164.792,71.3840003 164.765334,71.4319998 164.712,71.464 C164.658666,71.4960002 164.605334,71.512 164.552,71.512 L158.408,71.512 C157.906664,71.512 157.578667,71.4186676 157.424,71.232 C157.269333,71.0453324 157.192,70.7333355 157.192,70.296 L157.192,64.968 C157.192,64.8186659 157.266666,64.744 157.416,64.744 L158.072,64.744 C158.221334,64.744 158.296,64.8186659 158.296,64.968 L158.296,70.216 C158.296,70.3653341 158.32,70.4586665 158.368,70.496 C158.416,70.5333335 158.514666,70.552 158.664,70.552 L164.552,70.552 C164.605334,70.552 164.658666,70.5706665 164.712,70.608 C164.765334,70.6453335 164.792,70.6906664 164.792,70.744 L164.792,71.32 Z" id="theRightㄴ" fill="#FFFFFF"></path>
        <path d="M135.392,71.56 C135.135999,71.56 134.930667,71.5440002 134.776,71.512 C134.621333,71.4799998 134.501334,71.4186671 134.416,71.328 C134.330666,71.2373329 134.272,71.1200007 134.24,70.976 C134.208,70.8319993 134.192,70.6480011 134.192,70.424 L134.192,65.048 C134.192,64.9946664 134.213333,64.9520002 134.256,64.92 C134.298667,64.8879998 134.346666,64.872 134.4,64.872 L135.104,64.872 C135.157334,64.872 135.202666,64.8906665 135.24,64.928 C135.277334,64.9653335 135.296,65.0053331 135.296,65.048 L135.296,67.144 L140.704,67.144 L140.704,65.08 C140.704,65.0266664 140.722666,64.9786669 140.76,64.936 C140.797334,64.8933331 140.842666,64.872 140.896,64.872 L141.6,64.872 C141.653334,64.872 141.701333,64.8906665 141.744,64.928 C141.786667,64.9653335 141.808,65.0106664 141.808,65.064 L141.808,70.536 C141.808,70.9413354 141.722668,71.2133326 141.552,71.352 C141.381332,71.4906674 141.061336,71.56 140.592,71.56 L135.392,71.56 Z M135.296,68.104 L135.296,70.216 C135.296,70.3760008 135.322666,70.4799998 135.376,70.528 C135.429334,70.5760002 135.530666,70.6 135.68,70.6 L140.32,70.6 C140.469334,70.6 140.570666,70.5760002 140.624,70.528 C140.677334,70.4799998 140.704,70.3760008 140.704,70.216 L140.704,68.104 L135.296,68.104 Z" id="theRightㅂ" fill="#FFFFFF"></path>
        <path d="M233.92,49.16 C233.92,49.3093341 233.850667,49.384 233.712,49.384 L227.28,49.384 C226.810664,49.384 226.490668,49.3066674 226.32,49.152 C226.149332,48.9973326 226.064,48.6960022 226.064,48.248 L226.064,43.864 C226.064,43.4159978 226.149332,43.1146674 226.32,42.96 C226.490668,42.8053326 226.810664,42.728 227.28,42.728 L233.44,42.728 C233.578667,42.728 233.648,42.7973326 233.648,42.936 L233.648,43.464 C233.648,43.6133341 233.578667,43.688 233.44,43.688 L227.568,43.688 C227.418666,43.688 227.317334,43.717333 227.264,43.776 C227.210666,43.834667 227.184,43.9439992 227.184,44.104 L227.184,48.008 C227.184,48.1573341 227.210666,48.2639997 227.264,48.328 C227.317334,48.3920003 227.418666,48.424 227.568,48.424 L233.712,48.424 C233.850667,48.424 233.92,48.4933326 233.92,48.632 L233.92,49.16 Z" id="theRightㄷ" fill="#FFFFFF"></path>
        <path d="M203.224,36.792 C203.224,36.7279997 203.250666,36.6800002 203.304,36.648 C203.357334,36.6159998 203.410666,36.6 203.464,36.6 L209.544,36.6 C210.045336,36.6 210.373333,36.6933324 210.528,36.88 C210.682667,37.0666676 210.76,37.3786645 210.76,37.816 L210.76,43.4 C210.76,43.5493341 210.685334,43.624 210.536,43.624 L209.88,43.624 C209.730666,43.624 209.656,43.5493341 209.656,43.4 L209.656,37.896 C209.656,37.7466659 209.632,37.6533335 209.584,37.616 C209.536,37.5786665 209.437334,37.56 209.288,37.56 L203.464,37.56 C203.410666,37.56 203.357334,37.5413335 203.304,37.504 C203.250666,37.4666665 203.224,37.4213336 203.224,37.368 L203.224,36.792 Z" id="theRightㄱ" fill="#FFFFFF"></path>
        <path d="M187.984,41.448 C187.984,41.5013336 187.96,41.5466665 187.912,41.584 C187.864,41.6213335 187.818667,41.64 187.776,41.64 L181.248,41.64 C180.746664,41.64 180.418667,41.5466676 180.264,41.36 C180.109333,41.1733324 180.032,40.8560022 180.032,40.408 L180.032,38.728 C180.032,38.2799978 180.125332,37.9786674 180.312,37.824 C180.498668,37.6693326 180.831998,37.592 181.312,37.592 L186.192,37.592 C186.341334,37.592 186.437333,37.5706669 186.48,37.528 C186.522667,37.4853331 186.544,37.3840008 186.544,37.224 L186.544,35.832 C186.544,35.6719992 186.525334,35.5706669 186.488,35.528 C186.450666,35.4853331 186.357334,35.464 186.208,35.464 L180.224,35.464 C180.170666,35.464 180.12,35.4480002 180.072,35.416 C180.024,35.3839998 180,35.3413336 180,35.288 L180,34.712 C180,34.6586664 180.024,34.6160002 180.072,34.584 C180.12,34.5519998 180.170666,34.536 180.224,34.536 L186.384,34.536 C186.640001,34.536 186.847999,34.5546665 187.008,34.592 C187.168001,34.6293335 187.296,34.6906662 187.392,34.776 C187.488,34.8613338 187.554666,34.9813326 187.592,35.136 C187.629334,35.2906674 187.648,35.4799989 187.648,35.704 L187.648,37.384 C187.648,37.8320022 187.554668,38.1333326 187.368,38.288 C187.181332,38.4426674 186.848002,38.52 186.368,38.52 L181.472,38.52 C181.322666,38.52 181.229334,38.5413331 181.192,38.584 C181.154666,38.6266669 181.136,38.7279992 181.136,38.888 L181.136,40.344 C181.136,40.4933341 181.157333,40.5919998 181.2,40.64 C181.242667,40.6880002 181.338666,40.712 181.488,40.712 L187.76,40.712 C187.813334,40.712 187.864,40.7279998 187.912,40.76 C187.96,40.7920002 187.984,40.8346664 187.984,40.888 L187.984,41.448 Z" id="theRightㄹ" fill="#FFFFFF"></path>
        <path d="M165,42.072 C165,42.605336 164.898668,43.1039977 164.696,43.568 C164.493332,44.0320023 164.210668,44.434665 163.848,44.776 C163.485332,45.117335 163.056002,45.383999 162.56,45.576 C162.063998,45.768001 161.528003,45.864 160.952,45.864 C160.386664,45.864 159.861336,45.768001 159.376,45.576 C158.890664,45.383999 158.472002,45.117335 158.12,44.776 C157.767998,44.434665 157.490668,44.034669 157.288,43.576 C157.085332,43.117331 156.984,42.6160027 156.984,42.072 C156.984,41.463997 157.085332,40.922669 157.288,40.448 C157.490668,39.973331 157.767998,39.5706683 158.12,39.24 C158.472002,38.9093317 158.890664,38.6586675 159.376,38.488 C159.861336,38.3173325 160.386664,38.232 160.952,38.232 C161.485336,38.232 161.997331,38.3199991 162.488,38.496 C162.978669,38.6720009 163.410665,38.9253317 163.784,39.256 C164.157335,39.5866683 164.453332,39.989331 164.672,40.464 C164.890668,40.938669 165,41.4746637 165,42.072 Z M163.816,42.056 C163.816,41.6186645 163.736001,41.2346683 163.576,40.904 C163.415999,40.5733317 163.205335,40.2960011 162.944,40.072 C162.682665,39.8479989 162.378668,39.6773339 162.032,39.56 C161.685332,39.4426661 161.325335,39.384 160.952,39.384 C160.567998,39.384 160.205335,39.4426661 159.864,39.56 C159.522665,39.6773339 159.224001,39.8479989 158.968,40.072 C158.711999,40.2960011 158.509334,40.5759983 158.36,40.912 C158.210666,41.2480017 158.136,41.6293312 158.136,42.056 C158.136,42.4613354 158.207999,42.8319983 158.352,43.168 C158.496001,43.5040017 158.693332,43.7893322 158.944,44.024 C159.194668,44.2586678 159.490665,44.4399994 159.832,44.568 C160.173335,44.6960006 160.546665,44.76 160.952,44.76 C161.325335,44.76 161.685332,44.693334 162.032,44.56 C162.378668,44.426666 162.682665,44.2400012 162.944,44 C163.205335,43.7599988 163.415999,43.4746683 163.576,43.144 C163.736001,42.8133317 163.816,42.4506686 163.816,42.056 Z" id="theRightㅇ" fill="#FFFFFF"></path>
        <path d="M140.224,38.504 C140.224,38.6533341 140.144001,38.728 139.984,38.728 L135.76,38.728 C135.706666,38.728 135.656,38.7093335 135.608,38.672 C135.56,38.6346665 135.536,38.5840003 135.536,38.52 L135.536,37.96 C135.536,37.8959997 135.557333,37.8426669 135.6,37.8 C135.642667,37.7573331 135.690666,37.736 135.744,37.736 L139.984,37.736 C140.144001,37.736 140.224,37.8106659 140.224,37.96 L140.224,38.504 Z M142.48,40.344 C142.48,40.4826674 142.400001,40.552 142.24,40.552 L133.728,40.552 C133.674666,40.552 133.624,40.5306669 133.576,40.488 C133.528,40.4453331 133.504,40.3920003 133.504,40.328 L133.504,39.832 C133.504,39.7679997 133.528,39.7146669 133.576,39.672 C133.624,39.6293331 133.674666,39.608 133.728,39.608 L142.24,39.608 C142.400001,39.608 142.48,39.6773326 142.48,39.816 L142.48,40.344 Z M141.456,43.848 C141.456,44.2426686 141.368001,44.602665 141.192,44.928 C141.015999,45.253335 140.773335,45.5306655 140.464,45.76 C140.154665,45.9893345 139.786669,46.1679994 139.36,46.296 C138.933331,46.4240006 138.474669,46.488 137.984,46.488 C137.482664,46.488 137.021335,46.4240006 136.6,46.296 C136.178665,46.1679994 135.813335,45.9893345 135.504,45.76 C135.194665,45.5306655 134.952001,45.253335 134.776,44.928 C134.599999,44.602665 134.512,44.2426686 134.512,43.848 C134.512,43.4533314 134.599999,43.093335 134.776,42.768 C134.952001,42.442665 135.194665,42.1653345 135.504,41.936 C135.813335,41.7066655 136.178665,41.5306673 136.6,41.408 C137.021335,41.2853327 137.482664,41.224 137.984,41.224 C138.474669,41.224 138.933331,41.2879994 139.36,41.416 C139.786669,41.5440006 140.154665,41.7226655 140.464,41.952 C140.773335,42.1813345 141.015999,42.4559984 141.192,42.776 C141.368001,43.0960016 141.456,43.4533314 141.456,43.848 Z M140.368,43.88 C140.368,43.3359973 140.144002,42.9120015 139.696,42.608 C139.247998,42.3039985 138.677337,42.152 137.984,42.152 C137.642665,42.152 137.325335,42.1919996 137.032,42.272 C136.738665,42.3520004 136.485334,42.4639993 136.272,42.608 C136.058666,42.7520007 135.890667,42.9333322 135.768,43.152 C135.645333,43.3706678 135.584,43.613332 135.584,43.88 C135.584,44.146668 135.645333,44.3866656 135.768,44.6 C135.890667,44.8133344 136.058666,44.9946659 136.272,45.144 C136.485334,45.2933341 136.738665,45.4079996 137.032,45.488 C137.325335,45.5680004 137.642665,45.608 137.984,45.608 C138.677337,45.608 139.247998,45.4533349 139.696,45.144 C140.144002,44.8346651 140.368,44.413336 140.368,43.88 Z" id="theRightㅎ" fill="#FFFFFF"></path>
        <path d="M229.868,21.896 L229.132,21.896 C229.003999,21.896 228.94,21.8213341 228.94,21.672 L228.94,19.112 C228.94,18.9626659 229.003999,18.888 229.132,18.888 L229.868,18.888 C229.996001,18.888 230.06,18.9626659 230.06,19.112 L230.06,21.672 C230.06,21.8213341 229.996001,21.896 229.868,21.896 Z M231.676,20.232 C231.697333,17.1919848 230.972007,15.672 229.5,15.672 C228.027993,15.672 227.302667,17.1919848 227.324,20.232 C227.302667,23.2826819 228.027993,24.808 229.5,24.808 C230.972007,24.808 231.697333,23.2826819 231.676,20.232 Z M232.764,20.232 C232.764,23.9546853 231.681344,25.816 229.516,25.816 C227.329322,25.816 226.236,23.9546853 226.236,20.232 C226.236,18.8666598 226.443998,17.6613386 226.86,16.616 C227.468003,15.3039934 228.353328,14.648 229.516,14.648 C230.646672,14.648 231.526664,15.3039934 232.156,16.616 C232.369334,17.1386693 232.524,17.7359966 232.62,18.408 C232.716,19.0800034 232.764,19.6879973 232.764,20.232 Z" id="the0" fill="#FFFFFF"></path>
        <path d="M203.908,18.616 C204.142668,18.7013338 204.379999,18.7679998 204.62,18.816 C204.860001,18.8640002 205.091999,18.888 205.316,18.888 C206.372005,18.888 207.230663,18.4186714 207.892,17.48 C208.436003,16.6266624 208.724,15.5280067 208.756,14.184 C208.542666,14.5893354 208.260002,14.9306653 207.908,15.208 C207.449331,15.5706685 206.905336,15.752 206.276,15.752 C205.571996,15.752 204.942669,15.5120024 204.388,15.032 C203.598663,14.3493299 203.204,13.4266725 203.204,12.264 C203.204,11.2293282 203.518664,10.3600035 204.148,9.656 C204.788003,8.95199648 205.534662,8.6 206.388,8.6 C207.241338,8.6 207.99333,8.9466632 208.644,9.64 C209.433337,10.514671 209.833333,11.922657 209.844,13.864 C209.844,15.6240088 209.460004,17.0533278 208.692,18.152 C207.774662,19.3040058 206.660007,19.88 205.348,19.88 C205.145332,19.88 204.905335,19.8613335 204.628,19.824 C204.350665,19.7866665 204.089335,19.730667 203.844,19.656 C203.683999,19.6346666 203.614667,19.5493341 203.636,19.4 L203.668,18.76 C203.668,18.6959997 203.694666,18.6506668 203.748,18.624 C203.801334,18.5973332 203.854666,18.5946666 203.908,18.616 Z M204.308,12.184 C204.297333,12.792003 204.441332,13.3359976 204.74,13.816 C205.166669,14.4346698 205.715997,14.744 206.388,14.744 C206.644001,14.7546667 206.913332,14.6906674 207.196,14.552 C207.478668,14.4133326 207.718666,14.210668 207.916,13.944 C208.113334,13.677332 208.257333,13.3893349 208.348,13.08 C208.438667,12.7706651 208.484,12.4720014 208.484,12.184 C208.484,11.575997 208.334668,11.0320024 208.036,10.552 C207.609331,9.90133008 207.060003,9.576 206.388,9.576 C205.715997,9.576 205.166669,9.90133008 204.74,10.552 C204.462665,11.0320024 204.318667,11.575997 204.308,12.184 Z" id="the9" fill="#FFFFFF"></path>
        <path d="M187.02,14.92 C187.02,15.4106691 186.924001,15.8479981 186.732,16.232 C186.539999,16.6160019 186.257335,16.9306654 185.884,17.176 C185.563998,17.3893344 185.204002,17.5573327 184.804,17.68 C184.403998,17.8026673 183.964002,17.864 183.484,17.864 C183.003998,17.864 182.569335,17.8026673 182.18,17.68 C181.790665,17.5573327 181.425335,17.3893344 181.084,17.176 C180.731998,16.9306654 180.457334,16.6160019 180.26,16.232 C180.062666,15.8479981 179.964,15.4106691 179.964,14.92 C179.964,14.1626629 180.209331,13.5440024 180.7,13.064 C181.084002,12.6693314 181.670663,12.3226682 182.46,12.024 C181.009326,11.2773296 180.284,10.3440056 180.284,9.224 C180.284,8.80799792 180.385332,8.4400016 180.588,8.12 C180.790668,7.7999984 181.067998,7.51733456 181.42,7.272 C181.729335,7.06933232 182.038665,6.9146672 182.348,6.808 C182.657335,6.7013328 183.041331,6.648 183.5,6.648 C183.958669,6.648 184.347998,6.7013328 184.668,6.808 C184.988002,6.9146672 185.291999,7.06933232 185.58,7.272 C186.316004,7.74133568 186.684,8.39199584 186.684,9.224 C186.684,10.2586718 185.948007,11.1919958 184.476,12.024 C184.849335,12.1626674 185.193332,12.3226658 185.508,12.504 C185.822668,12.6853342 186.070666,12.871999 186.252,13.064 C186.764003,13.5440024 187.02,14.1626629 187.02,14.92 Z M185.612,9.4 C185.612,8.83466384 185.409335,8.39733488 185.004,8.088 C184.609331,7.77866512 184.108003,7.624 183.5,7.624 C182.891997,7.624 182.390669,7.77866512 181.996,8.088 C181.569331,8.39733488 181.356,8.83466384 181.356,9.4 C181.356,9.84800224 181.574664,10.2639981 182.012,10.648 C182.161334,10.7653339 182.342666,10.8986659 182.556,11.048 C182.769334,11.1973341 183.014665,11.3466659 183.292,11.496 C183.377334,11.5493336 183.444,11.576 183.492,11.576 C183.54,11.576 183.612,11.5493336 183.708,11.496 C184.29467,11.1119981 184.758665,10.7440018 185.1,10.392 C185.441335,10.0399982 185.612,9.70933488 185.612,9.4 Z M185.98,14.856 C185.98,14.3119973 185.745336,13.8533352 185.276,13.48 C185.126666,13.3626661 184.921335,13.2186675 184.66,13.048 C184.398665,12.8773325 184.070669,12.7013342 183.676,12.52 C183.537333,12.445333 183.398667,12.445333 183.26,12.52 C182.897332,12.6693341 182.577335,12.8373324 182.3,13.024 C182.022665,13.2106676 181.809334,13.3626661 181.66,13.48 C181.467999,13.6506675 181.313334,13.8559988 181.196,14.096 C181.078666,14.3360012 181.02,14.589332 181.02,14.856 C181.02,15.5066699 181.286664,16.0239981 181.82,16.408 C182.289336,16.7386683 182.84933,16.904 183.5,16.904 C184.172003,16.904 184.731998,16.7386683 185.18,16.408 C185.713336,16.0239981 185.98,15.5066699 185.98,14.856 Z" id="the8" fill="#FFFFFF"></path>
        <path d="M159.812,21.528 C159.737333,21.6773341 159.630667,21.752 159.492,21.752 L158.692,21.752 C158.628,21.752 158.582667,21.7306669 158.556,21.688 C158.529333,21.6453331 158.532,21.5920003 158.564,21.528 L162.5,11.768 L157.572,11.768 C157.422666,11.768 157.348,11.6933341 157.348,11.544 L157.348,11 C157.348,10.8506659 157.422666,10.776 157.572,10.776 L163.204,10.776 C163.428001,10.776 163.558666,10.7946665 163.596,10.832 C163.633334,10.8693335 163.652,10.9999989 163.652,11.224 L163.652,11.624 C163.652,11.7093338 163.636,11.7839997 163.604,11.848 L159.812,21.528 Z" id="the7" fill="#FFFFFF"></path>
        <path d="M140.108,11.848 C139.873332,11.7626662 139.636001,11.6960002 139.396,11.648 C139.155999,11.5999998 138.924001,11.576 138.7,11.576 C137.643995,11.576 136.79067,12.0506619 136.14,13 C135.585331,13.8426709 135.292,14.9359933 135.26,16.28 C135.473334,15.8746646 135.755998,15.5333347 136.108,15.256 C136.566669,14.8933315 137.110664,14.712 137.74,14.712 C138.444004,14.712 139.073331,14.9519976 139.628,15.432 C140.417337,16.1146701 140.812,17.0373275 140.812,18.2 C140.812,19.2346718 140.497336,20.1039965 139.868,20.808 C139.227997,21.5120035 138.481338,21.864 137.628,21.864 C136.774662,21.864 136.02267,21.5173368 135.372,20.824 C134.582663,19.949329 134.182667,18.541343 134.172,16.6 C134.172,14.8399912 134.561329,13.4160054 135.34,12.328 C136.246671,11.1653275 137.355993,10.584 138.668,10.584 C138.870668,10.584 139.110665,10.6026665 139.388,10.64 C139.665335,10.6773335 139.926665,10.733333 140.172,10.808 C140.332001,10.8293334 140.401333,10.9146659 140.38,11.064 L140.348,11.704 C140.348,11.7680003 140.321334,11.8133332 140.268,11.84 C140.214666,11.8666668 140.161334,11.8693334 140.108,11.848 Z M139.708,18.28 C139.718667,17.671997 139.574668,17.1280024 139.276,16.648 C138.849331,16.0293302 138.300003,15.72 137.628,15.72 C137.371999,15.7093333 137.102668,15.7733326 136.82,15.912 C136.537332,16.0506674 136.297334,16.253332 136.1,16.52 C135.902666,16.786668 135.758667,17.0746651 135.668,17.384 C135.577333,17.6933349 135.532,17.9919986 135.532,18.28 C135.532,18.888003 135.681332,19.4319976 135.98,19.912 C136.406669,20.5626699 136.955997,20.888 137.628,20.888 C138.300003,20.888 138.849331,20.5626699 139.276,19.912 C139.553335,19.4319976 139.697333,18.888003 139.708,18.28 Z" id="the6" fill="#FFFFFF"></path>
        <path d="M182.544,106.016 C182.544,106.165334 182.469334,106.24 182.32,106.24 L181.664,106.24 C181.514666,106.24 181.44,106.165334 181.44,106.016 L181.44,91.712 C181.44,91.5626659 181.514666,91.488 181.664,91.488 L182.32,91.488 C182.469334,91.488 182.544,91.5626659 182.544,91.712 L182.544,106.016 Z" id="theㅣ" fill="#FFFFFF"></path>
        <path d="M160.008,97.776 L160.008,91.712 C160.008,91.5626659 160.082666,91.488 160.232,91.488 L160.888,91.488 C161.037334,91.488 161.112,91.5626659 161.112,91.712 L161.112,106.016 C161.112,106.165334 161.037334,106.24 160.888,106.24 L160.232,106.24 C160.082666,106.24 160.008,106.165334 160.008,106.016 L160.008,98.736 L157.096,98.736 C156.957333,98.736 156.888,98.6720006 156.888,98.544 L156.888,97.968 C156.888,97.8399994 156.957333,97.776 157.096,97.776 L160.008,97.776 Z" id="theㅓ" fill="#FFFFFF"></path>
        <path d="M139.568,97.792 C139.621334,97.9306674 139.637333,98.0159998 139.616,98.048 C139.594667,98.0800002 139.514667,98.1173331 139.376,98.16 L136.752,98.912 C137.050668,99.2746685 137.343999,99.626665 137.632,99.968 C137.920001,100.309335 138.202665,100.655998 138.48,101.008 C138.554667,101.114667 138.594667,101.186666 138.6,101.224 C138.605333,101.261334 138.56,101.312 138.464,101.376 L137.872,101.824 C137.776,101.898667 137.712,101.936 137.68,101.936 C137.648,101.936 137.605334,101.888 137.552,101.792 L136,99.44 C135.754665,99.8026685 135.501335,100.181331 135.24,100.576 C134.978665,100.970669 134.730668,101.354665 134.496,101.728 C134.421333,101.856001 134.368,101.922667 134.336,101.928 C134.304,101.933333 134.234667,101.893334 134.128,101.808 L133.616,101.408 C133.498666,101.322666 133.437333,101.264 133.432,101.232 C133.426667,101.2 133.472,101.120001 133.568,100.992 L135.232,98.912 L132.576,98.16 C132.447999,98.1279998 132.376,98.0960002 132.36,98.064 C132.344,98.0319998 132.362666,97.9413341 132.416,97.792 L132.576,97.2 C132.618667,97.0719994 132.650667,97.0000001 132.672,96.984 C132.693333,96.9679999 132.773333,96.9866664 132.912,97.04 L135.52,98.048 L135.376,95.36 C135.365333,95.2533328 135.370667,95.1786669 135.392,95.136 C135.413333,95.0933331 135.498666,95.072 135.648,95.072 L136.272,95.072 C136.432001,95.072 136.525333,95.0853332 136.552,95.112 C136.578667,95.1386668 136.586667,95.2213326 136.576,95.36 L136.464,98.048 C136.869335,97.8773325 137.287998,97.7120008 137.72,97.552 C138.152002,97.3919992 138.586664,97.2266675 139.024,97.056 C139.152001,96.9919997 139.232,96.9706666 139.264,96.992 C139.296,97.0133334 139.338666,97.0933326 139.392,97.232 L139.568,97.792 Z" id="theStar" fill="#FFFFFF"></path>
        <path d="M104.544,97.984 L104.544,104.352 C104.544,104.416 104.525334,104.472 104.488,104.52 C104.450666,104.568 104.4,104.592 104.336,104.592 L103.648,104.592 C103.594666,104.592 103.546667,104.568 103.504,104.52 C103.461333,104.472 103.44,104.416 103.44,104.352 L103.44,97.984 L97.36,97.984 C97.2959997,97.984 97.2400002,97.9626669 97.192,97.92 C97.1439998,97.8773331 97.12,97.8293336 97.12,97.776 L97.12,97.232 C97.12,97.1679997 97.1439998,97.1173335 97.192,97.08 C97.2400002,97.0426665 97.2959997,97.024 97.36,97.024 L110.64,97.024 C110.693334,97.024 110.746666,97.0426665 110.8,97.08 C110.853334,97.1173335 110.88,97.1679997 110.88,97.232 L110.88,97.776 C110.88,97.8293336 110.853334,97.8773331 110.8,97.92 C110.746666,97.9626669 110.693334,97.984 110.64,97.984 L104.544,97.984 Z" id="theㅜ" fill="#FFFFFF"></path>
        <path d="M80.328,99.136 L80.328,106.016 C80.328,106.165334 80.2533341,106.24 80.104,106.24 L79.448,106.24 C79.2986659,106.24 79.224,106.165334 79.224,106.016 L79.224,91.712 C79.224,91.5626659 79.2986659,91.488 79.448,91.488 L80.104,91.488 C80.2533341,91.488 80.328,91.5626659 80.328,91.712 L80.328,98.176 L82.536,98.176 C82.6000003,98.176 82.6559998,98.1946665 82.704,98.232 C82.7520002,98.2693335 82.776,98.3199997 82.776,98.384 L82.776,98.928 C82.776,98.9813336 82.7520002,99.0293331 82.704,99.072 C82.6559998,99.1146669 82.6000003,99.136 82.536,99.136 L80.328,99.136 Z" id="theㅏ" fill="#FFFFFF"></path>
        <path d="M57.424,102.032 L57.424,97.12 C57.424,97.0559997 57.4426665,97.0000002 57.48,96.952 C57.5173335,96.9039998 57.5679997,96.88 57.632,96.88 L58.32,96.88 C58.3733336,96.88 58.4213331,96.9039998 58.464,96.952 C58.5066669,97.0000002 58.528,97.0559997 58.528,97.12 L58.528,102.032 L64.64,102.032 C64.6933336,102.032 64.7466664,102.050666 64.8,102.088 C64.8533336,102.125334 64.88,102.176 64.88,102.24 L64.88,102.784 C64.88,102.837334 64.8533336,102.885333 64.8,102.928 C64.7466664,102.970667 64.6933336,102.992 64.64,102.992 L51.36,102.992 C51.2959997,102.992 51.2400002,102.970667 51.192,102.928 C51.1439998,102.885333 51.12,102.837334 51.12,102.784 L51.12,102.24 C51.12,102.176 51.1439998,102.125334 51.192,102.088 C51.2400002,102.050666 51.2959997,102.032 51.36,102.032 L57.424,102.032 Z" id="theㅗ" fill="#FFFFFF"></path>
        <path d="M105.984,71.448 C105.984,71.5013336 105.96,71.5466665 105.912,71.584 C105.864,71.6213335 105.818667,71.64 105.776,71.64 L99.248,71.64 C98.7466642,71.64 98.4186674,71.5466676 98.264,71.36 C98.1093326,71.1733324 98.032,70.8560022 98.032,70.408 L98.032,68.728 C98.032,68.2799978 98.1253324,67.9786674 98.312,67.824 C98.4986676,67.6693326 98.8319976,67.592 99.312,67.592 L104.192,67.592 C104.341334,67.592 104.437333,67.5706669 104.48,67.528 C104.522667,67.4853331 104.544,67.3840008 104.544,67.224 L104.544,65.832 C104.544,65.6719992 104.525334,65.5706669 104.488,65.528 C104.450666,65.4853331 104.357334,65.464 104.208,65.464 L98.224,65.464 C98.1706664,65.464 98.1200002,65.4480002 98.072,65.416 C98.0239998,65.3839998 98,65.3413336 98,65.288 L98,64.712 C98,64.6586664 98.0239998,64.6160002 98.072,64.584 C98.1200002,64.5519998 98.1706664,64.536 98.224,64.536 L104.384,64.536 C104.640001,64.536 104.847999,64.5546665 105.008,64.592 C105.168001,64.6293335 105.296,64.6906662 105.392,64.776 C105.488,64.8613338 105.554666,64.9813326 105.592,65.136 C105.629334,65.2906674 105.648,65.4799989 105.648,65.704 L105.648,67.384 C105.648,67.8320022 105.554668,68.1333326 105.368,68.288 C105.181332,68.4426674 104.848002,68.52 104.368,68.52 L99.472,68.52 C99.3226659,68.52 99.2293335,68.5413331 99.192,68.584 C99.1546665,68.6266669 99.136,68.7279992 99.136,68.888 L99.136,70.344 C99.136,70.4933341 99.1573331,70.5919998 99.2,70.64 C99.2426669,70.6880002 99.3386659,70.712 99.488,70.712 L105.76,70.712 C105.813334,70.712 105.864,70.7279998 105.912,70.76 C105.96,70.7920002 105.984,70.8346664 105.984,70.888 L105.984,71.448 Z" id="theLeftㄹ" fill="#FFFFFF"></path>
        <path d="M76.392,71.56 C76.1359987,71.56 75.9306674,71.5440002 75.776,71.512 C75.6213326,71.4799998 75.5013338,71.4186671 75.416,71.328 C75.3306662,71.2373329 75.2720002,71.1200007 75.24,70.976 C75.2079998,70.8319993 75.192,70.6480011 75.192,70.424 L75.192,65.048 C75.192,64.9946664 75.2133331,64.9520002 75.256,64.92 C75.2986669,64.8879998 75.3466664,64.872 75.4,64.872 L76.104,64.872 C76.1573336,64.872 76.2026665,64.8906665 76.24,64.928 C76.2773335,64.9653335 76.296,65.0053331 76.296,65.048 L76.296,67.144 L81.704,67.144 L81.704,65.08 C81.704,65.0266664 81.7226665,64.9786669 81.76,64.936 C81.7973335,64.8933331 81.8426664,64.872 81.896,64.872 L82.6,64.872 C82.6533336,64.872 82.7013331,64.8906665 82.744,64.928 C82.7866669,64.9653335 82.808,65.0106664 82.808,65.064 L82.808,70.536 C82.808,70.9413354 82.7226675,71.2133326 82.552,71.352 C82.3813325,71.4906674 82.0613357,71.56 81.592,71.56 L76.392,71.56 Z M76.296,68.104 L76.296,70.216 C76.296,70.3760008 76.3226664,70.4799998 76.376,70.528 C76.4293336,70.5760002 76.5306659,70.6 76.68,70.6 L81.32,70.6 C81.4693341,70.6 81.5706664,70.5760002 81.624,70.528 C81.6773336,70.4799998 81.704,70.3760008 81.704,70.216 L81.704,68.104 L76.296,68.104 Z" id="theLeftㅂ" fill="#FFFFFF"></path>
        <path d="M55.84,64.072 C55.7333328,64.2746677 55.6213339,64.4773323 55.504,64.68 C55.1306648,65.288003 54.6826693,65.8639973 54.16,66.408 C53.6373307,66.9520027 53.0453366,67.4373312 52.384,67.864 C52.309333,67.9173336 52.2480002,67.9466666 52.2,67.952 C52.1519998,67.9573334 52.1013336,67.9280003 52.048,67.864 L51.68,67.384 C51.5946662,67.2666661 51.6213326,67.1600005 51.76,67.064 C52.3360029,66.7013315 52.861331,66.2720025 53.336,65.776 C53.810669,65.2799975 54.2159983,64.7546694 54.552,64.2 C54.8880017,63.6453306 55.1439991,63.0826695 55.32,62.512 C55.4960009,61.9413305 55.5786667,61.3946693 55.568,60.872 C55.568,60.7866662 55.5893331,60.7226669 55.632,60.68 C55.6746669,60.6373331 55.7173331,60.616 55.76,60.616 L56.496,60.664 C56.6133339,60.664 56.672,60.7386659 56.672,60.888 C56.6613333,61.5280032 56.5546677,62.1679968 56.352,62.808 C56.3733334,62.9573341 56.517332,63.2453312 56.784,63.672 C57.050668,64.0986688 57.3679982,64.511998 57.736,64.912 C58.1040018,65.312002 58.5119978,65.6799983 58.96,66.016 C59.4080022,66.3520017 59.8666643,66.6213323 60.336,66.824 C60.4000003,66.8453334 60.432,66.885333 60.432,66.944 C60.432,67.002667 60.4213334,67.0533331 60.4,67.096 L60.096,67.64 C60.0639998,67.7040003 60.018667,67.7386666 59.96,67.744 C59.901333,67.7493334 59.8400003,67.7413334 59.776,67.72 C59.3706646,67.5386658 58.9573354,67.2960015 58.536,66.992 C58.1146646,66.6879985 57.7200018,66.3546685 57.352,65.992 C56.9839982,65.6293315 56.6560014,65.2560019 56.368,64.872 C56.1546656,64.5946653 55.9786674,64.3280013 55.84,64.072 Z" id="theLeftㅅ" fill="#FFFFFF"></path>
        <path d="M37,66.072 C37,66.605336 36.8986677,67.1039977 36.696,67.568 C36.4933323,68.0320023 36.2106685,68.434665 35.848,68.776 C35.4853315,69.117335 35.0560025,69.383999 34.56,69.576 C34.0639975,69.768001 33.5280029,69.864 32.952,69.864 C32.3866638,69.864 31.8613358,69.768001 31.376,69.576 C30.8906642,69.383999 30.4720018,69.117335 30.12,68.776 C29.7679982,68.434665 29.4906677,68.034669 29.288,67.576 C29.0853323,67.117331 28.984,66.6160027 28.984,66.072 C28.984,65.463997 29.0853323,64.922669 29.288,64.448 C29.4906677,63.973331 29.7679982,63.5706683 30.12,63.24 C30.4720018,62.9093317 30.8906642,62.6586675 31.376,62.488 C31.8613358,62.3173325 32.3866638,62.232 32.952,62.232 C33.485336,62.232 33.9973309,62.3199991 34.488,62.496 C34.9786691,62.6720009 35.4106648,62.9253317 35.784,63.256 C36.1573352,63.5866683 36.4533322,63.989331 36.672,64.464 C36.8906678,64.938669 37,65.4746637 37,66.072 Z M35.816,66.056 C35.816,65.6186645 35.7360008,65.2346683 35.576,64.904 C35.4159992,64.5733317 35.2053346,64.2960011 34.944,64.072 C34.6826654,63.8479989 34.3786684,63.6773339 34.032,63.56 C33.6853316,63.4426661 33.3253352,63.384 32.952,63.384 C32.5679981,63.384 32.205335,63.4426661 31.864,63.56 C31.522665,63.6773339 31.2240013,63.8479989 30.968,64.072 C30.7119987,64.2960011 30.5093341,64.5759983 30.36,64.912 C30.2106659,65.2480017 30.136,65.6293312 30.136,66.056 C30.136,66.4613354 30.2079993,66.8319983 30.352,67.168 C30.4960007,67.5040017 30.6933321,67.7893322 30.944,68.024 C31.1946679,68.2586678 31.490665,68.4399994 31.832,68.568 C32.173335,68.6960006 32.5466646,68.76 32.952,68.76 C33.3253352,68.76 33.6853316,68.693334 34.032,68.56 C34.3786684,68.426666 34.6826654,68.2400012 34.944,68 C35.2053346,67.7599988 35.4159992,67.4746683 35.576,67.144 C35.7360008,66.8133317 35.816,66.4506686 35.816,66.056 Z" id="theLeftㅇ" fill="#FFFFFF"></path>
        <path d="M13.92,75.16 C13.92,75.3093341 13.8506674,75.384 13.712,75.384 L7.28,75.384 C6.81066432,75.384 6.49066752,75.3066674 6.32,75.152 C6.14933248,74.9973326 6.064,74.6960022 6.064,74.248 L6.064,69.864 C6.064,69.4159978 6.14933248,69.1146674 6.32,68.96 C6.49066752,68.8053326 6.81066432,68.728 7.28,68.728 L13.44,68.728 C13.5786674,68.728 13.648,68.7973326 13.648,68.936 L13.648,69.464 C13.648,69.6133341 13.5786674,69.688 13.44,69.688 L7.568,69.688 C7.41866592,69.688 7.3173336,69.717333 7.264,69.776 C7.2106664,69.834667 7.184,69.9439992 7.184,70.104 L7.184,74.008 C7.184,74.1573341 7.2106664,74.2639997 7.264,74.328 C7.3173336,74.3920003 7.41866592,74.424 7.568,74.424 L13.712,74.424 C13.8506674,74.424 13.92,74.4933326 13.92,74.632 L13.92,75.16 Z" id="theLeftㄷ" fill="#FFFFFF"></path>
        <path d="M105.792,45.32 C105.792,45.3840003 105.765334,45.4319998 105.712,45.464 C105.658666,45.4960002 105.605334,45.512 105.552,45.512 L99.408,45.512 C98.9066642,45.512 98.5786674,45.4186676 98.424,45.232 C98.2693326,45.0453324 98.192,44.7333355 98.192,44.296 L98.192,38.968 C98.192,38.8186659 98.2666659,38.744 98.416,38.744 L99.072,38.744 C99.2213341,38.744 99.296,38.8186659 99.296,38.968 L99.296,44.216 C99.296,44.3653341 99.3199998,44.4586665 99.368,44.496 C99.4160002,44.5333335 99.5146659,44.552 99.664,44.552 L105.552,44.552 C105.605334,44.552 105.658666,44.5706665 105.712,44.608 C105.765334,44.6453335 105.792,44.6906664 105.792,44.744 L105.792,45.32 Z" id="theLeftㄴ" fill="#FFFFFF"></path>
        <path d="M78.808,43.176 C78.7653331,43.1973334 78.7280002,43.2239998 78.696,43.256 C78.1093304,43.714669 77.4746701,44.1653311 76.792,44.608 C76.1093299,45.0506689 75.3360043,45.5173309 74.472,46.008 C74.3333326,46.082667 74.226667,46.0560006 74.152,45.928 L73.864,45.464 C73.7999997,45.3253326 73.8266661,45.2240003 73.944,45.16 C74.7333373,44.7119978 75.4506634,44.2853354 76.096,43.88 C76.7413366,43.4746646 77.3359973,43.0613354 77.88,42.64 C78.4240027,42.2186646 78.933331,41.778669 79.408,41.32 C79.882669,40.861331 80.349331,40.365336 80.808,39.832 C80.9146672,39.7146661 80.9653334,39.6240003 80.96,39.56 C80.9546666,39.4959997 80.8666675,39.464 80.696,39.464 L74.776,39.464 C74.6373326,39.464 74.568,39.3946674 74.568,39.256 L74.568,38.696 C74.568,38.5679994 74.6373326,38.504 74.776,38.504 L81.128,38.504 C81.5440021,38.504 81.8666655,38.5439996 82.096,38.624 C82.3253345,38.7040004 82.4719997,38.8159993 82.536,38.96 C82.6000003,39.1040007 82.5893338,39.2773323 82.504,39.48 C82.4186662,39.6826677 82.2640011,39.9013322 82.04,40.136 C81.4746638,40.744003 80.925336,41.2986642 80.392,41.8 C80.1359987,42.0453346 79.874668,42.2799989 79.608,42.504 C79.8533346,42.6640008 80.109332,42.8186659 80.376,42.968 C80.7706686,43.2133346 81.1706646,43.4479989 81.576,43.672 C81.9813354,43.8960011 82.3919979,44.1066657 82.808,44.304 C83.2240021,44.5013343 83.6346646,44.6693326 84.04,44.808 C84.1360005,44.8400002 84.1893333,44.8746665 84.2,44.912 C84.2106667,44.9493335 84.1946669,44.9999997 84.152,45.064 L83.896,45.624 C83.8533331,45.7413339 83.7520008,45.762667 83.592,45.688 C82.7279957,45.3786651 81.8106715,44.9466694 80.84,44.392 C80.1466632,44.0079981 79.4693366,43.6026688 78.808,43.176 Z" id="theLeftㅈ" fill="#FFFFFF"></path>
        <path d="M52.224,34.792 C52.224,34.7279997 52.2506664,34.6800002 52.304,34.648 C52.3573336,34.6159998 52.4106664,34.6 52.464,34.6 L58.544,34.6 C59.0453358,34.6 59.3733326,34.6933324 59.528,34.88 C59.6826674,35.0666676 59.76,35.3786645 59.76,35.816 L59.76,41.4 C59.76,41.5493341 59.6853341,41.624 59.536,41.624 L58.88,41.624 C58.7306659,41.624 58.656,41.5493341 58.656,41.4 L58.656,35.896 C58.656,35.7466659 58.6320002,35.6533335 58.584,35.616 C58.5359998,35.5786665 58.4373341,35.56 58.288,35.56 L52.464,35.56 C52.4106664,35.56 52.3573336,35.5413335 52.304,35.504 C52.2506664,35.4666665 52.224,35.4213336 52.224,35.368 L52.224,34.792 Z" id="theLeftㄱ" fill="#FFFFFF"></path>
        <path d="M29.192,38.088 C29.192,37.6399978 29.2773325,37.3386674 29.448,37.184 C29.6186675,37.0293326 29.9386643,36.952 30.408,36.952 L35.592,36.952 C35.8480013,36.952 36.0533326,36.9679998 36.208,37 C36.3626674,37.0320002 36.4853329,37.0906662 36.576,37.176 C36.6666671,37.2613338 36.7279998,37.3786659 36.76,37.528 C36.7920002,37.6773341 36.808,37.8639989 36.808,38.088 L36.808,42.296 C36.808,42.7440022 36.7226675,43.0453326 36.552,43.2 C36.3813325,43.3546674 36.0613357,43.432 35.592,43.432 L30.408,43.432 C30.1519987,43.432 29.9466674,43.4160002 29.792,43.384 C29.6373326,43.3519998 29.5146671,43.2906671 29.424,43.2 C29.3333329,43.1093329 29.2720002,42.9920007 29.24,42.848 C29.2079998,42.7039993 29.192,42.5200011 29.192,42.296 L29.192,38.088 Z M30.68,37.912 C30.5306659,37.912 30.4293336,37.941333 30.376,38 C30.3226664,38.058667 30.296,38.1679992 30.296,38.328 L30.296,42.056 C30.296,42.2160008 30.3226664,42.325333 30.376,42.384 C30.4293336,42.442667 30.5306659,42.472 30.68,42.472 L35.32,42.472 C35.4693341,42.472 35.5706664,42.442667 35.624,42.384 C35.6773336,42.325333 35.704,42.2160008 35.704,42.056 L35.704,38.328 C35.704,38.1679992 35.6773336,38.058667 35.624,38 C35.5706664,37.941333 35.4693341,37.912 35.32,37.912 L30.68,37.912 Z" id="theLeftㅁ" fill="#FFFFFF"></path>
        <path d="M12.224,42.504 C12.224,42.6533341 12.1440008,42.728 11.984,42.728 L7.76,42.728 C7.7066664,42.728 7.65600024,42.7093335 7.608,42.672 C7.55999976,42.6346665 7.536,42.5840003 7.536,42.52 L7.536,41.96 C7.536,41.8959997 7.55733312,41.8426669 7.6,41.8 C7.64266688,41.7573331 7.6906664,41.736 7.744,41.736 L11.984,41.736 C12.1440008,41.736 12.224,41.8106659 12.224,41.96 L12.224,42.504 Z M14.48,44.344 C14.48,44.4826674 14.4000008,44.552 14.24,44.552 L5.728,44.552 C5.6746664,44.552 5.62400024,44.5306669 5.576,44.488 C5.52799976,44.4453331 5.504,44.3920003 5.504,44.328 L5.504,43.832 C5.504,43.7679997 5.52799976,43.7146669 5.576,43.672 C5.62400024,43.6293331 5.6746664,43.608 5.728,43.608 L14.24,43.608 C14.4000008,43.608 14.48,43.6773326 14.48,43.816 L14.48,44.344 Z M13.456,47.848 C13.456,48.2426686 13.3680009,48.602665 13.192,48.928 C13.0159991,49.253335 12.7733349,49.5306655 12.464,49.76 C12.1546651,49.9893345 11.7866688,50.1679994 11.36,50.296 C10.9333312,50.4240006 10.4746691,50.488 9.984,50.488 C9.48266416,50.488 9.02133544,50.4240006 8.6,50.296 C8.17866456,50.1679994 7.81333488,49.9893345 7.504,49.76 C7.19466512,49.5306655 6.95200088,49.253335 6.776,48.928 C6.59999912,48.602665 6.512,48.2426686 6.512,47.848 C6.512,47.4533314 6.59999912,47.093335 6.776,46.768 C6.95200088,46.442665 7.19466512,46.1653345 7.504,45.936 C7.81333488,45.7066655 8.17866456,45.5306673 8.6,45.408 C9.02133544,45.2853327 9.48266416,45.224 9.984,45.224 C10.4746691,45.224 10.9333312,45.2879994 11.36,45.416 C11.7866688,45.5440006 12.1546651,45.7226655 12.464,45.952 C12.7733349,46.1813345 13.0159991,46.4559984 13.192,46.776 C13.3680009,47.0960016 13.456,47.4533314 13.456,47.848 Z M12.368,47.88 C12.368,47.3359973 12.1440022,46.9120015 11.696,46.608 C11.2479978,46.3039985 10.6773368,46.152 9.984,46.152 C9.64266496,46.152 9.3253348,46.1919996 9.032,46.272 C8.7386652,46.3520004 8.4853344,46.4639993 8.272,46.608 C8.0586656,46.7520007 7.89066728,46.9333322 7.768,47.152 C7.64533272,47.3706678 7.584,47.613332 7.584,47.88 C7.584,48.146668 7.64533272,48.3866656 7.768,48.6 C7.89066728,48.8133344 8.0586656,48.9946659 8.272,49.144 C8.4853344,49.2933341 8.7386652,49.4079996 9.032,49.488 C9.3253348,49.5680004 9.64266496,49.608 9.984,49.608 C10.6773368,49.608 11.2479978,49.4533349 11.696,49.144 C12.1440022,48.8346651 12.368,48.413336 12.368,47.88 Z" id="theLeftㅎ" fill="#FFFFFF"></path>
        <path d="M98.94,21.512 C98.8013326,21.4586664 98.732,21.3626674 98.732,21.224 L98.732,20.552 C98.732,20.3706658 98.8013326,20.317333 98.94,20.392 C99.3133352,20.5733342 99.6493318,20.701333 99.948,20.776 C100.246668,20.850667 100.555998,20.888 100.876,20.888 C101.580004,20.888 102.214664,20.658669 102.78,20.2 C103.36667,19.6986642 103.665333,19.0800037 103.676,18.344 C103.676,16.7119918 102.796009,15.896 101.036,15.896 C100.790665,15.896 100.529335,15.9199998 100.252,15.968 C99.9746653,16.0160002 99.6440019,16.1039994 99.26,16.232 C99.1426661,16.2640002 99.046667,16.250667 98.972,16.192 C98.897333,16.133333 98.86,16.0453339 98.86,15.928 L98.956,11.224 C98.956,10.9999989 98.9746665,10.8693335 99.012,10.832 C99.0493335,10.7946665 99.1746656,10.776 99.388,10.776 L104.028,10.776 C104.166667,10.776 104.236,10.8506659 104.236,11 L104.236,11.528 C104.236,11.6773341 104.166667,11.752 104.028,11.752 L100.012,11.752 C100.001333,12.4240034 99.9880001,13.0079975 99.972,13.504 C99.9559999,14.0000025 99.9426667,14.5679968 99.932,15.208 C100.401336,15.0373325 100.907997,14.952 101.452,14.952 C102.316004,14.952 103.078663,15.2399971 103.74,15.816 C104.412003,16.4346698 104.748,17.2026621 104.748,18.12 C104.748,19.2293389 104.369337,20.146663 103.612,20.872 C102.811996,21.5333366 101.900005,21.864 100.876,21.864 C100.598665,21.864 100.297335,21.8400002 99.972,21.792 C99.646665,21.7439998 99.3026685,21.6506674 98.94,21.512 Z" id="the5" fill="#FFFFFF"></path>
        <path d="M79.268,17.96 L79.268,11.944 L75.924,17.96 L79.268,17.96 Z M80.356,21.528 C80.356,21.6773341 80.2813341,21.752 80.132,21.752 L79.492,21.752 C79.3426659,21.752 79.268,21.6773341 79.268,21.528 L79.268,18.936 L75.364,18.936 C75.1399989,18.936 75.0093335,18.9173335 74.972,18.88 C74.9346665,18.8426665 74.916,18.7120011 74.916,18.488 L74.916,17.992 C74.916,17.8959995 74.9213333,17.8320002 74.932,17.8 C74.9426667,17.7679998 74.9746664,17.7093338 75.028,17.624 L78.756,10.968 C78.8200003,10.8719995 78.8653332,10.8160001 78.892,10.8 C78.9186668,10.7839999 78.9906661,10.776 79.108,10.776 L79.908,10.776 C80.1320011,10.776 80.2626665,10.7946665 80.3,10.832 C80.3373335,10.8693335 80.356,10.9999989 80.356,11.224 L80.356,17.96 L82.1,17.96 C82.2493341,17.96 82.324,18.0346659 82.324,18.184 L82.324,18.712 C82.324,18.8613341 82.2493341,18.936 82.1,18.936 L80.356,18.936 L80.356,21.528 Z" id="the4" fill="#FFFFFF"></path>
        <path d="M52.652,17.464 C52.4919992,17.4213331 52.4226666,17.2986677 52.444,17.096 L52.508,16.52 C52.5293334,16.3919994 52.6146659,16.3599997 52.764,16.424 C53.0946683,16.5626674 53.4466648,16.6746662 53.82,16.76 C54.1933352,16.8453338 54.5719981,16.888 54.956,16.888 C55.7133371,16.888 56.3319976,16.7066685 56.812,16.344 C57.4626699,15.885331 57.788,15.293337 57.788,14.568 C57.7773333,13.1919931 56.7000107,12.504 54.556,12.504 L54.22,12.504 C54.0813326,12.504 54.012,12.4453339 54.012,12.328 L54.012,11.736 C54.012,11.5973326 54.0813326,11.528 54.22,11.528 L54.3,11.528 C54.9933368,11.528 55.6546635,11.4106678 56.284,11.176 C57.2333381,10.7919981 57.708,10.1946707 57.708,9.384 C57.708,9.09599856 57.6360007,8.83466784 57.492,8.6 C57.3479993,8.36533216 57.1213349,8.1680008 56.812,8.008 C56.6093323,7.89066608 56.3666681,7.79733368 56.084,7.728 C55.8013319,7.65866632 55.4840018,7.624 55.132,7.624 C54.8013317,7.624 54.4706683,7.67199952 54.14,7.768 C53.8093317,7.86400048 53.4946682,7.9919992 53.196,8.152 C53.0679994,8.2053336 52.9933334,8.16266736 52.972,8.024 L52.908,7.448 C52.8866666,7.29866592 52.9506659,7.19200032 53.1,7.128 C53.4520018,6.9679992 53.8093315,6.8480004 54.172,6.768 C54.5346685,6.6879996 54.8919982,6.648 55.244,6.648 C56.1826714,6.648 57.0039965,6.87199776 57.708,7.32 C58.4546704,7.853336 58.828,8.54132912 58.828,9.384 C58.828,10.0560034 58.5933357,10.621331 58.124,11.08 C57.665331,11.5066688 57.1053366,11.8053325 56.444,11.976 C56.7213347,12.0080002 57.0279983,12.1039992 57.364,12.264 C57.7000017,12.4240008 57.9693323,12.6159989 58.172,12.84 C58.4173346,13.106668 58.6013327,13.3919985 58.724,13.696 C58.8466673,14.0000015 58.908,14.3119984 58.908,14.632 C58.908,15.1013357 58.812001,15.5306647 58.62,15.92 C58.427999,16.3093353 58.1346686,16.6586651 57.74,16.968 C57.3453314,17.2773349 56.9213356,17.5039993 56.468,17.648 C56.0146644,17.7920007 55.521336,17.864 54.988,17.864 C54.6359982,17.864 54.260002,17.834667 53.86,17.776 C53.459998,17.717333 53.0573354,17.6133341 52.652,17.464 Z" id="the3" fill="#FFFFFF"></path>
        <path d="M29.604,19.752 C29.4973328,19.752 29.414667,19.7493334 29.356,19.744 C29.297333,19.7386666 29.2546668,19.7226668 29.228,19.696 C29.2013332,19.6693332 29.1853334,19.626667 29.18,19.568 C29.1746666,19.509333 29.172,19.4213339 29.172,19.304 L29.172,18.952 C29.172,18.8133326 29.2146662,18.706667 29.3,18.632 L31.716,16.136 C33.4333419,14.3013242 34.2866667,12.8773384 34.276,11.864 C34.2866667,11.1599965 34.1320016,10.6213352 33.812,10.248 C33.4493315,9.84266464 32.9480032,9.62933344 32.308,9.608 C31.5506629,9.608 30.7826706,9.8479976 30.004,10.328 C29.8653326,10.402667 29.7800002,10.3706674 29.748,10.232 L29.652,9.704 C29.6199998,9.52266576 29.6733326,9.4053336 29.812,9.352 C30.2386688,9.11733216 30.6493314,8.94133392 31.044,8.824 C31.4386686,8.70666608 31.8493312,8.648 32.276,8.648 C33.1293376,8.648 33.859997,8.90399744 34.468,9.416 C35.1400034,9.97066944 35.476,10.7599949 35.476,11.784 C35.476,12.1786686 35.3853342,12.613331 35.204,13.088 C35.0226658,13.562669 34.7346686,14.066664 34.34,14.6 C33.9666648,15.0693357 33.6626678,15.4453319 33.428,15.728 C33.1933322,16.0106681 32.8840019,16.3599979 32.5,16.776 C32.0839979,17.2133355 31.7560012,17.5546654 31.516,17.8 C31.2759988,18.0453346 30.9586686,18.3653314 30.564,18.76 L35.508,18.76 C35.6680008,18.7706667 35.7426667,18.8453326 35.732,18.984 L35.732,19.544 C35.732,19.6826674 35.6626674,19.752 35.524,19.752 L29.604,19.752 Z" id="the2" fill="#FFFFFF"></path>
        <path d="M10.556,25.528 C10.556,25.6773341 10.4813341,25.752 10.332,25.752 L9.676,25.752 C9.52666592,25.752 9.452,25.6773341 9.452,25.528 L9.452,16.088 C9.12133168,16.3653347 8.81200144,16.6266654 8.524,16.872 C8.23599856,17.1173346 7.9320016,17.3786653 7.612,17.656 C7.49466608,17.7520005 7.38800048,17.7413339 7.292,17.624 L6.972,17.24 C6.93999984,17.1866664 6.924,17.130667 6.924,17.072 C6.924,17.013333 6.9506664,16.9626669 7.004,16.92 L9.484,14.84 C9.52666688,14.7973331 9.59066624,14.776 9.676,14.776 L10.108,14.776 C10.3320011,14.776 10.4626665,14.7946665 10.5,14.832 C10.5373335,14.8693335 10.556,14.9999989 10.556,15.224 L10.556,25.528 Z" id="the1" fill="#FFFFFF"></path>
    </g>
</svg>