<svg width="24" height="24" xmlns="http://www.w3.org/2000/svg" viewBox="0 0 24 24">
<defs>
  <path d="M1.707 16.707l5.441 5.441a1 1 0 0 0 1.532-.142L20.251 5.094a1 1 0 0 0-.509-1.513l-1.041-.347a1 1 0 0 0-1.13.367L8 17l-3.293-3.293a1 1 0 0 0-1.414 0l-1.586 1.586a1 1 0 0 0 0 1.414z" />
</defs>
<g fill="currentColor" fillRule="evenodd">
  <mask id="a" fill="currentColor"></mask>
  <path stroke="currentColor" d="M2.06 16.354l5.442 5.44a.5.5 0 0 0 .766-.07l11.57-16.912a.5.5 0 0 0-.254-.757l-1.041-.347a.5.5 0 0 0-.565.184L8.064 17.77l-3.71-3.71a.5.5 0 0 0-.708 0l-1.585 1.585a.5.5 0 0 0 0 .708z"/>
  <g mask="url(#a)" fill="currentColor">
    <path d="M0 0h24v24H0z"/>
  </g>
</g>
</svg>