<svg fill="none" xmlns="http://www.w3.org/2000/svg" viewBox="0 0 24 24">
  <circle cx="12" cy="12" r="9" stroke="currentColor" stroke-width="2"/>
  <path d="M11.9442 9.016C11.7202 9.016 11.5282 8.936 11.3682 8.776C11.2082 8.616 11.1282 8.42 11.1282 8.188C11.1282 7.956 11.2082 7.764 11.3682 7.612C11.5282 7.452 11.7202 7.372 11.9442 7.372C12.1762 7.372 12.3722 7.452 12.5322 7.612C12.6922 7.764 12.7722 7.956 12.7722 8.188C12.7722 8.42 12.6922 8.616 12.5322 8.776C12.3722 8.936 12.1762 9.016 11.9442 9.016ZM12.6402 14.788H14.3322V16H9.5682V14.788H11.2602V11.08H9.5682V9.868H12.6402V14.788Z" fill="currentColor"/>
</svg>
