<svg xmlns="http://www.w3.org/2000/svg" viewBox="0 0 24 24">
  <path fill-rule="evenodd" clip-rule="evenodd" d="M9.395 1a.5.5 0 00-.486.384l-4.762 20a.5.5 0 00.486.616h14.734a.5.5 0 00.486-.616l-2.216-9.308 1.87-2.137a2 2 0 10-1.434-1.399L17.07 9.689l-1.977-8.305A.5.5 0 0014.604 1h-5.21zm6.102 10.485l-1.906-8.1A.5.5 0 0013.104 3h-2.208a.5.5 0 00-.486.385l-2.824 12a.5.5 0 00.487.615h3.473l3.95-4.515zM14.204 16h1.724a.5.5 0 00.487-.614l-.355-1.507L14.204 16zm-7.559 3.386a.5.5 0 00.487.614h9.737a.5.5 0 00.487-.614l-.236-1a.5.5 0 00-.486-.386H7.367a.5.5 0 00-.487.386l-.235 1zM12 7a1 1 0 100-2 1 1 0 000 2zm.999 2a1 1 0 11-2 0 1 1 0 012 0zM12 13a1 1 0 100-2 1 1 0 000 2zm8-4.5a.5.5 0 100-1 .5.5 0 000 1z" fill="currentColor"/>
</svg>