<svg xmlns="http://www.w3.org/2000/svg" viewBox="0 0 24 24"><path d="M6,12.9983471 C6,12.9983471 6,12.9983471 6,12.9983471 C6,16.3111427 8.6862915,18.9966941 12,18.9966941 C15.3137085,18.9966941 18,16.3111427 18,12.9983471 C18,9.68633182 15.3149739,7.00126526 12.0023416,7.00000045 L12.0023416,4.99896084 C16.4211533,4.99900502 20.0032943,8.58113874 20.0032943,12.9999183 C20.0032943,17.418725 16.4211092,21.0008757 12.0022599,21.0008757 C7.58341064,21.0008757 4.00122554,17.418725 4.00122554,12.9999183 C4.00122554,12.9999183 4.00122554,12.9999183 4.00122554,12.9999183 L4.00122554,12.9999183 C4.00122554,12.7238075 4.22505756,12.4999754 4.50116835,12.4999754 L5.50165119,12.4999983 C5.77688164,12.4999983 6,12.7231166 6,12.9983471 Z M7.0002749,6 L11.1467215,1.85355339 C11.3419837,1.65829124 11.6585661,1.65829124 11.8538283,1.85355339 C11.9475965,1.94732158 12.0002749,2.07449854 12.0002749,2.20710678 L12.0002749,9.79289322 C12.0002749,10.0690356 11.7764173,10.2928932 11.5002749,10.2928932 C11.3676667,10.2928932 11.2404897,10.2402148 11.1467215,10.1464466 L7.0002749,6 Z"></path></svg>