
<svg xmlns="http://www.w3.org/2000/svg" viewBox="0 0 180 180">
  <g fill="currentColor">
    <rect x="21" y="61" width="11" height="21" rx="4"/>
    <rect x="36" y="61" width="11" height="21" rx="4"/>
    <rect x="51" y="61" width="11" height="21" rx="4"/>
    <rect x="75" y="61" width="16" height="21" rx="4"/>
    <rect x="5" y="44" width="170" height="11" rx="4"/>
    <rect x="104" y="61" width="11" height="21" rx="4"/>
    <rect x="119" y="61" width="11" height="21" rx="4"/>
    <rect x="134" y="61" width="11" height="21" rx="4"/>
    <rect x="149" y="61" width="11" height="21" rx="4"/>
    <rect x="5" y="61" width="11" height="48" rx="4"/>
    <rect x="21" y="88" width="11" height="21" rx="4"/>
    <rect x="36" y="88" width="11" height="21" rx="4"/>
    <rect x="51" y="88" width="11" height="21" rx="4"/>
    <rect x="75" y="88" width="16" height="21" rx="4"/>
    <rect x="104" y="88" width="11" height="21" rx="4"/>
    <rect x="119" y="88" width="11" height="21" rx="4"/>
    <rect x="47" y="114" width="11" height="21" rx="4"/>
    <rect x="62" y="114" width="11" height="21" rx="4"/>
    <rect x="93" y="114" width="11" height="21" rx="4"/>
    <rect x="108" y="114" width="11" height="21" rx="4"/>
    <rect x="134" y="88" width="11" height="21" rx="4"/>
    <rect x="149" y="88" width="11" height="21" rx="4"/>
    <rect x="164" y="61" width="11" height="21" rx="4"/>
    <rect x="164" y="88" width="11" height="21" rx="4"/>
  </g>
</svg>